  0
SECTION
  2
ENTITIES
  0
POINT
 10
3463623.541640000
 20
5486057.436930000
 30
0.000000000000000
  8
AUFNAHME_270513
  0
POINT
 10
3463615.645550000
 20
5486051.311050000
 30
0.000000000000000
  8
AUFNAHME_270513
  0
POINT
 10
3463606.695350000
 20
5486043.991530000
 30
0.000000000000000
  8
AUFNAHME_270513
  0
POINT
 10
3463598.848330000
 20
5486037.821620000
 30
0.000000000000000
  8
AUFNAHME_270513
  0
POINT
 10
3463579.200120000
 20
5486053.344820000
 30
0.000000000000000
  8
AUFNAHME_270513
  0
POINT
 10
3463568.188900000
 20
5486067.914840000
 30
0.000000000000000
  8
AUFNAHME_270513
  0
POINT
 10
3463561.163870000
 20
5486079.118110000
 30
0.000000000000000
  8
AUFNAHME_270513
  0
POINT
 10
3463552.840490000
 20
5486095.346520000
 30
0.000000000000000
  8
AUFNAHME_270513
  0
POINT
 10
3463561.279160000
 20
5486102.923610000
 30
0.000000000000000
  8
AUFNAHME_270513
  0
POINT
 10
3463585.295500000
 20
5486078.114420000
 30
0.000000000000000
  8
AUFNAHME_270513
  0
POINT
 10
3463614.358960000
 20
5486050.359480000
 30
-0.295000000000000
  8
AUFNAHME_270513
  0
POINT
 10
3463614.559900000
 20
5486051.448230000
 30
-0.254000000000000
  8
AUFNAHME_270513
  0
POINT
 10
3463615.546790000
 20
5486051.290210000
 30
-0.281000000000000
  8
AUFNAHME_270513
  0
POINT
 10
3463618.840710000
 20
5486053.915280000
 30
-0.327000000000000
  8
AUFNAHME_270513
  0
POINT
 10
3463622.187840000
 20
5486056.576280000
 30
-0.279000000000000
  8
AUFNAHME_270513
  0
POINT
 10
3463622.364940000
 20
5486057.686970000
 30
-0.262000000000000
  8
AUFNAHME_270513
  0
POINT
 10
3463623.385090000
 20
5486057.527290000
 30
-0.289000000000000
  8
AUFNAHME_270513
  0
POINT
 10
3463624.339430000
 20
5486058.288920000
 30
-0.314000000000000
  8
AUFNAHME_270513
  0
POINT
 10
3463625.076040000
 20
5486058.207830000
 30
-0.319000000000000
  8
AUFNAHME_270513
  0
POINT
 10
3463625.007980000
 20
5486057.498200000
 30
-0.302000000000000
  8
AUFNAHME_270513
  0
POINT
 10
3463624.017990000
 20
5486056.723560000
 30
-0.293000000000000
  8
AUFNAHME_270513
  0
POINT
 10
3463623.932510000
 20
5486055.704910000
 30
-0.266000000000000
  8
AUFNAHME_270513
  0
POINT
 10
3463622.834810000
 20
5486055.777350000
 30
-0.297000000000000
  8
AUFNAHME_270513
  0
POINT
 10
3463619.471720000
 20
5486053.107490000
 30
-0.330000000000000
  8
AUFNAHME_270513
  0
POINT
 10
3463616.192810000
 20
5486050.489250000
 30
-0.283000000000000
  8
AUFNAHME_270513
  0
POINT
 10
3463616.119550000
 20
5486049.484160000
 30
-0.266000000000000
  8
AUFNAHME_270513
  0
POINT
 10
3463615.011080000
 20
5486049.562090000
 30
-0.297000000000000
  8
AUFNAHME_270513
  0
POINT
 10
3463612.172160000
 20
5486047.295090000
 30
-0.348000000000000
  8
AUFNAHME_270513
  0
POINT
 10
3463612.077770000
 20
5486047.216180000
 30
-0.349000000000000
  8
AUFNAHME_270513
  0
POINT
 10
3463611.432060000
 20
5486048.019950000
 30
-0.297000000000000
  8
AUFNAHME_270513
  0
POINT
 10
3463611.648690000
 20
5486048.190970000
 30
-0.329000000000000
  8
AUFNAHME_270513
  0
POINT
 10
3463606.556290000
 20
5486044.135410000
 30
-0.284000000000000
  8
AUFNAHME_270513
  0
POINT
 10
3463605.574260000
 20
5486044.298570000
 30
-0.267000000000000
  8
AUFNAHME_270513
  0
POINT
 10
3463603.920720000
 20
5486042.035260000
 30
-0.328000000000000
  8
AUFNAHME_270513
  0
POINT
 10
3463598.717060000
 20
5486037.902700000
 30
-0.285000000000000
  8
AUFNAHME_270513
  0
POINT
 10
3463597.718430000
 20
5486038.051380000
 30
-0.254000000000000
  8
AUFNAHME_270513
  0
POINT
 10
3463597.538390000
 20
5486036.952420000
 30
-0.276000000000000
  8
AUFNAHME_270513
  0
POINT
 10
3463592.669970000
 20
5486033.069890000
 30
-0.311000000000000
  8
AUFNAHME_270513
  0
POINT
 10
3463592.567910000
 20
5486032.324290000
 30
-0.330000000000000
  8
AUFNAHME_270513
  0
POINT
 10
3463593.279240000
 20
5486032.252480000
 30
-0.305000000000000
  8
AUFNAHME_270513
  0
POINT
 10
3463596.527950000
 20
5486034.849250000
 30
-0.320000000000000
  8
AUFNAHME_270513
  0
POINT
 10
3463598.187720000
 20
5486036.161760000
 30
-0.304000000000000
  8
AUFNAHME_270513
  0
POINT
 10
3463599.291690000
 20
5486036.094300000
 30
-0.262000000000000
  8
AUFNAHME_270513
  0
POINT
 10
3463599.355400000
 20
5486037.090520000
 30
-0.294000000000000
  8
AUFNAHME_270513
  0
POINT
 10
3463604.532940000
 20
5486041.212530000
 30
-0.340000000000000
  8
AUFNAHME_270513
  0
POINT
 10
3463606.016800000
 20
5486042.392770000
 30
-0.300000000000000
  8
AUFNAHME_270513
  0
POINT
 10
3463607.110950000
 20
5486042.332850000
 30
-0.270000000000000
  8
AUFNAHME_270513
  0
POINT
 10
3463607.189460000
 20
5486043.315270000
 30
-0.290000000000000
  8
AUFNAHME_270513
  0
POINT
 10
3463610.143240000
 20
5486045.665970000
 30
-0.320000000000000
  8
AUFNAHME_270513
  0
POINT
 10
3463609.481440000
 20
5486046.465880000
 30
-0.310000000000000
  8
AUFNAHME_270513
  0
POINT
 10
3463589.207310000
 20
5486025.485820000
 30
-0.150000000000000
  8
AUFNAHME_270513
  0
POINT
 10
3463579.307930000
 20
5486037.926910000
 30
-0.048000000000000
  8
AUFNAHME_270513
  0
POINT
 10
3463567.538850000
 20
5486052.702600000
 30
-0.013000000000000
  8
AUFNAHME_270513
  0
POINT
 10
3463557.536470000
 20
5486065.276410000
 30
-0.017000000000000
  8
AUFNAHME_270513
  0
POINT
 10
3463550.703570000
 20
5486073.944120000
 30
-0.010000000000000
  8
AUFNAHME_270513
  0
POINT
 10
3463550.356780000
 20
5486075.909460000
 30
-0.033000000000000
  8
AUFNAHME_270513
  0
POINT
 10
3463550.313970000
 20
5486083.945690000
 30
-0.076000000000000
  8
AUFNAHME_270513
  0
POINT
 10
3463550.926760000
 20
5486089.922320000
 30
-0.072000000000000
  8
AUFNAHME_270513
  0
POINT
 10
3463551.562820000
 20
5486091.794150000
 30
-0.062000000000000
  8
AUFNAHME_270513
  0
POINT
 10
3463552.957540000
 20
5486093.210160000
 30
-0.062000000000000
  8
AUFNAHME_270513
  0
POINT
 10
3463554.538910000
 20
5486094.465410000
 30
-0.058000000000000
  8
AUFNAHME_270513
  0
POINT
 10
3463554.612980000
 20
5486095.202810000
 30
-0.069000000000000
  8
AUFNAHME_270513
  0
POINT
 10
3463552.115320000
 20
5486098.322090000
 30
-0.026000000000000
  8
AUFNAHME_270513
  0
POINT
 10
3463557.980690000
 20
5486103.009080000
 30
0.003000000000000
  8
AUFNAHME_270513
  0
POINT
 10
3463560.451720000
 20
5486099.862230000
 30
-0.045000000000000
  8
AUFNAHME_270513
  0
POINT
 10
3463561.181010000
 20
5486099.791930000
 30
-0.031000000000000
  8
AUFNAHME_270513
  0
POINT
 10
3463564.304150000
 20
5486102.273490000
 30
0.019000000000000
  8
AUFNAHME_270513
  0
POINT
 10
3463568.627540000
 20
5486096.845970000
 30
-0.015000000000000
  8
AUFNAHME_270513
  0
POINT
 10
3463569.361530000
 20
5486096.779400000
 30
-0.023000000000000
  8
AUFNAHME_270513
  0
POINT
 10
3463570.564490000
 20
5486095.263780000
 30
-0.037000000000000
  8
AUFNAHME_270513
  0
POINT
 10
3463570.469040000
 20
5486094.532370000
 30
-0.031000000000000
  8
AUFNAHME_270513
  0
POINT
 10
3463579.419790000
 20
5486083.303210000
 30
0.036000000000000
  8
AUFNAHME_270513
  0
POINT
 10
3463584.042830000
 20
5486077.526270000
 30
0.036000000000000
  8
AUFNAHME_270513
  0
POINT
 10
3463588.089680000
 20
5486072.444830000
 30
0.027000000000000
  8
AUFNAHME_270513
  0
POINT
 10
3463588.814440000
 20
5486072.372190000
 30
0.036000000000000
  8
AUFNAHME_270513
  0
POINT
 10
3463592.767880000
 20
5486067.395340000
 30
0.017000000000000
  8
AUFNAHME_270513
  0
POINT
 10
3463568.726550000
 20
5486097.621100000
 30
0.098000000000000
  8
AUFNAHME_270513
  0
POINT
 10
3463557.845950000
 20
5486083.891520000
 30
-0.208000000000000
  8
AUFNAHME_270513
  0
POINT
 10
3463556.928980000
 20
5486081.759200000
 30
-0.175000000000000
  8
AUFNAHME_270513
  0
POINT
 10
3463588.001450000
 20
5486045.273540000
 30
-0.129000000000000
  8
AUFNAHME_270513
  0
POINT
 10
3463588.791570000
 20
5486045.949270000
 30
-0.137000000000000
  8
AUFNAHME_270513
  0
POINT
 10
3463557.122820000
 20
5486078.664060000
 30
-0.128000000000000
  8
AUFNAHME_270513
  0
POINT
 10
3463557.751290000
 20
5486076.728540000
 30
-0.105000000000000
  8
AUFNAHME_270513
  0
POINT
 10
3463558.639100000
 20
5486074.939250000
 30
-0.078000000000000
  8
AUFNAHME_270513
  0
POINT
 10
3463559.353250000
 20
5486074.761070000
 30
-0.088000000000000
  8
AUFNAHME_270513
  0
POINT
 10
3463562.498760000
 20
5486077.257880000
 30
-0.154000000000000
  8
AUFNAHME_270513
  0
POINT
 10
3463565.632430000
 20
5486073.330950000
 30
-0.193000000000000
  8
AUFNAHME_270513
  0
POINT
 10
3463568.731110000
 20
5486069.459250000
 30
-0.137000000000000
  8
AUFNAHME_270513
  0
POINT
 10
3463564.814410000
 20
5486066.352880000
 30
-0.074000000000000
  8
AUFNAHME_270513
  0
POINT
 10
3463564.723940000
 20
5486065.615210000
 30
-0.066000000000000
  8
AUFNAHME_270513
  0
POINT
 10
3463565.655650000
 20
5486064.442220000
 30
-0.080000000000000
  8
AUFNAHME_270513
  0
POINT
 10
3463566.387450000
 20
5486064.375190000
 30
-0.082000000000000
  8
AUFNAHME_270513
  0
POINT
 10
3463570.292010000
 20
5486067.493620000
 30
-0.138000000000000
  8
AUFNAHME_270513
  0
POINT
 10
3463575.292140000
 20
5486061.247400000
 30
-0.184000000000000
  8
AUFNAHME_270513
  0
POINT
 10
3463580.417300000
 20
5486054.861670000
 30
-0.081000000000000
  8
AUFNAHME_270513
  0
POINT
 10
3463577.235980000
 20
5486052.350450000
 30
-0.063000000000000
  8
AUFNAHME_270513
  0
POINT
 10
3463577.227980000
 20
5486051.618320000
 30
-0.061000000000000
  8
AUFNAHME_270513
  0
POINT
 10
3463577.628270000
 20
5486051.177720000
 30
-0.068000000000000
  8
AUFNAHME_270513
  0
POINT
 10
3463578.343740000
 20
5486051.136040000
 30
-0.075000000000000
  8
AUFNAHME_270513
  0
POINT
 10
3463585.707740000
 20
5486057.039310000
 30
-0.094000000000000
  8
AUFNAHME_270513
  0
POINT
 10
3463585.228430000
 20
5486068.845250000
 30
-0.074000000000000
  8
AUFNAHME_270513
  0
POINT
 10
3463589.399960000
 20
5486072.158150000
 30
0.022000000000000
  8
AUFNAHME_270513
  0
POINT
 10
3463580.545350000
 20
5486074.713730000
 30
-0.080000000000000
  8
AUFNAHME_270513
  0
POINT
 10
3463574.386950000
 20
5486082.430630000
 30
-0.076000000000000
  8
AUFNAHME_270513
  0
POINT
 10
3463571.108650000
 20
5486075.371410000
 30
-0.183000000000000
  8
AUFNAHME_270513
  0
POINT
 10
3463561.845970000
 20
5486087.079490000
 30
-0.199000000000000
  8
AUFNAHME_270513
  0
POINT
 10
3463566.705530000
 20
5486092.195670000
 30
-0.082000000000000
  8
AUFNAHME_270513
  0
POINT
 10
3463565.511100000
 20
5486093.692530000
 30
-0.082000000000000
  8
AUFNAHME_270513
  0
POINT
 10
3463560.923030000
 20
5486099.520290000
 30
-0.050000000000000
  8
AUFNAHME_270513
  0
POINT
 10
3463554.916380000
 20
5486094.798870000
 30
-0.083000000000000
  8
AUFNAHME_270513
  0
POINT
 10
3463559.067480000
 20
5486074.551670000
 30
-0.101000000000000
  8
AUFNAHME_270513
  0
POINT
 10
3463565.289310000
 20
5486066.729330000
 30
-0.071000000000000
  8
AUFNAHME_270513
  0
POINT
 10
3463566.860640000
 20
5486064.755390000
 30
-0.093000000000000
  8
AUFNAHME_270513
  0
POINT
 10
3463576.991410000
 20
5486052.071580000
 30
-0.069000000000000
  8
AUFNAHME_270513
  0
POINT
 10
3463579.566210000
 20
5486049.616770000
 30
-0.060000000000000
  8
AUFNAHME_270513
  0
POINT
 10
3463585.144950000
 20
5486041.809360000
 30
-0.120000000000000
  8
AUFNAHME_270513
  0
POINT
 10
3463592.924790000
 20
5486047.970550000
 30
-0.170000000000000
  8
AUFNAHME_270513
  0
POINT
 10
3463589.476300000
 20
5486036.320440000
 30
-0.223000000000000
  8
AUFNAHME_270513
  0
POINT
 10
3463592.306280000
 20
5486032.807450000
 30
-0.334000000000000
  8
AUFNAHME_270513
  0
POINT
 10
3463592.987290000
 20
5486032.007480000
 30
-0.313000000000000
  8
AUFNAHME_270513
  0
POINT
 10
3463595.842260000
 20
5486028.382760000
 30
-0.248000000000000
  8
AUFNAHME_270513
  0
POINT
 10
3463605.664960000
 20
5486036.189270000
 30
-0.218000000000000
  8
AUFNAHME_270513
  0
POINT
 10
3463613.396960000
 20
5486042.330290000
 30
-0.226000000000000
  8
AUFNAHME_270513
  0
POINT
 10
3463614.533290000
 20
5486043.221350000
 30
-0.210000000000000
  8
AUFNAHME_270513
  0
POINT
 10
3463620.549620000
 20
5486048.052680000
 30
-0.206000000000000
  8
AUFNAHME_270513
  0
POINT
 10
3463630.130550000
 20
5486055.854720000
 30
-0.181000000000000
  8
AUFNAHME_270513
  0
POINT
 10
3463616.136270000
 20
5486057.530680000
 30
-0.221000000000000
  8
AUFNAHME_270513
  0
POINT
 10
3463608.266940000
 20
5486051.258700000
 30
-0.223000000000000
  8
AUFNAHME_270513
  0
POINT
 10
3463607.031030000
 20
5486050.280790000
 30
-0.233000000000000
  8
AUFNAHME_270513
  0
POINT
 10
3463599.342690000
 20
5486044.166810000
 30
-0.233000000000000
  8
AUFNAHME_270513
  0
POINT
 10
3463585.102080000
 20
5486063.077930000
 30
-0.122000000000000
  8
AUFNAHME_270513
  0
POINT
 10
3463586.973290000
 20
5486055.454640000
 30
-0.098000000000000
  8
AUFNAHME_270513
  0
POINT
 10
3463623.832050000
 20
5486063.678680000
 30
-0.217000000000000
  8
AUFNAHME_270513
  0
POINT
 10
3463622.389830000
 20
5486060.590650000
 30
-0.217000000000000
  8
AUFNAHME_270513
  0
POINT
 10
3463621.387070000
 20
5486070.694830000
 30
-0.098000000000000
  8
AUFNAHME_270513
  0
POINT
 10
3463618.579250000
 20
5486074.202450000
 30
-0.043000000000000
  8
AUFNAHME_270513
  0
POINT
 10
3463612.762900000
 20
5486069.508450000
 30
-0.046000000000000
  8
AUFNAHME_270513
  0
POINT
 10
3463607.278920000
 20
5486065.101820000
 30
-0.062000000000000
  8
AUFNAHME_270513
  0
POINT
 10
3463610.089430000
 20
5486061.605280000
 30
-0.140000000000000
  8
AUFNAHME_270513
  0
POINT
 10
3463615.559140000
 20
5486065.992900000
 30
-0.133000000000000
  8
AUFNAHME_270513
  0
POINT
 10
3463595.891140000
 20
5486035.649880000
 30
-0.319000000000000
  8
AUFNAHME_270513
  0
POINT
 10
3463583.739570000
 20
5486052.302460000
 30
-0.075000000000000
  8
AUFNAHME_270513
  0
POINT
 10
3463579.174340000
 20
5486049.306220000
 30
0.000000000000000
  8
AUFNAHME_270513
  0
POINT
 10
3463582.995990000
 20
5486052.347350000
 30
-0.063000000000000
  8
AUFNAHME_270513
  0
POINT
 10
3463582.640020000
 20
5486052.052710000
 30
-0.069000000000000
  8
AUFNAHME_270513
  0
POINT
 10
3463581.810000000
 20
5486053.899470000
 30
-0.080000000000000
  8
AUFNAHME_270513
  0
POINT
 10
3463581.873460000
 20
5486054.637370000
 30
-0.104000000000000
  8
AUFNAHME_270513
  0
POINT
 10
3463580.546800000
 20
5486056.316540000
 30
-0.229000000000000
  8
AUFNAHME_270513
  0
POINT
 10
3463576.128200000
 20
5486061.820390000
 30
-0.237000000000000
  8
AUFNAHME_270513
  0
POINT
 10
3463578.788050000
 20
5486052.541960000
 30
0.000000000000000
  8
AUFNAHME_270513
  0
POINT
 10
3463568.023920000
 20
5486071.996580000
 30
-0.270000000000000
  8
AUFNAHME_270513
  0
POINT
 10
3463558.747700000
 20
5486083.667060000
 30
-0.294000000000000
  8
AUFNAHME_270513
  0
POINT
 10
3463558.575510000
 20
5486083.861050000
 30
-0.245000000000000
  8
AUFNAHME_270513
  0
LINE
 10
3463615.645550000
 20
5486051.311050000
 30
0.000000000000000
 11
3463615.546790000
 21
5486051.290210000
 31
-0.281000000000000
  8
AUFNAHME_270513
  0
LINE
 10
3463612.172160000
 20
5486047.295090000
 30
-0.348000000000000
 11
3463612.077770000
 21
5486047.216180000
 31
-0.349000000000000
  8
AUFNAHME_270513
  0
LINE
 10
3463598.848330000
 20
5486037.821620000
 30
0.000000000000000
 11
3463598.717060000
 21
5486037.902700000
 31
-0.285000000000000
  8
AUFNAHME_270513
  0
LINE
 10
3463623.541640000
 20
5486057.436930000
 30
0.000000000000000
 11
3463623.385090000
 21
5486057.527290000
 31
-0.289000000000000
  8
AUFNAHME_270513
  0
LINE
 10
3463606.695350000
 20
5486043.991530000
 30
0.000000000000000
 11
3463606.556290000
 21
5486044.135410000
 31
-0.284000000000000
  8
AUFNAHME_270513
  0
LINE
 10
3463558.747700000
 20
5486083.667060000
 30
-0.294000000000000
 11
3463558.575510000
 21
5486083.861050000
 31
-0.245000000000000
  8
AUFNAHME_270513
  0
LINE
 10
3463611.432060000
 20
5486048.019950000
 30
-0.297000000000000
 11
3463611.648690000
 21
5486048.190970000
 31
-0.329000000000000
  8
AUFNAHME_270513
  0
LINE
 10
3463559.353250000
 20
5486074.761070000
 30
-0.088000000000000
 11
3463559.067480000
 21
5486074.551670000
 31
-0.101000000000000
  8
AUFNAHME_270513
  0
LINE
 10
3463577.235980000
 20
5486052.350450000
 30
-0.063000000000000
 11
3463576.991410000
 21
5486052.071580000
 31
-0.069000000000000
  8
AUFNAHME_270513
  0
LINE
 10
3463561.181010000
 20
5486099.791930000
 30
-0.031000000000000
 11
3463560.923030000
 21
5486099.520290000
 31
-0.050000000000000
  8
AUFNAHME_270513
  0
LINE
 10
3463593.279240000
 20
5486032.252480000
 30
-0.305000000000000
 11
3463592.987290000
 21
5486032.007480000
 31
-0.313000000000000
  8
AUFNAHME_270513
  0
LINE
 10
3463592.669970000
 20
5486033.069890000
 30
-0.311000000000000
 11
3463592.306280000
 21
5486032.807450000
 31
-0.334000000000000
  8
AUFNAHME_270513
  0
LINE
 10
3463582.995990000
 20
5486052.347350000
 30
-0.063000000000000
 11
3463582.640020000
 21
5486052.052710000
 31
-0.069000000000000
  8
AUFNAHME_270513
  0
LINE
 10
3463579.566210000
 20
5486049.616770000
 30
-0.060000000000000
 11
3463579.174340000
 21
5486049.306220000
 31
0.000000000000000
  8
AUFNAHME_270513
  0
LINE
 10
3463554.538910000
 20
5486094.465410000
 30
-0.058000000000000
 11
3463554.916380000
 21
5486094.798870000
 31
-0.083000000000000
  8
AUFNAHME_270513
  0
LINE
 10
3463554.612980000
 20
5486095.202810000
 30
-0.069000000000000
 11
3463554.916380000
 21
5486094.798870000
 31
-0.083000000000000
  8
AUFNAHME_270513
  0
LINE
 10
3463577.227980000
 20
5486051.618320000
 30
-0.061000000000000
 11
3463576.991410000
 21
5486052.071580000
 31
-0.069000000000000
  8
AUFNAHME_270513
  0
LINE
 10
3463592.567910000
 20
5486032.324290000
 30
-0.330000000000000
 11
3463592.987290000
 21
5486032.007480000
 31
-0.313000000000000
  8
AUFNAHME_270513
  0
LINE
 10
3463592.567910000
 20
5486032.324290000
 30
-0.330000000000000
 11
3463592.306280000
 21
5486032.807450000
 31
-0.334000000000000
  8
AUFNAHME_270513
  0
LINE
 10
3463558.639100000
 20
5486074.939250000
 30
-0.078000000000000
 11
3463559.067480000
 21
5486074.551670000
 31
-0.101000000000000
  8
AUFNAHME_270513
  0
LINE
 10
3463560.451720000
 20
5486099.862230000
 30
-0.045000000000000
 11
3463560.923030000
 21
5486099.520290000
 31
-0.050000000000000
  8
AUFNAHME_270513
  0
LINE
 10
3463577.227980000
 20
5486051.618320000
 30
-0.061000000000000
 11
3463577.628270000
 21
5486051.177720000
 31
-0.068000000000000
  8
AUFNAHME_270513
  0
LINE
 10
3463564.814410000
 20
5486066.352880000
 30
-0.074000000000000
 11
3463565.289310000
 21
5486066.729330000
 31
-0.071000000000000
  8
AUFNAHME_270513
  0
LINE
 10
3463566.387450000
 20
5486064.375190000
 30
-0.082000000000000
 11
3463566.860640000
 21
5486064.755390000
 31
-0.093000000000000
  8
AUFNAHME_270513
  0
LINE
 10
3463588.814440000
 20
5486072.372190000
 30
0.036000000000000
 11
3463589.399960000
 21
5486072.158150000
 31
0.022000000000000
  8
AUFNAHME_270513
  0
LINE
 10
3463625.076040000
 20
5486058.207830000
 30
-0.319000000000000
 11
3463625.007980000
 21
5486057.498200000
 31
-0.302000000000000
  8
AUFNAHME_270513
  0
LINE
 10
3463592.567910000
 20
5486032.324290000
 30
-0.330000000000000
 11
3463593.279240000
 21
5486032.252480000
 31
-0.305000000000000
  8
AUFNAHME_270513
  0
LINE
 10
3463577.628270000
 20
5486051.177720000
 30
-0.068000000000000
 11
3463578.343740000
 21
5486051.136040000
 31
-0.075000000000000
  8
AUFNAHME_270513
  0
LINE
 10
3463588.089680000
 20
5486072.444830000
 30
0.027000000000000
 11
3463588.814440000
 21
5486072.372190000
 31
0.036000000000000
  8
AUFNAHME_270513
  0
LINE
 10
3463557.845950000
 20
5486083.891520000
 30
-0.208000000000000
 11
3463558.575510000
 21
5486083.861050000
 31
-0.245000000000000
  8
AUFNAHME_270513
  0
LINE
 10
3463577.235980000
 20
5486052.350450000
 30
-0.063000000000000
 11
3463577.227980000
 21
5486051.618320000
 31
-0.061000000000000
  8
AUFNAHME_270513
  0
LINE
 10
3463560.451720000
 20
5486099.862230000
 30
-0.045000000000000
 11
3463561.181010000
 21
5486099.791930000
 31
-0.031000000000000
  8
AUFNAHME_270513
  0
LINE
 10
3463565.655650000
 20
5486064.442220000
 30
-0.080000000000000
 11
3463566.387450000
 21
5486064.375190000
 31
-0.082000000000000
  8
AUFNAHME_270513
  0
LINE
 10
3463558.639100000
 20
5486074.939250000
 30
-0.078000000000000
 11
3463559.353250000
 21
5486074.761070000
 31
-0.088000000000000
  8
AUFNAHME_270513
  0
LINE
 10
3463568.627540000
 20
5486096.845970000
 30
-0.015000000000000
 11
3463569.361530000
 21
5486096.779400000
 31
-0.023000000000000
  8
AUFNAHME_270513
  0
LINE
 10
3463570.564490000
 20
5486095.263780000
 30
-0.037000000000000
 11
3463570.469040000
 21
5486094.532370000
 31
-0.031000000000000
  8
AUFNAHME_270513
  0
LINE
 10
3463581.810000000
 20
5486053.899470000
 30
-0.080000000000000
 11
3463581.873460000
 21
5486054.637370000
 31
-0.104000000000000
  8
AUFNAHME_270513
  0
LINE
 10
3463624.339430000
 20
5486058.288920000
 30
-0.314000000000000
 11
3463625.076040000
 21
5486058.207830000
 31
-0.319000000000000
  8
AUFNAHME_270513
  0
LINE
 10
3463554.538910000
 20
5486094.465410000
 30
-0.058000000000000
 11
3463554.612980000
 21
5486095.202810000
 31
-0.069000000000000
  8
AUFNAHME_270513
  0
LINE
 10
3463564.814410000
 20
5486066.352880000
 30
-0.074000000000000
 11
3463564.723940000
 21
5486065.615210000
 31
-0.066000000000000
  8
AUFNAHME_270513
  0
LINE
 10
3463583.739570000
 20
5486052.302460000
 30
-0.075000000000000
 11
3463582.995990000
 21
5486052.347350000
 31
-0.063000000000000
  8
AUFNAHME_270513
  0
LINE
 10
3463592.669970000
 20
5486033.069890000
 30
-0.311000000000000
 11
3463592.567910000
 21
5486032.324290000
 31
-0.330000000000000
  8
AUFNAHME_270513
  0
LINE
 10
3463568.627540000
 20
5486096.845970000
 30
-0.015000000000000
 11
3463568.726550000
 21
5486097.621100000
 31
0.098000000000000
  8
AUFNAHME_270513
  0
LINE
 10
3463606.695350000
 20
5486043.991530000
 30
0.000000000000000
 11
3463607.189460000
 21
5486043.315270000
 31
-0.290000000000000
  8
AUFNAHME_270513
  0
LINE
 10
3463623.541640000
 20
5486057.436930000
 30
0.000000000000000
 11
3463624.017990000
 21
5486056.723560000
 31
-0.293000000000000
  8
AUFNAHME_270513
  0
LINE
 10
3463598.848330000
 20
5486037.821620000
 30
0.000000000000000
 11
3463599.355400000
 21
5486037.090520000
 31
-0.294000000000000
  8
AUFNAHME_270513
  0
LINE
 10
3463579.200120000
 20
5486053.344820000
 30
0.000000000000000
 11
3463578.788050000
 21
5486052.541960000
 31
0.000000000000000
  8
AUFNAHME_270513
  0
LINE
 10
3463557.845950000
 20
5486083.891520000
 30
-0.208000000000000
 11
3463558.747700000
 21
5486083.667060000
 31
-0.294000000000000
  8
AUFNAHME_270513
  0
LINE
 10
3463607.110950000
 20
5486042.332850000
 30
-0.270000000000000
 11
3463607.189460000
 21
5486043.315270000
 31
-0.290000000000000
  8
AUFNAHME_270513
  0
LINE
 10
3463615.645550000
 20
5486051.311050000
 30
0.000000000000000
 11
3463616.192810000
 21
5486050.489250000
 31
-0.283000000000000
  8
AUFNAHME_270513
  0
LINE
 10
3463606.556290000
 20
5486044.135410000
 30
-0.284000000000000
 11
3463605.574260000
 21
5486044.298570000
 31
-0.267000000000000
  8
AUFNAHME_270513
  0
LINE
 10
3463599.291690000
 20
5486036.094300000
 30
-0.262000000000000
 11
3463599.355400000
 21
5486037.090520000
 31
-0.294000000000000
  8
AUFNAHME_270513
  0
LINE
 10
3463614.559900000
 20
5486051.448230000
 30
-0.254000000000000
 11
3463615.546790000
 21
5486051.290210000
 31
-0.281000000000000
  8
AUFNAHME_270513
  0
LINE
 10
3463616.192810000
 20
5486050.489250000
 30
-0.283000000000000
 11
3463616.119550000
 21
5486049.484160000
 31
-0.266000000000000
  8
AUFNAHME_270513
  0
LINE
 10
3463598.717060000
 20
5486037.902700000
 30
-0.285000000000000
 11
3463597.718430000
 21
5486038.051380000
 31
-0.254000000000000
  8
AUFNAHME_270513
  0
LINE
 10
3463575.292140000
 20
5486061.247400000
 30
-0.184000000000000
 11
3463576.128200000
 21
5486061.820390000
 31
-0.237000000000000
  8
AUFNAHME_270513
  0
LINE
 10
3463592.669970000
 20
5486033.069890000
 30
-0.311000000000000
 11
3463593.279240000
 21
5486032.252480000
 31
-0.305000000000000
  8
AUFNAHME_270513
  0
LINE
 10
3463624.017990000
 20
5486056.723560000
 30
-0.293000000000000
 11
3463623.932510000
 21
5486055.704910000
 31
-0.266000000000000
  8
AUFNAHME_270513
  0
LINE
 10
3463596.527950000
 20
5486034.849250000
 30
-0.320000000000000
 11
3463595.891140000
 21
5486035.649880000
 31
-0.319000000000000
  8
AUFNAHME_270513
  0
LINE
 10
3463623.385090000
 20
5486057.527290000
 30
-0.289000000000000
 11
3463624.017990000
 21
5486056.723560000
 31
-0.293000000000000
  8
AUFNAHME_270513
  0
LINE
 10
3463597.538390000
 20
5486036.952420000
 30
-0.276000000000000
 11
3463598.187720000
 21
5486036.161760000
 31
-0.304000000000000
  8
AUFNAHME_270513
  0
LINE
 10
3463618.840710000
 20
5486053.915280000
 30
-0.327000000000000
 11
3463619.471720000
 21
5486053.107490000
 31
-0.330000000000000
  8
AUFNAHME_270513
  0
LINE
 10
3463603.920720000
 20
5486042.035260000
 30
-0.328000000000000
 11
3463604.532940000
 21
5486041.212530000
 31
-0.340000000000000
  8
AUFNAHME_270513
  0
LINE
 10
3463622.187840000
 20
5486056.576280000
 30
-0.279000000000000
 11
3463622.834810000
 21
5486055.777350000
 31
-0.297000000000000
  8
AUFNAHME_270513
  0
LINE
 10
3463615.546790000
 20
5486051.290210000
 30
-0.281000000000000
 11
3463616.192810000
 21
5486050.489250000
 31
-0.283000000000000
  8
AUFNAHME_270513
  0
LINE
 10
3463614.358960000
 20
5486050.359480000
 30
-0.295000000000000
 11
3463615.011080000
 21
5486049.562090000
 31
-0.297000000000000
  8
AUFNAHME_270513
  0
LINE
 10
3463612.077770000
 20
5486047.216180000
 30
-0.349000000000000
 11
3463611.432060000
 21
5486048.019950000
 31
-0.297000000000000
  8
AUFNAHME_270513
  0
LINE
 10
3463622.364940000
 20
5486057.686970000
 30
-0.262000000000000
 11
3463623.385090000
 21
5486057.527290000
 31
-0.289000000000000
  8
AUFNAHME_270513
  0
LINE
 10
3463598.717060000
 20
5486037.902700000
 30
-0.285000000000000
 11
3463599.355400000
 21
5486037.090520000
 31
-0.294000000000000
  8
AUFNAHME_270513
  0
LINE
 10
3463624.339430000
 20
5486058.288920000
 30
-0.314000000000000
 11
3463625.007980000
 21
5486057.498200000
 31
-0.302000000000000
  8
AUFNAHME_270513
  0
LINE
 10
3463612.172160000
 20
5486047.295090000
 30
-0.348000000000000
 11
3463611.432060000
 21
5486048.019950000
 31
-0.297000000000000
  8
AUFNAHME_270513
  0
LINE
 10
3463606.556290000
 20
5486044.135410000
 30
-0.284000000000000
 11
3463607.189460000
 21
5486043.315270000
 31
-0.290000000000000
  8
AUFNAHME_270513
  0
LINE
 10
3463612.172160000
 20
5486047.295090000
 30
-0.348000000000000
 11
3463611.648690000
 21
5486048.190970000
 31
-0.329000000000000
  8
AUFNAHME_270513
  0
LINE
 10
3463610.143240000
 20
5486045.665970000
 30
-0.320000000000000
 11
3463609.481440000
 21
5486046.465880000
 31
-0.310000000000000
  8
AUFNAHME_270513
  0
LINE
 10
3463588.001450000
 20
5486045.273540000
 30
-0.129000000000000
 11
3463588.791570000
 21
5486045.949270000
 31
-0.137000000000000
  8
AUFNAHME_270513
  0
LINE
 10
3463569.361530000
 20
5486096.779400000
 30
-0.023000000000000
 11
3463568.726550000
 21
5486097.621100000
 31
0.098000000000000
  8
AUFNAHME_270513
  0
LINE
 10
3463615.645550000
 20
5486051.311050000
 30
0.000000000000000
 11
3463614.559900000
 21
5486051.448230000
 31
-0.254000000000000
  8
AUFNAHME_270513
  0
LINE
 10
3463606.016800000
 20
5486042.392770000
 30
-0.300000000000000
 11
3463607.110950000
 21
5486042.332850000
 31
-0.270000000000000
  8
AUFNAHME_270513
  0
LINE
 10
3463623.932510000
 20
5486055.704910000
 30
-0.266000000000000
 11
3463622.834810000
 21
5486055.777350000
 31
-0.297000000000000
  8
AUFNAHME_270513
  0
LINE
 10
3463598.187720000
 20
5486036.161760000
 30
-0.304000000000000
 11
3463599.291690000
 21
5486036.094300000
 31
-0.262000000000000
  8
AUFNAHME_270513
  0
LINE
 10
3463614.358960000
 20
5486050.359480000
 30
-0.295000000000000
 11
3463614.559900000
 21
5486051.448230000
 31
-0.254000000000000
  8
AUFNAHME_270513
  0
LINE
 10
3463616.119550000
 20
5486049.484160000
 30
-0.266000000000000
 11
3463615.011080000
 21
5486049.562090000
 31
-0.297000000000000
  8
AUFNAHME_270513
  0
LINE
 10
3463597.718430000
 20
5486038.051380000
 30
-0.254000000000000
 11
3463597.538390000
 21
5486036.952420000
 31
-0.276000000000000
  8
AUFNAHME_270513
  0
LINE
 10
3463622.187840000
 20
5486056.576280000
 30
-0.279000000000000
 11
3463622.364940000
 21
5486057.686970000
 31
-0.262000000000000
  8
AUFNAHME_270513
  0
LINE
 10
3463583.739570000
 20
5486052.302460000
 30
-0.075000000000000
 11
3463582.640020000
 21
5486052.052710000
 31
-0.069000000000000
  8
AUFNAHME_270513
  0
LINE
 10
3463623.541640000
 20
5486057.436930000
 30
0.000000000000000
 11
3463624.339430000
 21
5486058.288920000
 31
-0.314000000000000
  8
AUFNAHME_270513
  0
LINE
 10
3463577.227980000
 20
5486051.618320000
 30
-0.061000000000000
 11
3463578.343740000
 21
5486051.136040000
 31
-0.075000000000000
  8
AUFNAHME_270513
  0
LINE
 10
3463623.385090000
 20
5486057.527290000
 30
-0.289000000000000
 11
3463624.339430000
 21
5486058.288920000
 31
-0.314000000000000
  8
AUFNAHME_270513
  0
LINE
 10
3463565.655650000
 20
5486064.442220000
 30
-0.080000000000000
 11
3463566.860640000
 21
5486064.755390000
 31
-0.093000000000000
  8
AUFNAHME_270513
  0
LINE
 10
3463564.723940000
 20
5486065.615210000
 30
-0.066000000000000
 11
3463565.289310000
 21
5486066.729330000
 31
-0.071000000000000
  8
AUFNAHME_270513
  0
LINE
 10
3463625.007980000
 20
5486057.498200000
 30
-0.302000000000000
 11
3463624.017990000
 21
5486056.723560000
 31
-0.293000000000000
  8
AUFNAHME_270513
  0
LINE
 10
3463588.089680000
 20
5486072.444830000
 30
0.027000000000000
 11
3463589.399960000
 21
5486072.158150000
 31
0.022000000000000
  8
AUFNAHME_270513
  0
LINE
 10
3463585.295500000
 20
5486078.114420000
 30
0.000000000000000
 11
3463584.042830000
 21
5486077.526270000
 31
0.036000000000000
  8
AUFNAHME_270513
  0
LINE
 10
3463613.396960000
 20
5486042.330290000
 30
-0.226000000000000
 11
3463614.533290000
 21
5486043.221350000
 31
-0.210000000000000
  8
AUFNAHME_270513
  0
LINE
 10
3463580.417300000
 20
5486054.861670000
 30
-0.081000000000000
 11
3463580.546800000
 21
5486056.316540000
 31
-0.229000000000000
  8
AUFNAHME_270513
  0
LINE
 10
3463623.541640000
 20
5486057.436930000
 30
0.000000000000000
 11
3463625.007980000
 21
5486057.498200000
 31
-0.302000000000000
  8
AUFNAHME_270513
  0
LINE
 10
3463580.417300000
 20
5486054.861670000
 30
-0.081000000000000
 11
3463581.873460000
 21
5486054.637370000
 31
-0.104000000000000
  8
AUFNAHME_270513
  0
LINE
 10
3463578.343740000
 20
5486051.136040000
 30
-0.075000000000000
 11
3463578.788050000
 21
5486052.541960000
 31
0.000000000000000
  8
AUFNAHME_270513
  0
LINE
 10
3463598.187720000
 20
5486036.161760000
 30
-0.304000000000000
 11
3463599.355400000
 21
5486037.090520000
 31
-0.294000000000000
  8
AUFNAHME_270513
  0
LINE
 10
3463606.016800000
 20
5486042.392770000
 30
-0.300000000000000
 11
3463607.189460000
 21
5486043.315270000
 31
-0.290000000000000
  8
AUFNAHME_270513
  0
LINE
 10
3463564.723940000
 20
5486065.615210000
 30
-0.066000000000000
 11
3463565.655650000
 21
5486064.442220000
 31
-0.080000000000000
  8
AUFNAHME_270513
  0
LINE
 10
3463616.192810000
 20
5486050.489250000
 30
-0.283000000000000
 11
3463615.011080000
 21
5486049.562090000
 31
-0.297000000000000
  8
AUFNAHME_270513
  0
LINE
 10
3463614.358960000
 20
5486050.359480000
 30
-0.295000000000000
 11
3463615.546790000
 21
5486051.290210000
 31
-0.281000000000000
  8
AUFNAHME_270513
  0
LINE
 10
3463598.717060000
 20
5486037.902700000
 30
-0.285000000000000
 11
3463597.538390000
 21
5486036.952420000
 31
-0.276000000000000
  8
AUFNAHME_270513
  0
LINE
 10
3463624.017990000
 20
5486056.723560000
 30
-0.293000000000000
 11
3463622.834810000
 21
5486055.777350000
 31
-0.297000000000000
  8
AUFNAHME_270513
  0
LINE
 10
3463622.187840000
 20
5486056.576280000
 30
-0.279000000000000
 11
3463623.385090000
 21
5486057.527290000
 31
-0.289000000000000
  8
AUFNAHME_270513
  0
LINE
 10
3463577.235980000
 20
5486052.350450000
 30
-0.063000000000000
 11
3463578.788050000
 21
5486052.541960000
 31
0.000000000000000
  8
AUFNAHME_270513
  0
LINE
 10
3463608.266940000
 20
5486051.258700000
 30
-0.223000000000000
 11
3463607.031030000
 21
5486050.280790000
 31
-0.233000000000000
  8
AUFNAHME_270513
  0
LINE
 10
3463568.188900000
 20
5486067.914840000
 30
0.000000000000000
 11
3463568.731110000
 21
5486069.459250000
 31
-0.137000000000000
  8
AUFNAHME_270513
  0
LINE
 10
3463577.235980000
 20
5486052.350450000
 30
-0.063000000000000
 11
3463578.343740000
 21
5486051.136040000
 31
-0.075000000000000
  8
AUFNAHME_270513
  0
LINE
 10
3463580.417300000
 20
5486054.861670000
 30
-0.081000000000000
 11
3463581.810000000
 21
5486053.899470000
 31
-0.080000000000000
  8
AUFNAHME_270513
  0
LINE
 10
3463552.840490000
 20
5486095.346520000
 30
0.000000000000000
 11
3463554.612980000
 21
5486095.202810000
 31
-0.069000000000000
  8
AUFNAHME_270513
  0
LINE
 10
3463615.546790000
 20
5486051.290210000
 30
-0.281000000000000
 11
3463615.011080000
 21
5486049.562090000
 31
-0.297000000000000
  8
AUFNAHME_270513
  0
LINE
 10
3463598.717060000
 20
5486037.902700000
 30
-0.285000000000000
 11
3463598.187720000
 21
5486036.161760000
 31
-0.304000000000000
  8
AUFNAHME_270513
  0
LINE
 10
3463606.556290000
 20
5486044.135410000
 30
-0.284000000000000
 11
3463606.016800000
 21
5486042.392770000
 31
-0.300000000000000
  8
AUFNAHME_270513
  0
LINE
 10
3463623.385090000
 20
5486057.527290000
 30
-0.289000000000000
 11
3463622.834810000
 21
5486055.777350000
 31
-0.297000000000000
  8
AUFNAHME_270513
  0
LINE
 10
3463604.532940000
 20
5486041.212530000
 30
-0.340000000000000
 11
3463606.016800000
 21
5486042.392770000
 31
-0.300000000000000
  8
AUFNAHME_270513
  0
LINE
 10
3463552.840490000
 20
5486095.346520000
 30
0.000000000000000
 11
3463554.538910000
 21
5486094.465410000
 31
-0.058000000000000
  8
AUFNAHME_270513
  0
LINE
 10
3463566.705530000
 20
5486092.195670000
 30
-0.082000000000000
 11
3463565.511100000
 21
5486093.692530000
 31
-0.082000000000000
  8
AUFNAHME_270513
  0
LINE
 10
3463569.361530000
 20
5486096.779400000
 30
-0.023000000000000
 11
3463570.564490000
 21
5486095.263780000
 31
-0.037000000000000
  8
AUFNAHME_270513
  0
LINE
 10
3463579.200120000
 20
5486053.344820000
 30
0.000000000000000
 11
3463580.417300000
 21
5486054.861670000
 31
-0.081000000000000
  8
AUFNAHME_270513
  0
LINE
 10
3463578.343740000
 20
5486051.136040000
 30
-0.075000000000000
 11
3463579.566210000
 21
5486049.616770000
 31
-0.060000000000000
  8
AUFNAHME_270513
  0
LINE
 10
3463582.995990000
 20
5486052.347350000
 30
-0.063000000000000
 11
3463581.810000000
 21
5486053.899470000
 31
-0.080000000000000
  8
AUFNAHME_270513
  0
LINE
 10
3463605.574260000
 20
5486044.298570000
 30
-0.267000000000000
 11
3463606.016800000
 21
5486042.392770000
 31
-0.300000000000000
  8
AUFNAHME_270513
  0
LINE
 10
3463550.926760000
 20
5486089.922320000
 30
-0.072000000000000
 11
3463551.562820000
 21
5486091.794150000
 31
-0.062000000000000
  8
AUFNAHME_270513
  0
LINE
 10
3463551.562820000
 20
5486091.794150000
 30
-0.062000000000000
 11
3463552.957540000
 21
5486093.210160000
 31
-0.062000000000000
  8
AUFNAHME_270513
  0
LINE
 10
3463550.703570000
 20
5486073.944120000
 30
-0.010000000000000
 11
3463550.356780000
 21
5486075.909460000
 31
-0.033000000000000
  8
AUFNAHME_270513
  0
LINE
 10
3463557.751290000
 20
5486076.728540000
 30
-0.105000000000000
 11
3463558.639100000
 21
5486074.939250000
 31
-0.078000000000000
  8
AUFNAHME_270513
  0
LINE
 10
3463578.343740000
 20
5486051.136040000
 30
-0.075000000000000
 11
3463579.174340000
 21
5486049.306220000
 31
0.000000000000000
  8
AUFNAHME_270513
  0
LINE
 10
3463552.957540000
 20
5486093.210160000
 30
-0.062000000000000
 11
3463554.538910000
 21
5486094.465410000
 31
-0.058000000000000
  8
AUFNAHME_270513
  0
LINE
 10
3463582.640020000
 20
5486052.052710000
 30
-0.069000000000000
 11
3463581.810000000
 21
5486053.899470000
 31
-0.080000000000000
  8
AUFNAHME_270513
  0
LINE
 10
3463585.707740000
 20
5486057.039310000
 30
-0.094000000000000
 11
3463586.973290000
 21
5486055.454640000
 31
-0.098000000000000
  8
AUFNAHME_270513
  0
LINE
 10
3463557.122820000
 20
5486078.664060000
 30
-0.128000000000000
 11
3463557.751290000
 21
5486076.728540000
 31
-0.105000000000000
  8
AUFNAHME_270513
  0
LINE
 10
3463622.364940000
 20
5486057.686970000
 30
-0.262000000000000
 11
3463624.339430000
 21
5486058.288920000
 31
-0.314000000000000
  8
AUFNAHME_270513
  0
LINE
 10
3463625.007980000
 20
5486057.498200000
 30
-0.302000000000000
 11
3463623.932510000
 21
5486055.704910000
 31
-0.266000000000000
  8
AUFNAHME_270513
  0
LINE
 10
3463597.538390000
 20
5486036.952420000
 30
-0.276000000000000
 11
3463595.891140000
 21
5486035.649880000
 31
-0.319000000000000
  8
AUFNAHME_270513
  0
LINE
 10
3463596.527950000
 20
5486034.849250000
 30
-0.320000000000000
 11
3463598.187720000
 21
5486036.161760000
 31
-0.304000000000000
  8
AUFNAHME_270513
  0
LINE
 10
3463603.920720000
 20
5486042.035260000
 30
-0.328000000000000
 11
3463606.016800000
 21
5486042.392770000
 31
-0.300000000000000
  8
AUFNAHME_270513
  0
LINE
 10
3463552.840490000
 20
5486095.346520000
 30
0.000000000000000
 11
3463552.957540000
 21
5486093.210160000
 31
-0.062000000000000
  8
AUFNAHME_270513
  0
LINE
 10
3463581.873460000
 20
5486054.637370000
 30
-0.104000000000000
 11
3463580.546800000
 21
5486056.316540000
 31
-0.229000000000000
  8
AUFNAHME_270513
  0
LINE
 10
3463568.188900000
 20
5486067.914840000
 30
0.000000000000000
 11
3463570.292010000
 21
5486067.493620000
 31
-0.138000000000000
  8
AUFNAHME_270513
  0
LINE
 10
3463579.200120000
 20
5486053.344820000
 30
0.000000000000000
 11
3463577.235980000
 21
5486052.350450000
 31
-0.063000000000000
  8
AUFNAHME_270513
  0
LINE
 10
3463561.163870000
 20
5486079.118110000
 30
0.000000000000000
 11
3463562.498760000
 21
5486077.257880000
 31
-0.154000000000000
  8
AUFNAHME_270513
  0
LINE
 10
3463564.723940000
 20
5486065.615210000
 30
-0.066000000000000
 11
3463566.860640000
 21
5486064.755390000
 31
-0.093000000000000
  8
AUFNAHME_270513
  0
LINE
 10
3463557.845950000
 20
5486083.891520000
 30
-0.208000000000000
 11
3463556.928980000
 21
5486081.759200000
 31
-0.175000000000000
  8
AUFNAHME_270513
  0
LINE
 10
3463597.538390000
 20
5486036.952420000
 30
-0.276000000000000
 11
3463596.527950000
 21
5486034.849250000
 31
-0.320000000000000
  8
AUFNAHME_270513
  0
LINE
 10
3463579.200120000
 20
5486053.344820000
 30
0.000000000000000
 11
3463578.343740000
 21
5486051.136040000
 31
-0.075000000000000
  8
AUFNAHME_270513
  0
LINE
 10
3463577.628270000
 20
5486051.177720000
 30
-0.068000000000000
 11
3463579.174340000
 21
5486049.306220000
 31
0.000000000000000
  8
AUFNAHME_270513
  0
LINE
 10
3463612.077770000
 20
5486047.216180000
 30
-0.349000000000000
 11
3463610.143240000
 21
5486045.665970000
 31
-0.320000000000000
  8
AUFNAHME_270513
  0
LINE
 10
3463611.432060000
 20
5486048.019950000
 30
-0.297000000000000
 11
3463609.481440000
 21
5486046.465880000
 31
-0.310000000000000
  8
AUFNAHME_270513
  0
LINE
 10
3463568.627540000
 20
5486096.845970000
 30
-0.015000000000000
 11
3463570.564490000
 21
5486095.263780000
 31
-0.037000000000000
  8
AUFNAHME_270513
  0
LINE
 10
3463583.739570000
 20
5486052.302460000
 30
-0.075000000000000
 11
3463581.810000000
 21
5486053.899470000
 31
-0.080000000000000
  8
AUFNAHME_270513
  0
LINE
 10
3463568.731110000
 20
5486069.459250000
 30
-0.137000000000000
 11
3463570.292010000
 21
5486067.493620000
 31
-0.138000000000000
  8
AUFNAHME_270513
  0
LINE
 10
3463565.289310000
 20
5486066.729330000
 30
-0.071000000000000
 11
3463566.860640000
 21
5486064.755390000
 31
-0.093000000000000
  8
AUFNAHME_270513
  0
LINE
 10
3463557.751290000
 20
5486076.728540000
 30
-0.105000000000000
 11
3463559.353250000
 21
5486074.761070000
 31
-0.088000000000000
  8
AUFNAHME_270513
  0
LINE
 10
3463568.731110000
 20
5486069.459250000
 30
-0.137000000000000
 11
3463568.023920000
 21
5486071.996580000
 31
-0.270000000000000
  8
AUFNAHME_270513
  0
LINE
 10
3463556.928980000
 20
5486081.759200000
 30
-0.175000000000000
 11
3463558.747700000
 21
5486083.667060000
 31
-0.294000000000000
  8
AUFNAHME_270513
  0
LINE
 10
3463579.200120000
 20
5486053.344820000
 30
0.000000000000000
 11
3463581.810000000
 21
5486053.899470000
 31
-0.080000000000000
  8
AUFNAHME_270513
  0
LINE
 10
3463611.432060000
 20
5486048.019950000
 30
-0.297000000000000
 11
3463610.143240000
 21
5486045.665970000
 31
-0.320000000000000
  8
AUFNAHME_270513
  0
LINE
 10
3463565.632430000
 20
5486073.330950000
 30
-0.193000000000000
 11
3463568.023920000
 21
5486071.996580000
 31
-0.270000000000000
  8
AUFNAHME_270513
  0
LINE
 10
3463605.574260000
 20
5486044.298570000
 30
-0.267000000000000
 11
3463603.920720000
 21
5486042.035260000
 31
-0.328000000000000
  8
AUFNAHME_270513
  0
LINE
 10
3463604.532940000
 20
5486041.212530000
 30
-0.340000000000000
 11
3463607.110950000
 21
5486042.332850000
 31
-0.270000000000000
  8
AUFNAHME_270513
  0
LINE
 10
3463622.364940000
 20
5486057.686970000
 30
-0.262000000000000
 11
3463622.389830000
 21
5486060.590650000
 31
-0.217000000000000
  8
AUFNAHME_270513
  0
LINE
 10
3463568.627540000
 20
5486096.845970000
 30
-0.015000000000000
 11
3463570.469040000
 21
5486094.532370000
 31
-0.031000000000000
  8
AUFNAHME_270513
  0
LINE
 10
3463583.739570000
 20
5486052.302460000
 30
-0.075000000000000
 11
3463581.873460000
 21
5486054.637370000
 31
-0.104000000000000
  8
AUFNAHME_270513
  0
LINE
 10
3463570.564490000
 20
5486095.263780000
 30
-0.037000000000000
 11
3463568.726550000
 21
5486097.621100000
 31
0.098000000000000
  8
AUFNAHME_270513
  0
LINE
 10
3463624.339430000
 20
5486058.288920000
 30
-0.314000000000000
 11
3463622.389830000
 21
5486060.590650000
 31
-0.217000000000000
  8
AUFNAHME_270513
  0
LINE
 10
3463597.718430000
 20
5486038.051380000
 30
-0.254000000000000
 11
3463595.891140000
 21
5486035.649880000
 31
-0.319000000000000
  8
AUFNAHME_270513
  0
LINE
 10
3463577.227980000
 20
5486051.618320000
 30
-0.061000000000000
 11
3463579.174340000
 21
5486049.306220000
 31
0.000000000000000
  8
AUFNAHME_270513
  0
LINE
 10
3463596.527950000
 20
5486034.849250000
 30
-0.320000000000000
 11
3463599.291690000
 21
5486036.094300000
 31
-0.262000000000000
  8
AUFNAHME_270513
  0
LINE
 10
3463552.840490000
 20
5486095.346520000
 30
0.000000000000000
 11
3463552.115320000
 21
5486098.322090000
 31
-0.026000000000000
  8
AUFNAHME_270513
  0
LINE
 10
3463561.279160000
 20
5486102.923610000
 30
0.000000000000000
 11
3463564.304150000
 21
5486102.273490000
 31
0.019000000000000
  8
AUFNAHME_270513
  0
LINE
 10
3463556.928980000
 20
5486081.759200000
 30
-0.175000000000000
 11
3463557.122820000
 21
5486078.664060000
 31
-0.128000000000000
  8
AUFNAHME_270513
  0
LINE
 10
3463568.188900000
 20
5486067.914840000
 30
0.000000000000000
 11
3463565.289310000
 21
5486066.729330000
 31
-0.071000000000000
  8
AUFNAHME_270513
  0
LINE
 10
3463561.279160000
 20
5486102.923610000
 30
0.000000000000000
 11
3463561.181010000
 21
5486099.791930000
 31
-0.031000000000000
  8
AUFNAHME_270513
  0
LINE
 10
3463561.279160000
 20
5486102.923610000
 30
0.000000000000000
 11
3463560.451720000
 21
5486099.862230000
 31
-0.045000000000000
  8
AUFNAHME_270513
  0
LINE
 10
3463579.200120000
 20
5486053.344820000
 30
0.000000000000000
 11
3463580.546800000
 21
5486056.316540000
 31
-0.229000000000000
  8
AUFNAHME_270513
  0
LINE
 10
3463561.279160000
 20
5486102.923610000
 30
0.000000000000000
 11
3463557.980690000
 21
5486103.009080000
 31
0.003000000000000
  8
AUFNAHME_270513
  0
LINE
 10
3463623.832050000
 20
5486063.678680000
 30
-0.217000000000000
 11
3463622.389830000
 21
5486060.590650000
 31
-0.217000000000000
  8
AUFNAHME_270513
  0
LINE
 10
3463568.188900000
 20
5486067.914840000
 30
0.000000000000000
 11
3463566.860640000
 21
5486064.755390000
 31
-0.093000000000000
  8
AUFNAHME_270513
  0
LINE
 10
3463614.358960000
 20
5486050.359480000
 30
-0.295000000000000
 11
3463611.648690000
 21
5486048.190970000
 31
-0.329000000000000
  8
AUFNAHME_270513
  0
LINE
 10
3463625.076040000
 20
5486058.207830000
 30
-0.319000000000000
 11
3463622.389830000
 21
5486060.590650000
 31
-0.217000000000000
  8
AUFNAHME_270513
  0
LINE
 10
3463615.011080000
 20
5486049.562090000
 30
-0.297000000000000
 11
3463611.648690000
 21
5486048.190970000
 31
-0.329000000000000
  8
AUFNAHME_270513
  0
LINE
 10
3463615.011080000
 20
5486049.562090000
 30
-0.297000000000000
 11
3463612.172160000
 21
5486047.295090000
 31
-0.348000000000000
  8
AUFNAHME_270513
  0
LINE
 10
3463579.200120000
 20
5486053.344820000
 30
0.000000000000000
 11
3463582.640020000
 21
5486052.052710000
 31
-0.069000000000000
  8
AUFNAHME_270513
  0
LINE
 10
3463606.695350000
 20
5486043.991530000
 30
0.000000000000000
 11
3463609.481440000
 21
5486046.465880000
 31
-0.310000000000000
  8
AUFNAHME_270513
  0
LINE
 10
3463606.556290000
 20
5486044.135410000
 30
-0.284000000000000
 11
3463609.481440000
 21
5486046.465880000
 31
-0.310000000000000
  8
AUFNAHME_270513
  0
LINE
 10
3463579.200120000
 20
5486053.344820000
 30
0.000000000000000
 11
3463579.566210000
 21
5486049.616770000
 31
-0.060000000000000
  8
AUFNAHME_270513
  0
LINE
 10
3463614.358960000
 20
5486050.359480000
 30
-0.295000000000000
 11
3463611.432060000
 21
5486048.019950000
 31
-0.297000000000000
  8
AUFNAHME_270513
  0
LINE
 10
3463615.011080000
 20
5486049.562090000
 30
-0.297000000000000
 11
3463612.077770000
 21
5486047.216180000
 31
-0.349000000000000
  8
AUFNAHME_270513
  0
LINE
 10
3463607.189460000
 20
5486043.315270000
 30
-0.290000000000000
 11
3463610.143240000
 21
5486045.665970000
 31
-0.320000000000000
  8
AUFNAHME_270513
  0
LINE
 10
3463552.840490000
 20
5486095.346520000
 30
0.000000000000000
 11
3463551.562820000
 21
5486091.794150000
 31
-0.062000000000000
  8
AUFNAHME_270513
  0
LINE
 10
3463606.695350000
 20
5486043.991530000
 30
0.000000000000000
 11
3463610.143240000
 21
5486045.665970000
 31
-0.320000000000000
  8
AUFNAHME_270513
  0
LINE
 10
3463550.926760000
 20
5486089.922320000
 30
-0.072000000000000
 11
3463552.957540000
 21
5486093.210160000
 31
-0.062000000000000
  8
AUFNAHME_270513
  0
LINE
 10
3463579.566210000
 20
5486049.616770000
 30
-0.060000000000000
 11
3463582.640020000
 21
5486052.052710000
 31
-0.069000000000000
  8
AUFNAHME_270513
  0
LINE
 10
3463561.181010000
 20
5486099.791930000
 30
-0.031000000000000
 11
3463564.304150000
 21
5486102.273490000
 31
0.019000000000000
  8
AUFNAHME_270513
  0
LINE
 10
3463554.612980000
 20
5486095.202810000
 30
-0.069000000000000
 11
3463552.115320000
 21
5486098.322090000
 31
-0.026000000000000
  8
AUFNAHME_270513
  0
LINE
 10
3463557.980690000
 20
5486103.009080000
 30
0.003000000000000
 11
3463560.451720000
 21
5486099.862230000
 31
-0.045000000000000
  8
AUFNAHME_270513
  0
LINE
 10
3463559.353250000
 20
5486074.761070000
 30
-0.088000000000000
 11
3463562.498760000
 21
5486077.257880000
 31
-0.154000000000000
  8
AUFNAHME_270513
  0
LINE
 10
3463622.187840000
 20
5486056.576280000
 30
-0.279000000000000
 11
3463622.389830000
 21
5486060.590650000
 31
-0.217000000000000
  8
AUFNAHME_270513
  0
LINE
 10
3463561.163870000
 20
5486079.118110000
 30
0.000000000000000
 11
3463557.122820000
 21
5486078.664060000
 31
-0.128000000000000
  8
AUFNAHME_270513
  0
LINE
 10
3463568.188900000
 20
5486067.914840000
 30
0.000000000000000
 11
3463568.023920000
 21
5486071.996580000
 31
-0.270000000000000
  8
AUFNAHME_270513
  0
LINE
 10
3463615.645550000
 20
5486051.311050000
 30
0.000000000000000
 11
3463618.840710000
 21
5486053.915280000
 31
-0.327000000000000
  8
AUFNAHME_270513
  0
LINE
 10
3463592.669970000
 20
5486033.069890000
 30
-0.311000000000000
 11
3463595.891140000
 21
5486035.649880000
 31
-0.319000000000000
  8
AUFNAHME_270513
  0
LINE
 10
3463593.279240000
 20
5486032.252480000
 30
-0.305000000000000
 11
3463596.527950000
 21
5486034.849250000
 31
-0.320000000000000
  8
AUFNAHME_270513
  0
LINE
 10
3463561.163870000
 20
5486079.118110000
 30
0.000000000000000
 11
3463557.751290000
 21
5486076.728540000
 31
-0.105000000000000
  8
AUFNAHME_270513
  0
LINE
 10
3463619.471720000
 20
5486053.107490000
 30
-0.330000000000000
 11
3463616.192810000
 21
5486050.489250000
 31
-0.283000000000000
  8
AUFNAHME_270513
  0
LINE
 10
3463615.645550000
 20
5486051.311050000
 30
0.000000000000000
 11
3463619.471720000
 21
5486053.107490000
 31
-0.330000000000000
  8
AUFNAHME_270513
  0
LINE
 10
3463592.669970000
 20
5486033.069890000
 30
-0.311000000000000
 11
3463596.527950000
 21
5486034.849250000
 31
-0.320000000000000
  8
AUFNAHME_270513
  0
LINE
 10
3463618.840710000
 20
5486053.915280000
 30
-0.327000000000000
 11
3463622.187840000
 21
5486056.576280000
 31
-0.279000000000000
  8
AUFNAHME_270513
  0
LINE
 10
3463622.834810000
 20
5486055.777350000
 30
-0.297000000000000
 11
3463619.471720000
 21
5486053.107490000
 31
-0.330000000000000
  8
AUFNAHME_270513
  0
LINE
 10
3463564.304150000
 20
5486102.273490000
 30
0.019000000000000
 11
3463560.923030000
 21
5486099.520290000
 31
-0.050000000000000
  8
AUFNAHME_270513
  0
LINE
 10
3463570.292010000
 20
5486067.493620000
 30
-0.138000000000000
 11
3463566.860640000
 21
5486064.755390000
 31
-0.093000000000000
  8
AUFNAHME_270513
  0
LINE
 10
3463622.187840000
 20
5486056.576280000
 30
-0.279000000000000
 11
3463619.471720000
 21
5486053.107490000
 31
-0.330000000000000
  8
AUFNAHME_270513
  0
LINE
 10
3463570.469040000
 20
5486094.532370000
 30
-0.031000000000000
 11
3463566.705530000
 21
5486092.195670000
 31
-0.082000000000000
  8
AUFNAHME_270513
  0
LINE
 10
3463568.627540000
 20
5486096.845970000
 30
-0.015000000000000
 11
3463565.511100000
 21
5486093.692530000
 31
-0.082000000000000
  8
AUFNAHME_270513
  0
LINE
 10
3463605.574260000
 20
5486044.298570000
 30
-0.267000000000000
 11
3463609.481440000
 21
5486046.465880000
 31
-0.310000000000000
  8
AUFNAHME_270513
  0
LINE
 10
3463607.278920000
 20
5486065.101820000
 30
-0.062000000000000
 11
3463610.089430000
 21
5486061.605280000
 31
-0.140000000000000
  8
AUFNAHME_270513
  0
LINE
 10
3463584.042830000
 20
5486077.526270000
 30
0.036000000000000
 11
3463580.545350000
 21
5486074.713730000
 31
-0.080000000000000
  8
AUFNAHME_270513
  0
LINE
 10
3463588.001450000
 20
5486045.273540000
 30
-0.129000000000000
 11
3463585.144950000
 21
5486041.809360000
 31
-0.120000000000000
  8
AUFNAHME_270513
  0
LINE
 10
3463612.762900000
 20
5486069.508450000
 30
-0.046000000000000
 11
3463615.559140000
 21
5486065.992900000
 31
-0.133000000000000
  8
AUFNAHME_270513
  0
LINE
 10
3463621.387070000
 20
5486070.694830000
 30
-0.098000000000000
 11
3463618.579250000
 21
5486074.202450000
 31
-0.043000000000000
  8
AUFNAHME_270513
  0
LINE
 10
3463607.110950000
 20
5486042.332850000
 30
-0.270000000000000
 11
3463610.143240000
 21
5486045.665970000
 31
-0.320000000000000
  8
AUFNAHME_270513
  0
LINE
 10
3463589.476300000
 20
5486036.320440000
 30
-0.223000000000000
 11
3463592.306280000
 21
5486032.807450000
 31
-0.334000000000000
  8
AUFNAHME_270513
  0
LINE
 10
3463618.840710000
 20
5486053.915280000
 30
-0.327000000000000
 11
3463616.136270000
 21
5486057.530680000
 31
-0.221000000000000
  8
AUFNAHME_270513
  0
LINE
 10
3463586.973290000
 20
5486055.454640000
 30
-0.098000000000000
 11
3463583.739570000
 21
5486052.302460000
 31
-0.075000000000000
  8
AUFNAHME_270513
  0
LINE
 10
3463585.707740000
 20
5486057.039310000
 30
-0.094000000000000
 11
3463581.873460000
 21
5486054.637370000
 31
-0.104000000000000
  8
AUFNAHME_270513
  0
LINE
 10
3463611.432060000
 20
5486048.019950000
 30
-0.297000000000000
 11
3463608.266940000
 21
5486051.258700000
 31
-0.223000000000000
  8
AUFNAHME_270513
  0
LINE
 10
3463609.481440000
 20
5486046.465880000
 30
-0.310000000000000
 11
3463607.031030000
 21
5486050.280790000
 31
-0.233000000000000
  8
AUFNAHME_270513
  0
LINE
 10
3463596.527950000
 20
5486034.849250000
 30
-0.320000000000000
 11
3463592.987290000
 21
5486032.007480000
 31
-0.313000000000000
  8
AUFNAHME_270513
  0
LINE
 10
3463592.669970000
 20
5486033.069890000
 30
-0.311000000000000
 11
3463589.476300000
 21
5486036.320440000
 31
-0.223000000000000
  8
AUFNAHME_270513
  0
LINE
 10
3463571.108650000
 20
5486075.371410000
 30
-0.183000000000000
 11
3463568.023920000
 21
5486071.996580000
 31
-0.270000000000000
  8
AUFNAHME_270513
  0
LINE
 10
3463561.845970000
 20
5486087.079490000
 30
-0.199000000000000
 11
3463558.575510000
 21
5486083.861050000
 31
-0.245000000000000
  8
AUFNAHME_270513
  0
LINE
 10
3463588.089680000
 20
5486072.444830000
 30
0.027000000000000
 11
3463585.228430000
 21
5486068.845250000
 31
-0.074000000000000
  8
AUFNAHME_270513
  0
LINE
 10
3463588.791570000
 20
5486045.949270000
 30
-0.137000000000000
 11
3463592.924790000
 21
5486047.970550000
 31
-0.170000000000000
  8
AUFNAHME_270513
  0
LINE
 10
3463561.845970000
 20
5486087.079490000
 30
-0.199000000000000
 11
3463558.747700000
 21
5486083.667060000
 31
-0.294000000000000
  8
AUFNAHME_270513
  0
LINE
 10
3463592.987290000
 20
5486032.007480000
 30
-0.313000000000000
 11
3463595.842260000
 21
5486028.382760000
 31
-0.248000000000000
  8
AUFNAHME_270513
  0
LINE
 10
3463616.119550000
 20
5486049.484160000
 30
-0.266000000000000
 11
3463612.077770000
 21
5486047.216180000
 31
-0.349000000000000
  8
AUFNAHME_270513
  0
LINE
 10
3463614.559900000
 20
5486051.448230000
 30
-0.254000000000000
 11
3463611.432060000
 21
5486048.019950000
 31
-0.297000000000000
  8
AUFNAHME_270513
  0
LINE
 10
3463616.119550000
 20
5486049.484160000
 30
-0.266000000000000
 11
3463620.549620000
 21
5486048.052680000
 31
-0.206000000000000
  8
AUFNAHME_270513
  0
LINE
 10
3463610.143240000
 20
5486045.665970000
 30
-0.320000000000000
 11
3463613.396960000
 21
5486042.330290000
 31
-0.226000000000000
  8
AUFNAHME_270513
  0
LINE
 10
3463612.077770000
 20
5486047.216180000
 30
-0.349000000000000
 11
3463614.533290000
 21
5486043.221350000
 31
-0.210000000000000
  8
AUFNAHME_270513
  0
LINE
 10
3463561.163870000
 20
5486079.118110000
 30
0.000000000000000
 11
3463559.353250000
 21
5486074.761070000
 31
-0.088000000000000
  8
AUFNAHME_270513
  0
LINE
 10
3463619.471720000
 20
5486053.107490000
 30
-0.330000000000000
 11
3463616.119550000
 21
5486049.484160000
 31
-0.266000000000000
  8
AUFNAHME_270513
  0
LINE
 10
3463614.559900000
 20
5486051.448230000
 30
-0.254000000000000
 11
3463618.840710000
 21
5486053.915280000
 31
-0.327000000000000
  8
AUFNAHME_270513
  0
LINE
 10
3463609.481440000
 20
5486046.465880000
 30
-0.310000000000000
 11
3463608.266940000
 21
5486051.258700000
 31
-0.223000000000000
  8
AUFNAHME_270513
  0
LINE
 10
3463579.566210000
 20
5486049.616770000
 30
-0.060000000000000
 11
3463583.739570000
 21
5486052.302460000
 31
-0.075000000000000
  8
AUFNAHME_270513
  0
LINE
 10
3463561.163870000
 20
5486079.118110000
 30
0.000000000000000
 11
3463556.928980000
 21
5486081.759200000
 31
-0.175000000000000
  8
AUFNAHME_270513
  0
LINE
 10
3463566.387450000
 20
5486064.375190000
 30
-0.082000000000000
 11
3463570.292010000
 21
5486067.493620000
 31
-0.138000000000000
  8
AUFNAHME_270513
  0
LINE
 10
3463562.498760000
 20
5486077.257880000
 30
-0.154000000000000
 11
3463565.632430000
 21
5486073.330950000
 31
-0.193000000000000
  8
AUFNAHME_270513
  0
LINE
 10
3463610.143240000
 20
5486045.665970000
 30
-0.320000000000000
 11
3463614.533290000
 21
5486043.221350000
 31
-0.210000000000000
  8
AUFNAHME_270513
  0
LINE
 10
3463570.469040000
 20
5486094.532370000
 30
-0.031000000000000
 11
3463565.511100000
 21
5486093.692530000
 31
-0.082000000000000
  8
AUFNAHME_270513
  0
LINE
 10
3463570.292010000
 20
5486067.493620000
 30
-0.138000000000000
 11
3463568.023920000
 21
5486071.996580000
 31
-0.270000000000000
  8
AUFNAHME_270513
  0
LINE
 10
3463603.920720000
 20
5486042.035260000
 30
-0.328000000000000
 11
3463599.342690000
 21
5486044.166810000
 31
-0.233000000000000
  8
AUFNAHME_270513
  0
LINE
 10
3463592.567910000
 20
5486032.324290000
 30
-0.330000000000000
 11
3463589.476300000
 21
5486036.320440000
 31
-0.223000000000000
  8
AUFNAHME_270513
  0
LINE
 10
3463568.726550000
 20
5486097.621100000
 30
0.098000000000000
 11
3463565.511100000
 21
5486093.692530000
 31
-0.082000000000000
  8
AUFNAHME_270513
  0
LINE
 10
3463579.419790000
 20
5486083.303210000
 30
0.036000000000000
 11
3463574.386950000
 21
5486082.430630000
 31
-0.076000000000000
  8
AUFNAHME_270513
  0
LINE
 10
3463557.845950000
 20
5486083.891520000
 30
-0.208000000000000
 11
3463561.845970000
 21
5486087.079490000
 31
-0.199000000000000
  8
AUFNAHME_270513
  0
LINE
 10
3463592.567910000
 20
5486032.324290000
 30
-0.330000000000000
 11
3463595.842260000
 21
5486028.382760000
 31
-0.248000000000000
  8
AUFNAHME_270513
  0
LINE
 10
3463585.707740000
 20
5486057.039310000
 30
-0.094000000000000
 11
3463583.739570000
 21
5486052.302460000
 31
-0.075000000000000
  8
AUFNAHME_270513
  0
LINE
 10
3463604.532940000
 20
5486041.212530000
 30
-0.340000000000000
 11
3463605.664960000
 21
5486036.189270000
 31
-0.218000000000000
  8
AUFNAHME_270513
  0
LINE
 10
3463561.163870000
 20
5486079.118110000
 30
0.000000000000000
 11
3463558.747700000
 21
5486083.667060000
 31
-0.294000000000000
  8
AUFNAHME_270513
  0
LINE
 10
3463623.932510000
 20
5486055.704910000
 30
-0.266000000000000
 11
3463619.471720000
 21
5486053.107490000
 31
-0.330000000000000
  8
AUFNAHME_270513
  0
LINE
 10
3463577.235980000
 20
5486052.350450000
 30
-0.063000000000000
 11
3463580.546800000
 21
5486056.316540000
 31
-0.229000000000000
  8
AUFNAHME_270513
  0
LINE
 10
3463619.471720000
 20
5486053.107490000
 30
-0.330000000000000
 11
3463620.549620000
 21
5486048.052680000
 31
-0.206000000000000
  8
AUFNAHME_270513
  0
LINE
 10
3463585.707740000
 20
5486057.039310000
 30
-0.094000000000000
 11
3463580.546800000
 21
5486056.316540000
 31
-0.229000000000000
  8
AUFNAHME_270513
  0
LINE
 10
3463585.228430000
 20
5486068.845250000
 30
-0.074000000000000
 11
3463589.399960000
 21
5486072.158150000
 31
0.022000000000000
  8
AUFNAHME_270513
  0
LINE
 10
3463625.007980000
 20
5486057.498200000
 30
-0.302000000000000
 11
3463630.130550000
 21
5486055.854720000
 31
-0.181000000000000
  8
AUFNAHME_270513
  0
LINE
 10
3463583.739570000
 20
5486052.302460000
 30
-0.075000000000000
 11
3463579.174340000
 21
5486049.306220000
 31
0.000000000000000
  8
AUFNAHME_270513
  0
LINE
 10
3463588.791570000
 20
5486045.949270000
 30
-0.137000000000000
 11
3463585.144950000
 21
5486041.809360000
 31
-0.120000000000000
  8
AUFNAHME_270513
  0
LINE
 10
3463576.991410000
 20
5486052.071580000
 30
-0.069000000000000
 11
3463580.546800000
 21
5486056.316540000
 31
-0.229000000000000
  8
AUFNAHME_270513
  0
LINE
 10
3463625.076040000
 20
5486058.207830000
 30
-0.319000000000000
 11
3463630.130550000
 21
5486055.854720000
 31
-0.181000000000000
  8
AUFNAHME_270513
  0
LINE
 10
3463625.076040000
 20
5486058.207830000
 30
-0.319000000000000
 11
3463623.832050000
 21
5486063.678680000
 31
-0.217000000000000
  8
AUFNAHME_270513
  0
LINE
 10
3463585.228430000
 20
5486068.845250000
 30
-0.074000000000000
 11
3463585.102080000
 21
5486063.077930000
 31
-0.122000000000000
  8
AUFNAHME_270513
  0
LINE
 10
3463550.926760000
 20
5486089.922320000
 30
-0.072000000000000
 11
3463554.538910000
 21
5486094.465410000
 31
-0.058000000000000
  8
AUFNAHME_270513
  0
LINE
 10
3463592.767880000
 20
5486067.395340000
 30
0.017000000000000
 11
3463589.399960000
 21
5486072.158150000
 31
0.022000000000000
  8
AUFNAHME_270513
  0
LINE
 10
3463585.295500000
 20
5486078.114420000
 30
0.000000000000000
 11
3463580.545350000
 21
5486074.713730000
 31
-0.080000000000000
  8
AUFNAHME_270513
  0
LINE
 10
3463565.632430000
 20
5486073.330950000
 30
-0.193000000000000
 11
3463571.108650000
 21
5486075.371410000
 31
-0.183000000000000
  8
AUFNAHME_270513
  0
LINE
 10
3463565.289310000
 20
5486066.729330000
 30
-0.071000000000000
 11
3463568.023920000
 21
5486071.996580000
 31
-0.270000000000000
  8
AUFNAHME_270513
  0
LINE
 10
3463604.532940000
 20
5486041.212530000
 30
-0.340000000000000
 11
3463599.342690000
 21
5486044.166810000
 31
-0.233000000000000
  8
AUFNAHME_270513
  0
LINE
 10
3463550.313970000
 20
5486083.945690000
 30
-0.076000000000000
 11
3463550.926760000
 21
5486089.922320000
 31
-0.072000000000000
  8
AUFNAHME_270513
  0
LINE
 10
3463585.707740000
 20
5486057.039310000
 30
-0.094000000000000
 11
3463585.102080000
 21
5486063.077930000
 31
-0.122000000000000
  8
AUFNAHME_270513
  0
LINE
 10
3463622.187840000
 20
5486056.576280000
 30
-0.279000000000000
 11
3463616.136270000
 21
5486057.530680000
 31
-0.221000000000000
  8
AUFNAHME_270513
  0
LINE
 10
3463605.574260000
 20
5486044.298570000
 30
-0.267000000000000
 11
3463607.031030000
 21
5486050.280790000
 31
-0.233000000000000
  8
AUFNAHME_270513
  0
LINE
 10
3463623.932510000
 20
5486055.704910000
 30
-0.266000000000000
 11
3463630.130550000
 21
5486055.854720000
 31
-0.181000000000000
  8
AUFNAHME_270513
  0
LINE
 10
3463605.574260000
 20
5486044.298570000
 30
-0.267000000000000
 11
3463599.342690000
 21
5486044.166810000
 31
-0.233000000000000
  8
AUFNAHME_270513
  0
LINE
 10
3463614.559900000
 20
5486051.448230000
 30
-0.254000000000000
 11
3463616.136270000
 21
5486057.530680000
 31
-0.221000000000000
  8
AUFNAHME_270513
  0
LINE
 10
3463607.110950000
 20
5486042.332850000
 30
-0.270000000000000
 11
3463613.396960000
 21
5486042.330290000
 31
-0.226000000000000
  8
AUFNAHME_270513
  0
LINE
 10
3463598.717060000
 20
5486037.902700000
 30
-0.285000000000000
 11
3463599.342690000
 21
5486044.166810000
 31
-0.233000000000000
  8
AUFNAHME_270513
  0
LINE
 10
3463614.559900000
 20
5486051.448230000
 30
-0.254000000000000
 11
3463608.266940000
 21
5486051.258700000
 31
-0.223000000000000
  8
AUFNAHME_270513
  0
LINE
 10
3463550.926760000
 20
5486089.922320000
 30
-0.072000000000000
 11
3463554.916380000
 21
5486094.798870000
 31
-0.083000000000000
  8
AUFNAHME_270513
  0
LINE
 10
3463607.110950000
 20
5486042.332850000
 30
-0.270000000000000
 11
3463605.664960000
 21
5486036.189270000
 31
-0.218000000000000
  8
AUFNAHME_270513
  0
LINE
 10
3463585.295500000
 20
5486078.114420000
 30
0.000000000000000
 11
3463588.089680000
 21
5486072.444830000
 31
0.027000000000000
  8
AUFNAHME_270513
  0
LINE
 10
3463597.718430000
 20
5486038.051380000
 30
-0.254000000000000
 11
3463599.342690000
 21
5486044.166810000
 31
-0.233000000000000
  8
AUFNAHME_270513
  0
LINE
 10
3463598.848330000
 20
5486037.821620000
 30
0.000000000000000
 11
3463599.342690000
 21
5486044.166810000
 31
-0.233000000000000
  8
AUFNAHME_270513
  0
LINE
 10
3463599.355400000
 20
5486037.090520000
 30
-0.294000000000000
 11
3463605.664960000
 21
5486036.189270000
 31
-0.218000000000000
  8
AUFNAHME_270513
  0
LINE
 10
3463599.291690000
 20
5486036.094300000
 30
-0.262000000000000
 11
3463605.664960000
 21
5486036.189270000
 31
-0.218000000000000
  8
AUFNAHME_270513
  0
LINE
 10
3463564.304150000
 20
5486102.273490000
 30
0.019000000000000
 11
3463568.726550000
 21
5486097.621100000
 31
0.098000000000000
  8
AUFNAHME_270513
  0
LINE
 10
3463559.353250000
 20
5486074.761070000
 30
-0.088000000000000
 11
3463565.632430000
 21
5486073.330950000
 31
-0.193000000000000
  8
AUFNAHME_270513
  0
LINE
 10
3463589.476300000
 20
5486036.320440000
 30
-0.223000000000000
 11
3463595.891140000
 21
5486035.649880000
 31
-0.319000000000000
  8
AUFNAHME_270513
  0
LINE
 10
3463616.119550000
 20
5486049.484160000
 30
-0.266000000000000
 11
3463614.533290000
 21
5486043.221350000
 31
-0.210000000000000
  8
AUFNAHME_270513
  0
LINE
 10
3463564.814410000
 20
5486066.352880000
 30
-0.074000000000000
 11
3463568.023920000
 21
5486071.996580000
 31
-0.270000000000000
  8
AUFNAHME_270513
  0
LINE
 10
3463596.527950000
 20
5486034.849250000
 30
-0.320000000000000
 11
3463595.842260000
 21
5486028.382760000
 31
-0.248000000000000
  8
AUFNAHME_270513
  0
LINE
 10
3463551.562820000
 20
5486091.794150000
 30
-0.062000000000000
 11
3463552.115320000
 21
5486098.322090000
 31
-0.026000000000000
  8
AUFNAHME_270513
  0
LINE
 10
3463599.355400000
 20
5486037.090520000
 30
-0.294000000000000
 11
3463604.532940000
 21
5486041.212530000
 31
-0.340000000000000
  8
AUFNAHME_270513
  0
LINE
 10
3463598.848330000
 20
5486037.821620000
 30
0.000000000000000
 11
3463604.532940000
 21
5486041.212530000
 31
-0.340000000000000
  8
AUFNAHME_270513
  0
LINE
 10
3463565.632430000
 20
5486073.330950000
 30
-0.193000000000000
 11
3463559.067480000
 21
5486074.551670000
 31
-0.101000000000000
  8
AUFNAHME_270513
  0
LINE
 10
3463585.295500000
 20
5486078.114420000
 30
0.000000000000000
 11
3463588.814440000
 21
5486072.372190000
 31
0.036000000000000
  8
AUFNAHME_270513
  0
LINE
 10
3463616.136270000
 20
5486057.530680000
 30
-0.221000000000000
 11
3463622.389830000
 21
5486060.590650000
 31
-0.217000000000000
  8
AUFNAHME_270513
  0
LINE
 10
3463550.313970000
 20
5486083.945690000
 30
-0.076000000000000
 11
3463556.928980000
 21
5486081.759200000
 31
-0.175000000000000
  8
AUFNAHME_270513
  0
LINE
 10
3463585.144950000
 20
5486041.809360000
 30
-0.120000000000000
 11
3463589.476300000
 21
5486036.320440000
 31
-0.223000000000000
  8
AUFNAHME_270513
  0
LINE
 10
3463579.307930000
 20
5486037.926910000
 30
-0.048000000000000
 11
3463585.144950000
 21
5486041.809360000
 31
-0.120000000000000
  8
AUFNAHME_270513
  0
LINE
 10
3463610.089430000
 20
5486061.605280000
 30
-0.140000000000000
 11
3463615.559140000
 21
5486065.992900000
 31
-0.133000000000000
  8
AUFNAHME_270513
  0
LINE
 10
3463565.632430000
 20
5486073.330950000
 30
-0.193000000000000
 11
3463564.814410000
 21
5486066.352880000
 31
-0.074000000000000
  8
AUFNAHME_270513
  0
LINE
 10
3463612.762900000
 20
5486069.508450000
 30
-0.046000000000000
 11
3463607.278920000
 21
5486065.101820000
 31
-0.062000000000000
  8
AUFNAHME_270513
  0
LINE
 10
3463561.845970000
 20
5486087.079490000
 30
-0.199000000000000
 11
3463566.705530000
 21
5486092.195670000
 31
-0.082000000000000
  8
AUFNAHME_270513
  0
LINE
 10
3463580.546800000
 20
5486056.316540000
 30
-0.229000000000000
 11
3463576.128200000
 21
5486061.820390000
 31
-0.237000000000000
  8
AUFNAHME_270513
  0
LINE
 10
3463557.536470000
 20
5486065.276410000
 30
-0.017000000000000
 11
3463564.723940000
 21
5486065.615210000
 31
-0.066000000000000
  8
AUFNAHME_270513
  0
LINE
 10
3463575.292140000
 20
5486061.247400000
 30
-0.184000000000000
 11
3463580.546800000
 21
5486056.316540000
 31
-0.229000000000000
  8
AUFNAHME_270513
  0
LINE
 10
3463585.295500000
 20
5486078.114420000
 30
0.000000000000000
 11
3463589.399960000
 21
5486072.158150000
 31
0.022000000000000
  8
AUFNAHME_270513
  0
LINE
 10
3463589.207310000
 20
5486025.485820000
 30
-0.150000000000000
 11
3463595.842260000
 21
5486028.382760000
 31
-0.248000000000000
  8
AUFNAHME_270513
  0
LINE
 10
3463616.136270000
 20
5486057.530680000
 30
-0.221000000000000
 11
3463610.089430000
 21
5486061.605280000
 31
-0.140000000000000
  8
AUFNAHME_270513
  0
LINE
 10
3463550.356780000
 20
5486075.909460000
 30
-0.033000000000000
 11
3463557.122820000
 21
5486078.664060000
 31
-0.128000000000000
  8
AUFNAHME_270513
  0
LINE
 10
3463561.163870000
 20
5486079.118110000
 30
0.000000000000000
 11
3463565.632430000
 21
5486073.330950000
 31
-0.193000000000000
  8
AUFNAHME_270513
  0
LINE
 10
3463557.536470000
 20
5486065.276410000
 30
-0.017000000000000
 11
3463564.814410000
 21
5486066.352880000
 31
-0.074000000000000
  8
AUFNAHME_270513
  0
LINE
 10
3463579.419790000
 20
5486083.303210000
 30
0.036000000000000
 11
3463584.042830000
 21
5486077.526270000
 31
0.036000000000000
  8
AUFNAHME_270513
  0
LINE
 10
3463565.511100000
 20
5486093.692530000
 30
-0.082000000000000
 11
3463560.923030000
 21
5486099.520290000
 31
-0.050000000000000
  8
AUFNAHME_270513
  0
LINE
 10
3463623.832050000
 20
5486063.678680000
 30
-0.217000000000000
 11
3463621.387070000
 21
5486070.694830000
 31
-0.098000000000000
  8
AUFNAHME_270513
  0
LINE
 10
3463550.356780000
 20
5486075.909460000
 30
-0.033000000000000
 11
3463557.751290000
 21
5486076.728540000
 31
-0.105000000000000
  8
AUFNAHME_270513
  0
LINE
 10
3463592.924790000
 20
5486047.970550000
 30
-0.170000000000000
 11
3463599.342690000
 21
5486044.166810000
 31
-0.233000000000000
  8
AUFNAHME_270513
  0
LINE
 10
3463554.612980000
 20
5486095.202810000
 30
-0.069000000000000
 11
3463560.451720000
 21
5486099.862230000
 31
-0.045000000000000
  8
AUFNAHME_270513
  0
LINE
 10
3463618.579250000
 20
5486074.202450000
 30
-0.043000000000000
 11
3463612.762900000
 21
5486069.508450000
 31
-0.046000000000000
  8
AUFNAHME_270513
  0
LINE
 10
3463621.387070000
 20
5486070.694830000
 30
-0.098000000000000
 11
3463615.559140000
 21
5486065.992900000
 31
-0.133000000000000
  8
AUFNAHME_270513
  0
LINE
 10
3463560.451720000
 20
5486099.862230000
 30
-0.045000000000000
 11
3463554.916380000
 21
5486094.798870000
 31
-0.083000000000000
  8
AUFNAHME_270513
  0
LINE
 10
3463585.228430000
 20
5486068.845250000
 30
-0.074000000000000
 11
3463580.545350000
 21
5486074.713730000
 31
-0.080000000000000
  8
AUFNAHME_270513
  0
LINE
 10
3463552.115320000
 20
5486098.322090000
 30
-0.026000000000000
 11
3463557.980690000
 21
5486103.009080000
 31
0.003000000000000
  8
AUFNAHME_270513
  0
LINE
 10
3463550.313970000
 20
5486083.945690000
 30
-0.076000000000000
 11
3463557.845950000
 21
5486083.891520000
 31
-0.208000000000000
  8
AUFNAHME_270513
  0
LINE
 10
3463561.845970000
 20
5486087.079490000
 30
-0.199000000000000
 11
3463565.511100000
 21
5486093.692530000
 31
-0.082000000000000
  8
AUFNAHME_270513
  0
LINE
 10
3463550.703570000
 20
5486073.944120000
 30
-0.010000000000000
 11
3463557.751290000
 21
5486076.728540000
 31
-0.105000000000000
  8
AUFNAHME_270513
  0
LINE
 10
3463592.567910000
 20
5486032.324290000
 30
-0.330000000000000
 11
3463589.207310000
 21
5486025.485820000
 31
-0.150000000000000
  8
AUFNAHME_270513
  0
LINE
 10
3463560.923030000
 20
5486099.520290000
 30
-0.050000000000000
 11
3463554.916380000
 21
5486094.798870000
 31
-0.083000000000000
  8
AUFNAHME_270513
  0
LINE
 10
3463592.767880000
 20
5486067.395340000
 30
0.017000000000000
 11
3463585.228430000
 21
5486068.845250000
 31
-0.074000000000000
  8
AUFNAHME_270513
  0
LINE
 10
3463614.533290000
 20
5486043.221350000
 30
-0.210000000000000
 11
3463620.549620000
 21
5486048.052680000
 31
-0.206000000000000
  8
AUFNAHME_270513
  0
LINE
 10
3463574.386950000
 20
5486082.430630000
 30
-0.076000000000000
 11
3463571.108650000
 21
5486075.371410000
 31
-0.183000000000000
  8
AUFNAHME_270513
  0
LINE
 10
3463585.295500000
 20
5486078.114420000
 30
0.000000000000000
 11
3463579.419790000
 21
5486083.303210000
 31
0.036000000000000
  8
AUFNAHME_270513
  0
LINE
 10
3463585.102080000
 20
5486063.077930000
 30
-0.122000000000000
 11
3463586.973290000
 21
5486055.454640000
 31
-0.098000000000000
  8
AUFNAHME_270513
  0
LINE
 10
3463588.089680000
 20
5486072.444830000
 30
0.027000000000000
 11
3463580.545350000
 21
5486074.713730000
 31
-0.080000000000000
  8
AUFNAHME_270513
  0
LINE
 10
3463570.292010000
 20
5486067.493620000
 30
-0.138000000000000
 11
3463571.108650000
 21
5486075.371410000
 31
-0.183000000000000
  8
AUFNAHME_270513
  0
LINE
 10
3463561.163870000
 20
5486079.118110000
 30
0.000000000000000
 11
3463561.845970000
 21
5486087.079490000
 31
-0.199000000000000
  8
AUFNAHME_270513
  0
LINE
 10
3463550.703570000
 20
5486073.944120000
 30
-0.010000000000000
 11
3463558.639100000
 21
5486074.939250000
 31
-0.078000000000000
  8
AUFNAHME_270513
  0
LINE
 10
3463570.292010000
 20
5486067.493620000
 30
-0.138000000000000
 11
3463575.292140000
 21
5486061.247400000
 31
-0.184000000000000
  8
AUFNAHME_270513
  0
LINE
 10
3463568.726550000
 20
5486097.621100000
 30
0.098000000000000
 11
3463560.923030000
 21
5486099.520290000
 31
-0.050000000000000
  8
AUFNAHME_270513
  0
LINE
 10
3463550.356780000
 20
5486075.909460000
 30
-0.033000000000000
 11
3463550.313970000
 21
5486083.945690000
 31
-0.076000000000000
  8
AUFNAHME_270513
  0
LINE
 10
3463588.791570000
 20
5486045.949270000
 30
-0.137000000000000
 11
3463583.739570000
 21
5486052.302460000
 31
-0.075000000000000
  8
AUFNAHME_270513
  0
LINE
 10
3463570.292010000
 20
5486067.493620000
 30
-0.138000000000000
 11
3463576.128200000
 21
5486061.820390000
 31
-0.237000000000000
  8
AUFNAHME_270513
  0
LINE
 10
3463585.102080000
 20
5486063.077930000
 30
-0.122000000000000
 11
3463580.546800000
 21
5486056.316540000
 31
-0.229000000000000
  8
AUFNAHME_270513
  0
LINE
 10
3463557.536470000
 20
5486065.276410000
 30
-0.017000000000000
 11
3463565.655650000
 21
5486064.442220000
 31
-0.080000000000000
  8
AUFNAHME_270513
  0
LINE
 10
3463588.001450000
 20
5486045.273540000
 30
-0.129000000000000
 11
3463583.739570000
 21
5486052.302460000
 31
-0.075000000000000
  8
AUFNAHME_270513
  0
LINE
 10
3463607.278920000
 20
5486065.101820000
 30
-0.062000000000000
 11
3463615.559140000
 21
5486065.992900000
 31
-0.133000000000000
  8
AUFNAHME_270513
  0
LINE
 10
3463623.932510000
 20
5486055.704910000
 30
-0.266000000000000
 11
3463620.549620000
 21
5486048.052680000
 31
-0.206000000000000
  8
AUFNAHME_270513
  0
LINE
 10
3463550.703570000
 20
5486073.944120000
 30
-0.010000000000000
 11
3463559.067480000
 21
5486074.551670000
 31
-0.101000000000000
  8
AUFNAHME_270513
  0
LINE
 10
3463597.718430000
 20
5486038.051380000
 30
-0.254000000000000
 11
3463589.476300000
 21
5486036.320440000
 31
-0.223000000000000
  8
AUFNAHME_270513
  0
LINE
 10
3463599.291690000
 20
5486036.094300000
 30
-0.262000000000000
 11
3463595.842260000
 21
5486028.382760000
 31
-0.248000000000000
  8
AUFNAHME_270513
  0
LINE
 10
3463552.115320000
 20
5486098.322090000
 30
-0.026000000000000
 11
3463560.451720000
 21
5486099.862230000
 31
-0.045000000000000
  8
AUFNAHME_270513
  0
LINE
 10
3463616.136270000
 20
5486057.530680000
 30
-0.221000000000000
 11
3463615.559140000
 21
5486065.992900000
 31
-0.133000000000000
  8
AUFNAHME_270513
  0
LINE
 10
3463550.926760000
 20
5486089.922320000
 30
-0.072000000000000
 11
3463552.115320000
 21
5486098.322090000
 31
-0.026000000000000
  8
AUFNAHME_270513
  0
LINE
 10
3463623.832050000
 20
5486063.678680000
 30
-0.217000000000000
 11
3463615.559140000
 21
5486065.992900000
 31
-0.133000000000000
  8
AUFNAHME_270513
  0
LINE
 10
3463550.313970000
 20
5486083.945690000
 30
-0.076000000000000
 11
3463557.122820000
 21
5486078.664060000
 31
-0.128000000000000
  8
AUFNAHME_270513
  0
LINE
 10
3463579.419790000
 20
5486083.303210000
 30
0.036000000000000
 11
3463580.545350000
 21
5486074.713730000
 31
-0.080000000000000
  8
AUFNAHME_270513
  0
LINE
 10
3463621.387070000
 20
5486070.694830000
 30
-0.098000000000000
 11
3463612.762900000
 21
5486069.508450000
 31
-0.046000000000000
  8
AUFNAHME_270513
  0
LINE
 10
3463622.389830000
 20
5486060.590650000
 30
-0.217000000000000
 11
3463615.559140000
 21
5486065.992900000
 31
-0.133000000000000
  8
AUFNAHME_270513
  0
LINE
 10
3463592.767880000
 20
5486067.395340000
 30
0.017000000000000
 11
3463585.102080000
 21
5486063.077930000
 31
-0.122000000000000
  8
AUFNAHME_270513
  0
LINE
 10
3463585.102080000
 20
5486063.077930000
 30
-0.122000000000000
 11
3463576.128200000
 21
5486061.820390000
 31
-0.237000000000000
  8
AUFNAHME_270513
  0
LINE
 10
3463550.926760000
 20
5486089.922320000
 30
-0.072000000000000
 11
3463557.845950000
 21
5486083.891520000
 31
-0.208000000000000
  8
AUFNAHME_270513
  0
LINE
 10
3463575.292140000
 20
5486061.247400000
 30
-0.184000000000000
 11
3463576.991410000
 21
5486052.071580000
 31
-0.069000000000000
  8
AUFNAHME_270513
  0
LINE
 10
3463557.536470000
 20
5486065.276410000
 30
-0.017000000000000
 11
3463559.067480000
 21
5486074.551670000
 31
-0.101000000000000
  8
AUFNAHME_270513
  0
LINE
 10
3463566.387450000
 20
5486064.375190000
 30
-0.082000000000000
 11
3463575.292140000
 21
5486061.247400000
 31
-0.184000000000000
  8
AUFNAHME_270513
  0
LINE
 10
3463580.545350000
 20
5486074.713730000
 30
-0.080000000000000
 11
3463571.108650000
 21
5486075.371410000
 31
-0.183000000000000
  8
AUFNAHME_270513
  0
LINE
 10
3463567.538850000
 20
5486052.702600000
 30
-0.013000000000000
 11
3463576.991410000
 21
5486052.071580000
 31
-0.069000000000000
  8
AUFNAHME_270513
  0
LINE
 10
3463592.924790000
 20
5486047.970550000
 30
-0.170000000000000
 11
3463586.973290000
 21
5486055.454640000
 31
-0.098000000000000
  8
AUFNAHME_270513
  0
LINE
 10
3463585.144950000
 20
5486041.809360000
 30
-0.120000000000000
 11
3463579.174340000
 21
5486049.306220000
 31
0.000000000000000
  8
AUFNAHME_270513
  0
LINE
 10
3463588.791570000
 20
5486045.949270000
 30
-0.137000000000000
 11
3463589.476300000
 21
5486036.320440000
 31
-0.223000000000000
  8
AUFNAHME_270513
  0
LINE
 10
3463588.791570000
 20
5486045.949270000
 30
-0.137000000000000
 11
3463586.973290000
 21
5486055.454640000
 31
-0.098000000000000
  8
AUFNAHME_270513
  0
LINE
 10
3463588.001450000
 20
5486045.273540000
 30
-0.129000000000000
 11
3463579.174340000
 21
5486049.306220000
 31
0.000000000000000
  8
AUFNAHME_270513
  0
LINE
 10
3463567.538850000
 20
5486052.702600000
 30
-0.013000000000000
 11
3463577.227980000
 21
5486051.618320000
 31
-0.061000000000000
  8
AUFNAHME_270513
  0
LINE
 10
3463607.031030000
 20
5486050.280790000
 30
-0.233000000000000
 11
3463599.342690000
 21
5486044.166810000
 31
-0.233000000000000
  8
AUFNAHME_270513
  0
LINE
 10
3463580.545350000
 20
5486074.713730000
 30
-0.080000000000000
 11
3463574.386950000
 21
5486082.430630000
 31
-0.076000000000000
  8
AUFNAHME_270513
  0
LINE
 10
3463605.664960000
 20
5486036.189270000
 30
-0.218000000000000
 11
3463613.396960000
 21
5486042.330290000
 31
-0.226000000000000
  8
AUFNAHME_270513
  0
LINE
 10
3463564.814410000
 20
5486066.352880000
 30
-0.074000000000000
 11
3463559.067480000
 21
5486074.551670000
 31
-0.101000000000000
  8
AUFNAHME_270513
  0
LINE
 10
3463630.130550000
 20
5486055.854720000
 30
-0.181000000000000
 11
3463623.832050000
 21
5486063.678680000
 31
-0.217000000000000
  8
AUFNAHME_270513
  0
LINE
 10
3463616.136270000
 20
5486057.530680000
 30
-0.221000000000000
 11
3463608.266940000
 21
5486051.258700000
 31
-0.223000000000000
  8
AUFNAHME_270513
  0
LINE
 10
3463565.655650000
 20
5486064.442220000
 30
-0.080000000000000
 11
3463575.292140000
 21
5486061.247400000
 31
-0.184000000000000
  8
AUFNAHME_270513
  0
LINE
 10
3463579.307930000
 20
5486037.926910000
 30
-0.048000000000000
 11
3463589.476300000
 21
5486036.320440000
 31
-0.223000000000000
  8
AUFNAHME_270513
  0
LINE
 10
3463561.845970000
 20
5486087.079490000
 30
-0.199000000000000
 11
3463554.916380000
 21
5486094.798870000
 31
-0.083000000000000
  8
AUFNAHME_270513
  0
LINE
 10
3463608.266940000
 20
5486051.258700000
 30
-0.223000000000000
 11
3463610.089430000
 21
5486061.605280000
 31
-0.140000000000000
  8
AUFNAHME_270513
  0
LINE
 10
3463561.163870000
 20
5486079.118110000
 30
0.000000000000000
 11
3463571.108650000
 21
5486075.371410000
 31
-0.183000000000000
  8
AUFNAHME_270513
  0
LINE
 10
3463565.511100000
 20
5486093.692530000
 30
-0.082000000000000
 11
3463554.916380000
 21
5486094.798870000
 31
-0.083000000000000
  8
AUFNAHME_270513
  0
LINE
 10
3463588.791570000
 20
5486045.949270000
 30
-0.137000000000000
 11
3463599.342690000
 21
5486044.166810000
 31
-0.233000000000000
  8
AUFNAHME_270513
  0
LINE
 10
3463589.207310000
 20
5486025.485820000
 30
-0.150000000000000
 11
3463589.476300000
 21
5486036.320440000
 31
-0.223000000000000
  8
AUFNAHME_270513
  0
LINE
 10
3463557.536470000
 20
5486065.276410000
 30
-0.017000000000000
 11
3463550.703570000
 21
5486073.944120000
 31
-0.010000000000000
  8
AUFNAHME_270513
  0
LINE
 10
3463550.926760000
 20
5486089.922320000
 30
-0.072000000000000
 11
3463561.845970000
 21
5486087.079490000
 31
-0.199000000000000
  8
AUFNAHME_270513
  0
LINE
 10
3463605.664960000
 20
5486036.189270000
 30
-0.218000000000000
 11
3463614.533290000
 21
5486043.221350000
 31
-0.210000000000000
  8
AUFNAHME_270513
  0
LINE
 10
3463579.307930000
 20
5486037.926910000
 30
-0.048000000000000
 11
3463579.174340000
 21
5486049.306220000
 31
0.000000000000000
  8
AUFNAHME_270513
  0
LINE
 10
3463570.469040000
 20
5486094.532370000
 30
-0.031000000000000
 11
3463561.845970000
 21
5486087.079490000
 31
-0.199000000000000
  8
AUFNAHME_270513
  0
LINE
 10
3463585.228430000
 20
5486068.845250000
 30
-0.074000000000000
 11
3463576.128200000
 21
5486061.820390000
 31
-0.237000000000000
  8
AUFNAHME_270513
  0
LINE
 10
3463567.538850000
 20
5486052.702600000
 30
-0.013000000000000
 11
3463575.292140000
 21
5486061.247400000
 31
-0.184000000000000
  8
AUFNAHME_270513
  0
LINE
 10
3463607.031030000
 20
5486050.280790000
 30
-0.233000000000000
 11
3463610.089430000
 21
5486061.605280000
 31
-0.140000000000000
  8
AUFNAHME_270513
  0
LINE
 10
3463567.538850000
 20
5486052.702600000
 30
-0.013000000000000
 11
3463565.655650000
 21
5486064.442220000
 31
-0.080000000000000
  8
AUFNAHME_270513
  0
LINE
 10
3463597.718430000
 20
5486038.051380000
 30
-0.254000000000000
 11
3463588.791570000
 21
5486045.949270000
 31
-0.137000000000000
  8
AUFNAHME_270513
  0
LINE
 10
3463567.538850000
 20
5486052.702600000
 30
-0.013000000000000
 11
3463579.174340000
 21
5486049.306220000
 31
0.000000000000000
  8
AUFNAHME_270513
  0
LINE
 10
3463620.549620000
 20
5486048.052680000
 30
-0.206000000000000
 11
3463630.130550000
 21
5486055.854720000
 31
-0.181000000000000
  8
AUFNAHME_270513
  0
LINE
 10
3463570.292010000
 20
5486067.493620000
 30
-0.138000000000000
 11
3463580.545350000
 21
5486074.713730000
 31
-0.080000000000000
  8
AUFNAHME_270513
  0
LINE
 10
3463595.842260000
 20
5486028.382760000
 30
-0.248000000000000
 11
3463605.664960000
 21
5486036.189270000
 31
-0.218000000000000
  8
AUFNAHME_270513
  0
LINE
 10
3463570.469040000
 20
5486094.532370000
 30
-0.031000000000000
 11
3463574.386950000
 21
5486082.430630000
 31
-0.076000000000000
  8
AUFNAHME_270513
  0
LINE
 10
3463585.295500000
 20
5486078.114420000
 30
0.000000000000000
 11
3463592.767880000
 21
5486067.395340000
 31
0.017000000000000
  8
AUFNAHME_270513
  0
LINE
 10
3463592.767880000
 20
5486067.395340000
 30
0.017000000000000
 11
3463586.973290000
 21
5486055.454640000
 31
-0.098000000000000
  8
AUFNAHME_270513
  0
LINE
 10
3463574.386950000
 20
5486082.430630000
 30
-0.076000000000000
 11
3463561.845970000
 21
5486087.079490000
 31
-0.199000000000000
  8
AUFNAHME_270513
  0
LINE
 10
3463570.564490000
 20
5486095.263780000
 30
-0.037000000000000
 11
3463574.386950000
 21
5486082.430630000
 31
-0.076000000000000
  8
AUFNAHME_270513
  0
LINE
 10
3463580.545350000
 20
5486074.713730000
 30
-0.080000000000000
 11
3463576.128200000
 21
5486061.820390000
 31
-0.237000000000000
  8
AUFNAHME_270513
  0
LINE
 10
3463561.163870000
 20
5486079.118110000
 30
0.000000000000000
 11
3463574.386950000
 21
5486082.430630000
 31
-0.076000000000000
  8
AUFNAHME_270513
  0
LINE
 10
3463592.924790000
 20
5486047.970550000
 30
-0.170000000000000
 11
3463607.031030000
 21
5486050.280790000
 31
-0.233000000000000
  8
AUFNAHME_270513
  0
LINE
 10
3463618.579250000
 20
5486074.202450000
 30
-0.043000000000000
 11
3463607.278920000
 21
5486065.101820000
 31
-0.062000000000000
  8
AUFNAHME_270513
  0
LINE
 10
3463592.767880000
 20
5486067.395340000
 30
0.017000000000000
 11
3463607.278920000
 21
5486065.101820000
 31
-0.062000000000000
  8
AUFNAHME_270513
  0
LINE
 10
3463607.031030000
 20
5486050.280790000
 30
-0.233000000000000
 11
3463607.278920000
 21
5486065.101820000
 31
-0.062000000000000
  8
AUFNAHME_270513
  0
LINE
 10
3463570.564490000
 20
5486095.263780000
 30
-0.037000000000000
 11
3463579.419790000
 21
5486083.303210000
 31
0.036000000000000
  8
AUFNAHME_270513
  0
LINE
 10
3463589.207310000
 20
5486025.485820000
 30
-0.150000000000000
 11
3463579.307930000
 21
5486037.926910000
 31
-0.048000000000000
  8
AUFNAHME_270513
  0
LINE
 10
3463567.538850000
 20
5486052.702600000
 30
-0.013000000000000
 11
3463557.536470000
 21
5486065.276410000
 31
-0.017000000000000
  8
AUFNAHME_270513
  0
LINE
 10
3463630.130550000
 20
5486055.854720000
 30
-0.181000000000000
 11
3463621.387070000
 21
5486070.694830000
 31
-0.098000000000000
  8
AUFNAHME_270513
  0
LINE
 10
3463579.307930000
 20
5486037.926910000
 30
-0.048000000000000
 11
3463567.538850000
 21
5486052.702600000
 31
-0.013000000000000
  8
AUFNAHME_270513
  0
LINE
 10
3463592.767880000
 20
5486067.395340000
 30
0.017000000000000
 11
3463592.924790000
 21
5486047.970550000
 31
-0.170000000000000
  8
AUFNAHME_270513
  0
LINE
 10
3463592.767880000
 20
5486067.395340000
 30
0.017000000000000
 11
3463607.031030000
 21
5486050.280790000
 31
-0.233000000000000
  8
AUFNAHME_270513
  0
LINE
 10
3463585.295500000
 20
5486078.114420000
 30
0.000000000000000
 11
3463570.564490000
 21
5486095.263780000
 31
-0.037000000000000
  8
AUFNAHME_270513
  0
LINE
 10
3463595.842260000
 20
5486028.382760000
 30
-0.248000000000000
 11
3463614.533290000
 21
5486043.221350000
 31
-0.210000000000000
  8
AUFNAHME_270513
  0
LINE
 10
3463585.295500000
 20
5486078.114420000
 30
0.000000000000000
 11
3463607.278920000
 21
5486065.101820000
 31
-0.062000000000000
  8
AUFNAHME_270513
  0
LINE
 10
3463585.295500000
 20
5486078.114420000
 30
0.000000000000000
 11
3463568.726550000
 21
5486097.621100000
 31
0.098000000000000
  8
AUFNAHME_270513
  0
LINE
 10
3463585.295500000
 20
5486078.114420000
 30
0.000000000000000
 11
3463618.579250000
 21
5486074.202450000
 31
-0.043000000000000
  8
AUFNAHME_270513
  0
LINE
 10
3463589.207310000
 20
5486025.485820000
 30
-0.150000000000000
 11
3463567.538850000
 21
5486052.702600000
 31
-0.013000000000000
  8
AUFNAHME_270513
  0
LINE
 10
3463568.726550000
 20
5486097.621100000
 30
0.098000000000000
 11
3463618.579250000
 21
5486074.202450000
 31
-0.043000000000000
  8
AUFNAHME_270513
  0
LINE
 10
3463564.304150000
 20
5486102.273490000
 30
0.019000000000000
 11
3463618.579250000
 21
5486074.202450000
 31
-0.043000000000000
  8
AUFNAHME_270513
  0
ENDSEC
  0
EOF
