  0
SECTION
  2
BLOCKS
  0
BLOCK
  2
Hoehenkote
 70
     0
 10
0.0
 20
0.0
 30
0.0
  3
Hoehenkote
  0
LINE
  8
0
 10
0
 20
1
 30
0.0
 11
0
 21
-1
 31
0.0
  0
LINE
  8
0
 10
-1
 20
0
 30
0.0
 11
1
 21
0
 31
0.0
  0
CIRCLE
  8
0
 10
0.0
 20
0.0 
 30
0.0
 40
0.5
  0
SOLID
  8
0
 62
250
 10
0
 20
0
 11
0.5
 21
0
 12
0.353553391
 22
0.353553391
 13
0.461939766
 23
0.191341716
  0
SOLID
  8
0
 62
250
 10
0
 20
0
 11
0.353553391
 21
0.353553391
 12
0
 22
0.5
 13
0.191341716
 23
0.461939766
  0
SOLID
  8
0
 62
255
 10
0
 20
0
 11
0
 21
0.5
 12
-0.353553391
 22
0.353553391
 13
-0.191341716
 23
0.461939766
  0
SOLID
  8
0
 62
255
 10
0
 20
0
 11
-0.353553391
 21
0.353553391
 12
-0.5
 22
0
 13
-0.461939766
 23
0.191341716
  0
SOLID
  8
0
 62
250
 10
0
 20
0
 11
-0.5
 21
0
 12
-0.353553391
 22
-0.353553391
 13
-0.461939766
 23
-0.191341716
  0
SOLID
  8
0
 62
250
 10
0
 20
0
 11
-0.353553391
 21
-0.353553391
 12
0
 22
-0.5
 13
-0.191341716
 23
-0.461939766
  0
SOLID
  8
0
 62
255
 10
0
 20
0
 11
0
 21
-0.5
 12
0.353553391
 22
-0.353553391
 13
0.191341716
 23
-0.461939766
  0
SOLID
  8
0
 62
255
 10
0
 20
0
 11
0.353553391
 21
-0.353553391
 12
0.5
 22
0
 13
0.461939766
 23
-0.191341716
  0
ENDBLK
  0
ENDSEC
  0
SECTION
  2
ENTITIES
  0
3DFACE
 10
-1.154323429000000
 20
0.304281028000000
 30
198.169999999999987
 62
12
 11
-9.029680943000001
 21
0.304281028000000
 31
198.150000000000006
 62
12
 12
-9.298681090000001
 22
13.252459440000001
 32
198.360000000000014
 62
12
 13
-1.154323429000000
 23
0.304281028000000
 33
198.169999999999987
 62
12
  8
Verschneidung_Anpassung
  0
3DFACE
 10
-1.244156368000000
 20
13.252459440000001
 30
198.389999999999986
 62
12
 11
-1.154323429000000
 21
0.304281028000000
 31
198.169999999999987
 62
12
 12
-9.298681090000001
 22
13.252459440000001
 32
198.360000000000014
 62
12
 13
-1.244156368000000
 23
13.252459440000001
 33
198.389999999999986
 62
12
  8
Verschneidung_Anpassung
  0
3DFACE
 10
29.180602810000000
 20
13.662459439999999
 30
198.469999999999999
 62
12
 11
34.230602810000001
 21
13.272459440000000
 31
198.469999999999999
 62
12
 12
29.280602810000001
 22
9.252459437000001
 32
198.389999999999986
 62
12
 13
29.180602810000000
 23
13.662459439999999
 33
198.469999999999999
 62
12
  8
Verschneidung_Anpassung
  0
3DFACE
 10
14.820602810000000
 20
13.252459440000001
 30
198.439999999999998
 62
12
 11
14.740602810000000
 21
9.172459437000001
 31
198.389999999999986
 62
12
 12
10.600614810000000
 22
13.252459440000001
 32
198.439999999999998
 62
12
 13
14.820602810000000
 23
13.252459440000001
 33
198.439999999999998
 62
12
  8
Verschneidung_Anpassung
  0
3DFACE
 10
-17.725528546837946
 20
8.328699824745502
 30
198.263946682558981
 62
12
 11
-18.643287680000000
 21
0.304281028000000
 31
198.139999999999986
 62
12
 12
-21.257513260000000
 22
8.378059856000000
 32
198.229999999999990
 62
12
 13
-17.725528546837946
 23
8.328699824745502
 33
198.263946682558981
 62
12
  8
Verschneidung_Anpassung
  0
3DFACE
 10
-29.121363490000000
 20
13.624147290000000
 30
198.080000000000013
 62
12
 11
-21.836445000000001
 21
13.194910280000000
 31
198.080000000000013
 62
12
 12
-29.221909510000000
 22
9.859469257000001
 32
198.169999999999987
 62
12
 13
-29.121363490000000
 23
13.624147290000000
 33
198.080000000000013
 62
12
  8
Verschneidung_Anpassung
  0
3DFACE
 10
-10.791067354270128
 20
5.691048975525264
 30
198.233170125781470
 62
12
 11
-17.162394259999999
 21
13.252459440000001
 31
198.340000000000003
 62
12
 12
-9.298681090000001
 22
13.252459440000001
 32
198.360000000000014
 62
12
 13
-10.791067354270128
 23
5.691048975525264
 33
198.233170125781470
 62
12
  8
Verschneidung_Anpassung
  0
3DFACE
 10
-10.438133339868601
 20
4.921782542286084
 30
198.221550760404682
 62
12
 11
-10.791067354270128
 21
5.691048975525264
 31
198.233170125781470
 62
12
 12
-9.298681090000001
 22
13.252459440000001
 32
198.360000000000014
 62
12
 13
-10.438133339868601
 23
4.921782542286084
 33
198.221550760404682
 62
12
  8
Verschneidung_Anpassung
  0
3DFACE
 10
-10.925903201015133
 20
5.611934803544127
 30
198.231539900791347
 62
12
 11
-17.162394259999999
 21
13.252459440000001
 31
198.340000000000003
 62
12
 12
-10.791067354270128
 22
5.691048975525264
 32
198.233170125781470
 62
12
 13
-10.925903201015133
 23
5.611934803544127
 33
198.231539900791347
 62
12
  8
Verschneidung_Anpassung
  0
3DFACE
 10
-11.785504367717248
 20
5.288375393622572
 30
198.224088909556627
 62
12
 11
-17.162394259999999
 21
13.252459440000001
 31
198.340000000000003
 62
12
 12
-10.925903201015133
 22
5.611934803544127
 32
198.231539900791347
 62
12
 13
-11.785504367717248
 23
5.288375393622572
 33
198.224088909556627
 62
12
  8
Verschneidung_Anpassung
  0
3DFACE
 10
-9.883040570353401
 20
3.202639495066572
 30
198.194989789896340
 62
12
 11
-10.438133339868601
 21
4.921782542286084
 31
198.221550760404682
 62
12
 12
-9.298681090000001
 22
13.252459440000001
 32
198.360000000000014
 62
12
 13
-9.883040570353401
 23
3.202639495066572
 33
198.194989789896340
 62
12
  8
Verschneidung_Anpassung
  0
3DFACE
 10
-9.883040570353401
 20
3.202639495066572
 30
198.194989789896340
 62
12
 11
-9.298681090000001
 21
13.252459440000001
 31
198.360000000000014
 62
12
 12
-9.029680943000001
 22
0.304281028000000
 32
198.150000000000006
 62
12
 13
-9.883040570353401
 23
3.202639495066572
 33
198.194989789896340
 62
12
  8
Verschneidung_Anpassung
  0
3DFACE
 10
-10.438133339868601
 20
4.921782542286084
 30
198.221550760404682
 62
12
 11
-10.791067354270128
 21
5.691048975525264
 31
198.233170125781470
 62
12
 12
-9.970742564478117
 22
3.182286982167112
 32
198.194435572413681
 62
12
 13
-10.438133339868601
 23
4.921782542286084
 33
198.221550760404682
 62
12
  8
Verschneidung_Anpassung
  0
3DFACE
 10
-10.925903201015133
 20
5.611934803544127
 30
198.231539900791347
 62
12
 11
-10.791067354270128
 21
5.691048975525264
 31
198.233170125781470
 62
12
 12
-9.970742564478117
 22
3.182286982167112
 32
198.194435572413681
 62
12
 13
-10.925903201015133
 23
5.611934803544127
 33
198.231539900791347
 62
12
  8
Verschneidung_Anpassung
  0
3DFACE
 10
-9.883040570353401
 20
3.202639495066572
 30
198.194989789896340
 62
12
 11
-9.029680943000001
 21
0.304281028000000
 31
198.150000000000006
 62
12
 12
-9.911721886663274
 22
3.195983581868748
 32
198.194808543311439
 62
12
 13
-9.883040570353401
 23
3.202639495066572
 33
198.194989789896340
 62
12
  8
Verschneidung_Anpassung
  0
3DFACE
 10
-9.883040570353401
 20
3.202639495066572
 30
198.194989789896340
 62
12
 11
-10.438133339868601
 21
4.921782542286084
 31
198.221550760404682
 62
12
 12
-9.911721886663274
 22
3.195983581868748
 32
198.194808543311439
 62
12
 13
-9.883040570353401
 23
3.202639495066572
 33
198.194989789896340
 62
12
  8
Verschneidung_Anpassung
  0
3DFACE
 10
-9.970742564478117
 20
3.182286982167112
 30
198.194435572413681
 62
12
 11
-9.029680943000001
 21
0.304281028000000
 31
198.150000000000006
 62
12
 12
-9.911721886663274
 22
3.195983581868748
 32
198.194808543311439
 62
12
 13
-9.970742564478117
 23
3.182286982167112
 33
198.194435572413681
 62
12
  8
Verschneidung_Anpassung
  0
3DFACE
 10
-9.970742564478117
 20
3.182286982167112
 30
198.194435572413681
 62
12
 11
-10.438133339868601
 21
4.921782542286084
 31
198.221550760404682
 62
12
 12
-9.911721886663274
 22
3.195983581868748
 32
198.194808543311439
 62
12
 13
-9.970742564478117
 23
3.182286982167112
 33
198.194435572413681
 62
12
  8
Verschneidung_Anpassung
  0
3DFACE
 10
-11.785504367717248
 20
5.288375393622572
 30
198.224088909556627
 62
12
 11
-10.925903201015133
 21
5.611934803544127
 31
198.231539900791347
 62
12
 12
-10.051211225086279
 22
3.163613068656082
 32
198.193927064722828
 62
12
 13
-11.785504367717248
 23
5.288375393622572
 33
198.224088909556627
 62
12
  8
Verschneidung_Anpassung
  0
3DFACE
 10
-9.970742564478117
 20
3.182286982167112
 30
198.194435572413681
 62
12
 11
-9.029680943000001
 21
0.304281028000000
 31
198.150000000000006
 62
12
 12
-10.051211225086279
 22
3.163613068656082
 32
198.193927064722828
 62
12
 13
-9.970742564478117
 23
3.182286982167112
 33
198.194435572413681
 62
12
  8
Verschneidung_Anpassung
  0
3DFACE
 10
-9.970742564478117
 20
3.182286982167112
 30
198.194435572413681
 62
12
 11
-10.925903201015133
 21
5.611934803544127
 31
198.231539900791347
 62
12
 12
-10.051211225086279
 22
3.163613068656082
 32
198.193927064722828
 62
12
 13
-9.970742564478117
 23
3.182286982167112
 33
198.194435572413681
 62
12
  8
Verschneidung_Anpassung
  0
3DFACE
 10
-10.727101954931928
 20
3.006762874597246
 30
198.189655890930396
 62
12
 11
-11.785504367717248
 21
5.288375393622572
 31
198.224088909556627
 62
12
 12
-10.547050103366928
 22
3.048546504127233
 32
198.190793697258727
 62
12
 13
-10.727101954931928
 23
3.006762874597246
 33
198.189655890930396
 62
12
  8
Verschneidung_Anpassung
  0
3DFACE
 10
-10.727101954931928
 20
3.006762874597246
 30
198.189655890930396
 62
12
 11
-9.029680943000001
 21
0.304281028000000
 31
198.150000000000006
 62
12
 12
-10.547050103366928
 22
3.048546504127233
 32
198.190793697258727
 62
12
 13
-10.727101954931928
 23
3.006762874597246
 33
198.189655890930396
 62
12
  8
Verschneidung_Anpassung
  0
3DFACE
 10
-10.051211225086279
 20
3.163613068656082
 30
198.193927064722828
 62
12
 11
-9.029680943000001
 21
0.304281028000000
 31
198.150000000000006
 62
12
 12
-10.547050103366928
 22
3.048546504127233
 32
198.190793697258727
 62
12
 13
-10.051211225086279
 23
3.163613068656082
 33
198.193927064722828
 62
12
  8
Verschneidung_Anpassung
  0
3DFACE
 10
-10.051211225086279
 20
3.163613068656082
 30
198.193927064722828
 62
12
 11
-11.785504367717248
 21
5.288375393622572
 31
198.224088909556627
 62
12
 12
-10.547050103366928
 22
3.048546504127233
 32
198.190793697258727
 62
12
 13
-10.051211225086279
 23
3.163613068656082
 33
198.193927064722828
 62
12
  8
Verschneidung_Anpassung
  0
3DFACE
 10
-12.127135410221614
 20
5.235770864337466
 30
198.222364083895826
 62
12
 11
-17.725528546837946
 21
8.328699824745502
 31
198.263946682558981
 62
12
 12
-17.162394259999999
 22
13.252459440000001
 32
198.340000000000003
 62
12
 13
-12.127135410221614
 23
5.235770864337466
 33
198.222364083895826
 62
12
  8
Verschneidung_Anpassung
  0
3DFACE
 10
-12.127135410221614
 20
5.235770864337466
 30
198.222364083895826
 62
12
 11
-17.162394259999999
 21
13.252459440000001
 31
198.340000000000003
 62
12
 12
-11.785504367717248
 22
5.288375393622572
 32
198.224088909556627
 62
12
 13
-12.127135410221614
 23
5.235770864337466
 33
198.222364083895826
 62
12
  8
Verschneidung_Anpassung
  0
3DFACE
 10
-12.127135410221614
 20
5.235770864337466
 30
198.222364083895826
 62
12
 11
-11.785504367717248
 21
5.288375393622572
 31
198.224088909556627
 62
12
 12
-10.727101954931928
 22
3.006762874597246
 32
198.189655890930396
 62
12
 13
-12.127135410221614
 23
5.235770864337466
 33
198.222364083895826
 62
12
  8
Verschneidung_Anpassung
  0
3DFACE
 10
1.455178952694621
 20
5.378116731066945
 30
198.264618183338740
 62
12
 11
-1.154323429000000
 21
0.304281028000000
 31
198.169999999999987
 62
12
 12
-1.244156368000000
 22
13.252459440000001
 32
198.389999999999986
 62
12
 13
1.455178952694621
 23
5.378116731066945
 33
198.264618183338740
 62
12
  8
Verschneidung_Anpassung
  0
3DFACE
 10
1.455178952694621
 20
5.378116731066945
 30
198.264618183338740
 62
12
 11
-1.244156368000000
 21
13.252459440000001
 31
198.389999999999986
 62
12
 12
2.399283346424278
 22
7.038497285338639
 32
198.295868078283092
 62
12
 13
1.455178952694621
 23
5.378116731066945
 33
198.264618183338740
 62
12
  8
Verschneidung_Anpassung
  0
3DFACE
 10
10.600614810000000
 20
13.252459440000001
 30
198.439999999999998
 62
12
 11
-1.244156368000000
 21
13.252459440000001
 31
198.389999999999986
 62
12
 12
2.653279946018361
 22
7.048063804468619
 32
198.296838489671501
 62
12
 13
10.600614810000000
 23
13.252459440000001
 33
198.439999999999998
 62
12
  8
Verschneidung_Anpassung
  0
3DFACE
 10
4.210075852449190
 20
4.569773731445233
 30
198.259625961683639
 62
12
 11
7.122896292000000
 21
-0.067195026000000
 31
198.189999999999998
 62
12
 12
4.167631760814428
 22
4.378385231985698
 32
198.256234930833585
 62
12
 13
4.210075852449190
 23
4.569773731445233
 33
198.259625961683639
 62
12
  8
Verschneidung_Anpassung
  0
3DFACE
 10
3.561929551658773
 20
1.647158517860760
 30
198.207842921531807
 62
12
 11
7.122896292000000
 21
-0.067195026000000
 31
198.189999999999998
 62
12
 12
4.167631760814428
 22
4.378385231985698
 32
198.256234930833585
 62
12
 13
3.561929551658773
 23
1.647158517860760
 33
198.207842921531807
 62
12
  8
Verschneidung_Anpassung
  0
3DFACE
 10
3.561929551658773
 20
1.647158517860760
 30
198.207842921531807
 62
12
 11
7.122896292000000
 21
-0.067195026000000
 31
198.189999999999998
 62
12
 12
0.355931455039847
 22
0.236501804568974
 32
198.173649183989170
 62
12
 13
3.561929551658773
 23
1.647158517860760
 33
198.207842921531807
 62
12
  8
Verschneidung_Anpassung
  0
3DFACE
 10
0.555413274788349
 20
2.093916179302827
 30
198.205883441172006
 62
12
 11
3.561929551658773
 21
1.647158517860760
 31
198.207842921531807
 62
12
 12
0.411080426406524
 22
0.750004700709566
 32
198.182560703488264
 62
12
 13
0.555413274788349
 23
2.093916179302827
 33
198.205883441172006
 62
12
  8
Verschneidung_Anpassung
  0
3DFACE
 10
0.555413274788349
 20
2.093916179302827
 30
198.205883441172006
 62
12
 11
-1.154323429000000
 21
0.304281028000000
 31
198.169999999999987
 62
12
 12
0.411080426406524
 22
0.750004700709566
 32
198.182560703488264
 62
12
 13
0.555413274788349
 23
2.093916179302827
 33
198.205883441172006
 62
12
  8
Verschneidung_Anpassung
  0
3DFACE
 10
0.355931455039847
 20
0.236501804568974
 30
198.173649183989170
 62
12
 11
-1.154323429000000
 21
0.304281028000000
 31
198.169999999999987
 62
12
 12
0.411080426406524
 22
0.750004700709566
 32
198.182560703488264
 62
12
 13
0.355931455039847
 23
0.236501804568974
 33
198.173649183989170
 62
12
  8
Verschneidung_Anpassung
  0
3DFACE
 10
0.355931455039847
 20
0.236501804568974
 30
198.173649183989170
 62
12
 11
3.561929551658773
 21
1.647158517860760
 31
198.207842921531807
 62
12
 12
0.411080426406524
 22
0.750004700709566
 32
198.182560703488264
 62
12
 13
0.355931455039847
 23
0.236501804568974
 33
198.173649183989170
 62
12
  8
Verschneidung_Anpassung
  0
3DFACE
 10
1.455178952694621
 20
5.378116731066945
 30
198.264618183338740
 62
12
 11
2.399283346424278
 21
7.038497285338639
 31
198.295868078283092
 62
12
 12
1.520795419106381
 22
5.373730175220333
 32
198.264752202443617
 62
12
 13
1.455178952694621
 23
5.378116731066945
 33
198.264618183338740
 62
12
  8
Verschneidung_Anpassung
  0
3DFACE
 10
1.455178952694621
 20
5.378116731066945
 30
198.264618183338740
 62
12
 11
-1.154323429000000
 21
0.304281028000000
 31
198.169999999999987
 62
12
 12
1.520795419106381
 22
5.373730175220333
 32
198.264752202443617
 62
12
 13
1.455178952694621
 23
5.378116731066945
 33
198.264618183338740
 62
12
  8
Verschneidung_Anpassung
  0
3DFACE
 10
0.555413274788349
 20
2.093916179302827
 30
198.205883441172006
 62
12
 11
-1.154323429000000
 21
0.304281028000000
 31
198.169999999999987
 62
12
 12
1.520795419106381
 22
5.373730175220333
 32
198.264752202443617
 62
12
 13
0.555413274788349
 23
2.093916179302827
 33
198.205883441172006
 62
12
  8
Verschneidung_Anpassung
  0
3DFACE
 10
4.167631760814428
 20
4.378385231985698
 30
198.256234930833585
 62
12
 11
4.210075852449190
 21
4.569773731445233
 31
198.259625961683639
 62
12
 12
3.728641009253099
 22
5.226132498730090
 32
198.269261642008189
 62
12
 13
4.167631760814428
 23
4.378385231985698
 33
198.256234930833585
 62
12
  8
Verschneidung_Anpassung
  0
3DFACE
 10
3.800798955217967
 20
5.221308635497872
 30
198.269409021833070
 62
12
 11
4.210075852449190
 21
4.569773731445233
 31
198.259625961683639
 62
12
 12
3.728641009253099
 22
5.226132498730090
 32
198.269261642008189
 62
12
 13
3.800798955217967
 23
5.221308635497872
 33
198.269409021833070
 62
12
  8
Verschneidung_Anpassung
  0
3DFACE
 10
3.800798955217967
 20
5.221308635497872
 30
198.269409021833070
 62
12
 11
2.399283346424278
 21
7.038497285338639
 31
198.295868078283092
 62
12
 12
3.728641009253099
 22
5.226132498730090
 32
198.269261642008189
 62
12
 13
3.800798955217967
 23
5.221308635497872
 33
198.269409021833070
 62
12
  8
Verschneidung_Anpassung
  0
3DFACE
 10
4.167631760814428
 20
4.378385231985698
 30
198.256234930833585
 62
12
 11
3.561929551658773
 21
1.647158517860760
 31
198.207842921531807
 62
12
 12
2.776393012613990
 22
5.289791656949157
 32
198.267316712158703
 62
12
 13
4.167631760814428
 23
4.378385231985698
 33
198.256234930833585
 62
12
  8
Verschneidung_Anpassung
  0
3DFACE
 10
0.555413274788349
 20
2.093916179302827
 30
198.205883441172006
 62
12
 11
3.561929551658773
 21
1.647158517860760
 31
198.207842921531807
 62
12
 12
2.776393012613990
 22
5.289791656949157
 32
198.267316712158703
 62
12
 13
0.555413274788349
 23
2.093916179302827
 33
198.205883441172006
 62
12
  8
Verschneidung_Anpassung
  0
3DFACE
 10
3.728641009253099
 20
5.226132498730090
 30
198.269261642008189
 62
12
 11
2.399283346424278
 21
7.038497285338639
 31
198.295868078283092
 62
12
 12
3.598286335557240
 22
5.234846897528184
 32
198.268995397608847
 62
12
 13
3.728641009253099
 23
5.226132498730090
 33
198.269261642008189
 62
12
  8
Verschneidung_Anpassung
  0
3DFACE
 10
3.728641009253099
 20
5.226132498730090
 30
198.269261642008189
 62
12
 11
4.167631760814428
 21
4.378385231985698
 31
198.256234930833585
 62
12
 12
3.598286335557240
 22
5.234846897528184
 32
198.268995397608847
 62
12
 13
3.728641009253099
 23
5.226132498730090
 33
198.269261642008189
 62
12
  8
Verschneidung_Anpassung
  0
3DFACE
 10
2.776393012613990
 20
5.289791656949157
 30
198.267316712158703
 62
12
 11
2.399283346424278
 21
7.038497285338639
 31
198.295868078283092
 62
12
 12
3.598286335557240
 22
5.234846897528184
 32
198.268995397608847
 62
12
 13
2.776393012613990
 23
5.289791656949157
 33
198.267316712158703
 62
12
  8
Verschneidung_Anpassung
  0
3DFACE
 10
2.776393012613990
 20
5.289791656949157
 30
198.267316712158703
 62
12
 11
4.167631760814428
 21
4.378385231985698
 31
198.256234930833585
 62
12
 12
3.598286335557240
 22
5.234846897528184
 32
198.268995397608847
 62
12
 13
2.776393012613990
 23
5.289791656949157
 33
198.267316712158703
 62
12
  8
Verschneidung_Anpassung
  0
3DFACE
 10
1.520795419106381
 20
5.373730175220333
 30
198.264752202443617
 62
12
 11
2.399283346424278
 21
7.038497285338639
 31
198.295868078283092
 62
12
 12
1.772211984066152
 22
5.356922613593364
 32
198.265265711092184
 62
12
 13
1.520795419106381
 23
5.373730175220333
 33
198.264752202443617
 62
12
  8
Verschneidung_Anpassung
  0
3DFACE
 10
1.520795419106381
 20
5.373730175220333
 30
198.264752202443617
 62
12
 11
0.555413274788349
 21
2.093916179302827
 31
198.205883441172006
 62
12
 12
1.772211984066152
 22
5.356922613593364
 32
198.265265711092184
 62
12
 13
1.520795419106381
 23
5.373730175220333
 33
198.264752202443617
 62
12
  8
Verschneidung_Anpassung
  0
3DFACE
 10
2.776393012613990
 20
5.289791656949157
 30
198.267316712158703
 62
12
 11
2.399283346424278
 21
7.038497285338639
 31
198.295868078283092
 62
12
 12
1.772211984066152
 22
5.356922613593364
 32
198.265265711092184
 62
12
 13
2.776393012613990
 23
5.289791656949157
 33
198.267316712158703
 62
12
  8
Verschneidung_Anpassung
  0
3DFACE
 10
2.776393012613990
 20
5.289791656949157
 30
198.267316712158703
 62
12
 11
0.555413274788349
 21
2.093916179302827
 31
198.205883441172006
 62
12
 12
1.772211984066152
 22
5.356922613593364
 32
198.265265711092184
 62
12
 13
2.776393012613990
 23
5.289791656949157
 33
198.267316712158703
 62
12
  8
Verschneidung_Anpassung
  0
3DFACE
 10
12.287380110505007
 20
6.196901109757835
 30
198.325591566997275
 62
12
 11
10.600614810000000
 21
13.252459440000001
 31
198.439999999999998
 62
12
 12
14.740602810000000
 22
9.172459437000001
 32
198.389999999999986
 62
12
 13
12.287380110505007
 23
6.196901109757835
 33
198.325591566997275
 62
12
  8
Verschneidung_Anpassung
  0
3DFACE
 10
15.287976983957977
 20
6.832739134177002
 30
198.342069018150028
 62
12
 11
12.287380110505007
 21
6.196901109757835
 31
198.325591566997275
 62
12
 12
14.740602810000000
 22
9.172459437000001
 32
198.389999999999986
 62
12
 13
15.287976983957977
 23
6.832739134177002
 33
198.342069018150028
 62
12
  8
Verschneidung_Anpassung
  0
3DFACE
 10
10.668299661683273
 20
1.097168873432332
 30
198.218037366266401
 62
12
 11
7.122896292000000
 21
-0.067195026000000
 31
198.189999999999998
 62
12
 12
11.375346055230708
 22
-0.082434013774634
 32
198.194344769210318
 62
12
 13
10.668299661683273
 23
1.097168873432332
 33
198.218037366266401
 62
12
  8
Verschneidung_Anpassung
  0
3DFACE
 10
11.446609313621506
 20
1.632771608795339
 30
198.229999999999961
 62
12
 11
10.668299661683273
 21
1.097168873432332
 31
198.218037366266401
 62
12
 12
11.375346055230708
 22
-0.082434013774634
 32
198.194344769210318
 62
12
 13
11.446609313621506
 23
1.632771608795339
 33
198.229999999999961
 62
12
  8
Verschneidung_Anpassung
  0
3DFACE
 10
15.871426835143597
 20
4.338815366040189
 30
198.290979058926496
 62
12
 11
12.287380110505007
 21
6.196901109757835
 31
198.325591566997275
 62
12
 12
15.287976983957977
 22
6.832739134177002
 32
198.342069018150028
 62
12
 13
15.871426835143597
 23
4.338815366040189
 33
198.290979058926496
 62
12
  8
Verschneidung_Anpassung
  0
3DFACE
 10
11.375346055230708
 20
-0.082434013774634
 30
198.194344769210318
 62
12
 11
16.910412170000001
 21
-0.102269358000000
 31
198.199999999999989
 62
12
 12
13.696935791911081
 22
4.276293290753584
 32
198.287298882776298
 62
12
 13
11.375346055230708
 23
-0.082434013774634
 33
198.194344769210318
 62
12
  8
Verschneidung_Anpassung
  0
3DFACE
 10
15.871426835143597
 20
4.338815366040189
 30
198.290979058926496
 62
12
 11
16.910412170000001
 21
-0.102269358000000
 31
198.199999999999989
 62
12
 12
13.696935791911081
 22
4.276293290753584
 32
198.287298882776298
 62
12
 13
15.871426835143597
 23
4.338815366040189
 33
198.290979058926496
 62
12
  8
Verschneidung_Anpassung
  0
3DFACE
 10
15.871426835143597
 20
4.338815366040189
 30
198.290979058926496
 62
12
 11
12.287380110505007
 21
6.196901109757835
 31
198.325591566997275
 62
12
 12
13.696935791911081
 22
4.276293290753584
 32
198.287298882776298
 62
12
 13
15.871426835143597
 23
4.338815366040189
 33
198.290979058926496
 62
12
  8
Verschneidung_Anpassung
  0
3DFACE
 10
11.446609313621506
 20
1.632771608795339
 30
198.229999999999961
 62
12
 11
11.375346055230708
 21
-0.082434013774634
 31
198.194344769210318
 62
12
 12
12.001342864434912
 22
4.227540738289856
 32
198.284429208664932
 62
12
 13
11.446609313621506
 23
1.632771608795339
 33
198.229999999999961
 62
12
  8
Verschneidung_Anpassung
  0
3DFACE
 10
13.696935791911081
 20
4.276293290753584
 30
198.287298882776298
 62
12
 11
12.287380110505007
 21
6.196901109757835
 31
198.325591566997275
 62
12
 12
12.001342864434912
 22
4.227540738289856
 32
198.284429208664932
 62
12
 13
13.696935791911081
 23
4.276293290753584
 33
198.287298882776298
 62
12
  8
Verschneidung_Anpassung
  0
3DFACE
 10
13.696935791911081
 20
4.276293290753584
 30
198.287298882776298
 62
12
 11
11.375346055230708
 21
-0.082434013774634
 31
198.194344769210318
 62
12
 12
12.001342864434912
 22
4.227540738289856
 32
198.284429208664932
 62
12
 13
13.696935791911081
 23
4.276293290753584
 33
198.287298882776298
 62
12
  8
Verschneidung_Anpassung
  0
3DFACE
 10
10.631246860446216
 20
4.188147039346900
 30
198.282110415652170
 62
12
 11
12.287380110505007
 21
6.196901109757835
 31
198.325591566997275
 62
12
 12
11.659015925125901
 22
4.217697979572261
 32
198.283849843925054
 62
12
 13
10.631246860446216
 23
4.188147039346900
 33
198.282110415652170
 62
12
  8
Verschneidung_Anpassung
  0
3DFACE
 10
12.001342864434912
 20
4.227540738289856
 30
198.284429208664932
 62
12
 11
12.287380110505007
 21
6.196901109757835
 31
198.325591566997275
 62
12
 12
11.924190197075850
 22
4.225322405456434
 32
198.284298633095432
 62
12
 13
12.001342864434912
 23
4.227540738289856
 33
198.284429208664932
 62
12
  8
Verschneidung_Anpassung
  0
3DFACE
 10
12.001342864434912
 20
4.227540738289856
 30
198.284429208664932
 62
12
 11
11.446609313621506
 21
1.632771608795339
 31
198.229999999999961
 62
12
 12
11.924190197075850
 22
4.225322405456434
 32
198.284298633095432
 62
12
 13
12.001342864434912
 23
4.227540738289856
 33
198.284429208664932
 62
12
  8
Verschneidung_Anpassung
  0
3DFACE
 10
11.659015925125901
 20
4.217697979572261
 30
198.283849843925054
 62
12
 11
12.287380110505007
 21
6.196901109757835
 31
198.325591566997275
 62
12
 12
11.924190197075850
 22
4.225322405456434
 32
198.284298633095432
 62
12
 13
11.659015925125901
 23
4.217697979572261
 33
198.283849843925054
 62
12
  8
Verschneidung_Anpassung
  0
3DFACE
 10
11.659015925125901
 20
4.217697979572261
 30
198.283849843925054
 62
12
 11
11.446609313621506
 21
1.632771608795339
 31
198.229999999999961
 62
12
 12
11.924190197075850
 22
4.225322405456434
 32
198.284298633095432
 62
12
 13
11.659015925125901
 23
4.217697979572261
 33
198.283849843925054
 62
12
  8
Verschneidung_Anpassung
  0
3DFACE
 10
9.170956259659810
 20
2.416934071906998
 30
198.243771038903134
 62
12
 11
7.122896292000000
 21
-0.067195026000000
 31
198.189999999999998
 62
12
 12
10.668299661683273
 22
1.097168873432332
 32
198.218037366266401
 62
12
 13
9.170956259659810
 23
2.416934071906998
 33
198.243771038903134
 62
12
  8
Verschneidung_Anpassung
  0
3DFACE
 10
11.659015925125901
 20
4.217697979572261
 30
198.283849843925054
 62
12
 11
10.631246860446216
 21
4.188147039346900
 31
198.282110415652170
 62
12
 12
10.658624234933905
 22
1.904301717096858
 32
198.234768465542118
 62
12
 13
11.659015925125901
 23
4.217697979572261
 33
198.283849843925054
 62
12
  8
Verschneidung_Anpassung
  0
3DFACE
 10
9.170956259659810
 20
2.416934071906998
 30
198.243771038903134
 62
12
 11
10.668299661683273
 21
1.097168873432332
 31
198.218037366266401
 62
12
 12
10.658624234933905
 22
1.904301717096858
 32
198.234768465542118
 62
12
 13
9.170956259659810
 23
2.416934071906998
 33
198.243771038903134
 62
12
  8
Verschneidung_Anpassung
  0
3DFACE
 10
9.170956259659810
 20
2.416934071906998
 30
198.243771038903134
 62
12
 11
10.631246860446216
 21
4.188147039346900
 31
198.282110415652170
 62
12
 12
10.658624234933905
 22
1.904301717096858
 32
198.234768465542118
 62
12
 13
9.170956259659810
 23
2.416934071906998
 33
198.243771038903134
 62
12
  8
Verschneidung_Anpassung
  0
3DFACE
 10
11.446609313621506
 20
1.632771608795339
 30
198.229999999999961
 62
12
 11
10.668299661683273
 21
1.097168873432332
 31
198.218037366266401
 62
12
 12
10.898327227332883
 22
1.821702970944590
 32
198.233317910841890
 62
12
 13
11.446609313621506
 23
1.632771608795339
 33
198.229999999999961
 62
12
  8
Verschneidung_Anpassung
  0
3DFACE
 10
11.446609313621506
 20
1.632771608795339
 30
198.229999999999961
 62
12
 11
11.659015925125901
 21
4.217697979572261
 31
198.283849843925054
 62
12
 12
10.898327227332883
 22
1.821702970944590
 32
198.233317910841890
 62
12
 13
11.446609313621506
 23
1.632771608795339
 33
198.229999999999961
 62
12
  8
Verschneidung_Anpassung
  0
3DFACE
 10
10.658624234933905
 20
1.904301717096858
 30
198.234768465542118
 62
12
 11
10.668299661683273
 21
1.097168873432332
 31
198.218037366266401
 62
12
 12
10.898327227332883
 22
1.821702970944590
 32
198.233317910841890
 62
12
 13
10.658624234933905
 23
1.904301717096858
 33
198.234768465542118
 62
12
  8
Verschneidung_Anpassung
  0
3DFACE
 10
10.658624234933905
 20
1.904301717096858
 30
198.234768465542118
 62
12
 11
11.659015925125901
 21
4.217697979572261
 31
198.283849843925054
 62
12
 12
10.898327227332883
 22
1.821702970944590
 32
198.233317910841890
 62
12
 13
10.658624234933905
 23
1.904301717096858
 33
198.234768465542118
 62
12
  8
Verschneidung_Anpassung
  0
3DFACE
 10
12.287380110505007
 20
6.196901109757835
 30
198.325591566997275
 62
12
 11
10.600614810000000
 21
13.252459440000001
 31
198.439999999999998
 62
12
 12
10.623688130930210
 22
6.424846335902624
 32
198.321071067782697
 62
12
 13
12.287380110505007
 23
6.196901109757835
 33
198.325591566997275
 62
12
  8
Verschneidung_Anpassung
  0
3DFACE
 10
12.287380110505007
 20
6.196901109757835
 30
198.325591566997275
 62
12
 11
10.631246860446216
 21
4.188147039346900
 31
198.282110415652170
 62
12
 12
10.623688130930210
 22
6.424846335902624
 32
198.321071067782697
 62
12
 13
12.287380110505007
 23
6.196901109757835
 33
198.325591566997275
 62
12
  8
Verschneidung_Anpassung
  0
3DFACE
 10
8.880313475742325
 20
6.663709018965779
 30
198.316334058855404
 62
12
 11
10.600614810000000
 21
13.252459440000001
 31
198.439999999999998
 62
12
 12
9.716173018293075
 22
6.549186502303350
 32
198.318605213884098
 62
12
 13
8.880313475742325
 23
6.663709018965779
 33
198.316334058855404
 62
12
  8
Verschneidung_Anpassung
  0
3DFACE
 10
10.623688130930210
 20
6.424846335902624
 30
198.321071067782697
 62
12
 11
10.600614810000000
 21
13.252459440000001
 31
198.439999999999998
 62
12
 12
9.716173018293075
 22
6.549186502303350
 32
198.318605213884098
 62
12
 13
10.623688130930210
 23
6.424846335902624
 33
198.321071067782697
 62
12
  8
Verschneidung_Anpassung
  0
3DFACE
 10
8.137683979141450
 20
3.819439639547545
 30
198.262949239701896
 62
12
 11
4.210075852449190
 21
4.569773731445233
 31
198.259625961683639
 62
12
 12
8.880313475742325
 22
6.663709018965779
 32
198.316334058855404
 62
12
 13
8.137683979141450
 23
3.819439639547545
 33
198.262949239701896
 62
12
  8
Verschneidung_Anpassung
  0
3DFACE
 10
9.716173018293075
 20
6.549186502303350
 30
198.318605213884098
 62
12
 11
8.880313475742325
 21
6.663709018965779
 31
198.316334058855404
 62
12
 12
9.065581009145015
 22
3.956641914966059
 32
198.270079438177731
 62
12
 13
9.716173018293075
 23
6.549186502303350
 33
198.318605213884098
 62
12
  8
Verschneidung_Anpassung
  0
3DFACE
 10
8.137683979141450
 20
3.819439639547545
 30
198.262949239701896
 62
12
 11
8.880313475742325
 21
6.663709018965779
 31
198.316334058855404
 62
12
 12
9.065581009145015
 22
3.956641914966059
 32
198.270079438177731
 62
12
 13
8.137683979141450
 23
3.819439639547545
 33
198.262949239701896
 62
12
  8
Verschneidung_Anpassung
  0
3DFACE
 10
8.137683979141450
 20
3.819439639547545
 30
198.262949239701896
 62
12
 11
9.170956259659810
 21
2.416934071906998
 31
198.243771038903134
 62
12
 12
9.065581009145015
 22
3.956641914966059
 32
198.270079438177731
 62
12
 13
8.137683979141450
 23
3.819439639547545
 33
198.262949239701896
 62
12
  8
Verschneidung_Anpassung
  0
3DFACE
 10
10.631246860446216
 20
4.188147039346900
 30
198.282110415652170
 62
12
 11
9.170956259659810
 21
2.416934071906998
 31
198.243771038903134
 62
12
 12
9.766620588052479
 22
4.060300211387345
 32
198.275466405885766
 62
12
 13
10.631246860446216
 23
4.188147039346900
 33
198.282110415652170
 62
12
  8
Verschneidung_Anpassung
  0
3DFACE
 10
10.631246860446216
 20
4.188147039346900
 30
198.282110415652170
 62
12
 11
10.623688130930210
 21
6.424846335902624
 31
198.321071067782697
 62
12
 12
9.766620588052479
 22
4.060300211387345
 32
198.275466405885766
 62
12
 13
10.631246860446216
 23
4.188147039346900
 33
198.282110415652170
 62
12
  8
Verschneidung_Anpassung
  0
3DFACE
 10
9.716173018293075
 20
6.549186502303350
 30
198.318605213884098
 62
12
 11
10.623688130930210
 21
6.424846335902624
 31
198.321071067782697
 62
12
 12
9.766620588052479
 22
4.060300211387345
 32
198.275466405885766
 62
12
 13
9.716173018293075
 23
6.549186502303350
 33
198.318605213884098
 62
12
  8
Verschneidung_Anpassung
  0
3DFACE
 10
9.065581009145015
 20
3.956641914966059
 30
198.270079438177731
 62
12
 11
9.170956259659810
 21
2.416934071906998
 31
198.243771038903134
 62
12
 12
9.380247004016052
 22
4.003169588939723
 32
198.272497412289596
 62
12
 13
9.065581009145015
 23
3.956641914966059
 33
198.270079438177731
 62
12
  8
Verschneidung_Anpassung
  0
3DFACE
 10
9.065581009145015
 20
3.956641914966059
 30
198.270079438177731
 62
12
 11
9.716173018293075
 21
6.549186502303350
 31
198.318605213884098
 62
12
 12
9.380247004016052
 22
4.003169588939723
 32
198.272497412289596
 62
12
 13
9.065581009145015
 23
3.956641914966059
 33
198.270079438177731
 62
12
  8
Verschneidung_Anpassung
  0
3DFACE
 10
9.766620588052479
 20
4.060300211387345
 30
198.275466405885766
 62
12
 11
9.170956259659810
 21
2.416934071906998
 31
198.243771038903134
 62
12
 12
9.380247004016052
 22
4.003169588939723
 32
198.272497412289596
 62
12
 13
9.766620588052479
 23
4.060300211387345
 33
198.275466405885766
 62
12
  8
Verschneidung_Anpassung
  0
3DFACE
 10
9.766620588052479
 20
4.060300211387345
 30
198.275466405885766
 62
12
 11
9.716173018293075
 21
6.549186502303350
 31
198.318605213884098
 62
12
 12
9.380247004016052
 22
4.003169588939723
 32
198.272497412289596
 62
12
 13
9.766620588052479
 23
4.060300211387345
 33
198.275466405885766
 62
12
  8
Verschneidung_Anpassung
  0
3DFACE
 10
8.043801540251037
 20
3.459870099927413
 30
198.256200387084561
 62
12
 11
7.122896292000000
 21
-0.067195026000000
 31
198.189999999999998
 62
12
 12
4.210075852449190
 22
4.569773731445233
 32
198.259625961683639
 62
12
 13
8.043801540251037
 23
3.459870099927413
 33
198.256200387084561
 62
12
  8
Verschneidung_Anpassung
  0
3DFACE
 10
8.043801540251037
 20
3.459870099927413
 30
198.256200387084561
 62
12
 11
8.137683979141450
 21
3.819439639547545
 31
198.262949239701896
 62
12
 12
9.170956259659810
 22
2.416934071906998
 32
198.243771038903134
 62
12
 13
8.043801540251037
 23
3.459870099927413
 33
198.256200387084561
 62
12
  8
Verschneidung_Anpassung
  0
3DFACE
 10
8.043801540251037
 20
3.459870099927413
 30
198.256200387084561
 62
12
 11
9.170956259659810
 21
2.416934071906998
 31
198.243771038903134
 62
12
 12
7.122896292000000
 22
-0.067195026000000
 32
198.189999999999998
 62
12
 13
8.043801540251037
 23
3.459870099927413
 33
198.256200387084561
 62
12
  8
Verschneidung_Anpassung
  0
3DFACE
 10
6.191816362895985
 20
6.778469581648226
 30
198.307012667274307
 62
12
 11
8.880313475742325
 21
6.663709018965779
 31
198.316334058855404
 62
12
 12
4.210075852449190
 22
4.569773731445233
 32
198.259625961683639
 62
12
 13
6.191816362895985
 23
6.778469581648226
 33
198.307012667274307
 62
12
  8
Verschneidung_Anpassung
  0
3DFACE
 10
6.191816362895985
 20
6.778469581648226
 30
198.307012667274307
 62
12
 11
10.600614810000000
 21
13.252459440000001
 31
198.439999999999998
 62
12
 12
8.880313475742325
 22
6.663709018965779
 32
198.316334058855404
 62
12
 13
6.191816362895985
 23
6.778469581648226
 33
198.307012667274307
 62
12
  8
Verschneidung_Anpassung
  0
3DFACE
 10
-1.244156368000000
 20
13.252459440000001
 30
198.389999999999986
 62
12
 11
2.399283346424278
 21
7.038497285338639
 31
198.295868078283092
 62
12
 12
2.653279946018361
 22
7.048063804468619
 32
198.296838489671501
 62
12
 13
-1.244156368000000
 23
13.252459440000001
 33
198.389999999999986
 62
12
  8
Verschneidung_Anpassung
  0
3DFACE
 10
3.800798955217967
 20
5.221308635497872
 30
198.269409021833070
 62
12
 11
2.399283346424278
 21
7.038497285338639
 31
198.295868078283092
 62
12
 12
2.653279946018361
 22
7.048063804468619
 32
198.296838489671501
 62
12
 13
3.800798955217967
 23
5.221308635497872
 33
198.269409021833070
 62
12
  8
Verschneidung_Anpassung
  0
3DFACE
 10
6.191816362895985
 20
6.778469581648226
 30
198.307012667274307
 62
12
 11
4.210075852449190
 21
4.569773731445233
 31
198.259625961683639
 62
12
 12
5.854606041386647
 22
6.804160981663417
 32
198.306043103223999
 62
12
 13
6.191816362895985
 23
6.778469581648226
 33
198.307012667274307
 62
12
  8
Verschneidung_Anpassung
  0
3DFACE
 10
6.191816362895985
 20
6.778469581648226
 30
198.307012667274307
 62
12
 11
10.600614810000000
 21
13.252459440000001
 31
198.439999999999998
 62
12
 12
5.854606041386647
 22
6.804160981663417
 32
198.306043103223999
 62
12
 13
6.191816362895985
 23
6.778469581648226
 33
198.307012667274307
 62
12
  8
Verschneidung_Anpassung
  0
3DFACE
 10
2.653279946018361
 20
7.048063804468619
 30
198.296838489671501
 62
12
 11
10.600614810000000
 21
13.252459440000001
 31
198.439999999999998
 62
12
 12
5.184213547454117
 22
6.855236884831837
 32
198.304115557059902
 62
12
 13
2.653279946018361
 23
7.048063804468619
 33
198.296838489671501
 62
12
  8
Verschneidung_Anpassung
  0
3DFACE
 10
2.653279946018361
 20
7.048063804468619
 30
198.296838489671501
 62
12
 11
3.800798955217967
 21
5.221308635497872
 31
198.269409021833070
 62
12
 12
5.184213547454117
 22
6.855236884831837
 32
198.304115557059902
 62
12
 13
2.653279946018361
 23
7.048063804468619
 33
198.296838489671501
 62
12
  8
Verschneidung_Anpassung
  0
3DFACE
 10
5.854606041386647
 20
6.804160981663417
 30
198.306043103223999
 62
12
 11
10.600614810000000
 21
13.252459440000001
 31
198.439999999999998
 62
12
 12
5.184213547454117
 22
6.855236884831837
 32
198.304115557059902
 62
12
 13
5.854606041386647
 23
6.804160981663417
 33
198.306043103223999
 62
12
  8
Verschneidung_Anpassung
  0
3DFACE
 10
5.854606041386647
 20
6.804160981663417
 30
198.306043103223999
 62
12
 11
3.800798955217967
 21
5.221308635497872
 31
198.269409021833070
 62
12
 12
5.184213547454117
 22
6.855236884831837
 32
198.304115557059902
 62
12
 13
5.854606041386647
 23
6.804160981663417
 33
198.306043103223999
 62
12
  8
Verschneidung_Anpassung
  0
3DFACE
 10
7.667983483897313
 20
3.762230291906182
 30
198.259955783194101
 62
12
 11
8.043801540251037
 21
3.459870099927413
 31
198.256200387084561
 62
12
 12
4.210075852449190
 22
4.569773731445233
 32
198.259625961683639
 62
12
 13
7.667983483897313
 23
3.762230291906182
 33
198.259955783194101
 62
12
  8
Verschneidung_Anpassung
  0
3DFACE
 10
7.667983483897313
 20
3.762230291906182
 30
198.259955783194101
 62
12
 11
4.210075852449190
 21
4.569773731445233
 31
198.259625961683639
 62
12
 12
8.137683979141450
 22
3.819439639547545
 32
198.262949239701896
 62
12
 13
7.667983483897313
 23
3.762230291906182
 33
198.259955783194101
 62
12
  8
Verschneidung_Anpassung
  0
3DFACE
 10
7.667983483897313
 20
3.762230291906182
 30
198.259955783194101
 62
12
 11
8.137683979141450
 21
3.819439639547545
 31
198.262949239701896
 62
12
 12
8.043801540251037
 22
3.459870099927413
 32
198.256200387084561
 62
12
 13
7.667983483897313
 23
3.762230291906182
 33
198.259955783194101
 62
12
  8
Verschneidung_Anpassung
  0
3DFACE
 10
4.355233554660737
 20
5.193302665334903
 30
198.271254656897355
 62
12
 11
3.800798955217967
 21
5.221308635497872
 31
198.269409021833070
 62
12
 12
4.210075852449190
 22
4.569773731445233
 32
198.259625961683639
 62
12
 13
4.355233554660737
 23
5.193302665334903
 33
198.271254656897355
 62
12
  8
Verschneidung_Anpassung
  0
3DFACE
 10
4.355233554660737
 20
5.193302665334903
 30
198.271254656897355
 62
12
 11
4.210075852449190
 21
4.569773731445233
 31
198.259625961683639
 62
12
 12
5.854606041386647
 22
6.804160981663417
 32
198.306043103223999
 62
12
 13
4.355233554660737
 23
5.193302665334903
 33
198.271254656897355
 62
12
  8
Verschneidung_Anpassung
  0
3DFACE
 10
4.355233554660737
 20
5.193302665334903
 30
198.271254656897355
 62
12
 11
5.854606041386647
 21
6.804160981663417
 31
198.306043103223999
 62
12
 12
3.800798955217967
 22
5.221308635497872
 32
198.269409021833070
 62
12
 13
4.355233554660737
 23
5.193302665334903
 33
198.271254656897355
 62
12
  8
Verschneidung_Anpassung
  0
3DFACE
 10
28.292229192531817
 20
8.476788873874954
 30
198.374194148033155
 62
12
 11
28.239842139947765
 21
8.465403352564334
 31
198.374014431704012
 62
12
 12
29.280602810000001
 22
9.252459437000001
 32
198.389999999999986
 62
12
 13
28.292229192531817
 23
8.476788873874954
 33
198.374194148033155
 62
12
  8
Verschneidung_Anpassung
  0
3DFACE
 10
28.292229192531817
 20
8.476788873874954
 30
198.374194148033155
 62
12
 11
37.884714299999999
 21
0.302130992000000
 31
198.180000000000007
 62
12
 12
28.239842139947765
 22
8.465403352564334
 32
198.374014431704012
 62
12
 13
28.292229192531817
 23
8.476788873874954
 33
198.374194148033155
 62
12
  8
Verschneidung_Anpassung
  0
3DFACE
 10
31.370041649534613
 20
7.078944611987612
 30
198.339003199596817
 62
12
 11
29.280602810000001
 21
9.252459437000001
 31
198.389999999999986
 62
12
 12
34.230602810000001
 22
13.272459440000000
 32
198.469999999999999
 62
12
 13
31.370041649534613
 23
7.078944611987612
 33
198.339003199596817
 62
12
  8
Verschneidung_Anpassung
  0
3DFACE
 10
31.370041649534613
 20
7.078944611987612
 30
198.339003199596817
 62
12
 11
28.292229192531817
 21
8.476788873874954
 31
198.374194148033155
 62
12
 12
29.280602810000001
 22
9.252459437000001
 32
198.389999999999986
 62
12
 13
31.370041649534613
 23
7.078944611987612
 33
198.339003199596817
 62
12
  8
Verschneidung_Anpassung
  0
3DFACE
 10
31.370041649534613
 20
7.078944611987612
 30
198.339003199596817
 62
12
 11
37.884714299999999
 21
0.302130992000000
 31
198.180000000000007
 62
12
 12
28.292229192531817
 22
8.476788873874954
 32
198.374194148033155
 62
12
 13
31.370041649534613
 23
7.078944611987612
 33
198.339003199596817
 62
12
  8
Verschneidung_Anpassung
  0
3DFACE
 10
28.449105596843044
 20
2.165644601820135
 30
198.234274894729026
 62
12
 11
28.239842139947765
 21
8.465403352564334
 31
198.374014431704012
 62
12
 12
37.884714299999999
 22
0.302130992000000
 32
198.180000000000007
 62
12
 13
28.449105596843044
 23
2.165644601820135
 33
198.234274894729026
 62
12
  8
Verschneidung_Anpassung
  0
3DFACE
 10
26.035025007737556
 20
3.892905298924260
 30
198.275841586245519
 62
12
 11
28.239842139947765
 21
8.465403352564334
 31
198.374014431704012
 62
12
 12
28.449105596843044
 22
2.165644601820135
 32
198.234274894729026
 62
12
 13
26.035025007737556
 23
3.892905298924260
 33
198.275841586245519
 62
12
  8
Verschneidung_Anpassung
  0
3DFACE
 10
28.922464005399934
 20
0.661205707865727
 30
198.200319423713211
 62
12
 11
28.449105596843044
 21
2.165644601820135
 31
198.234274894729026
 62
12
 12
37.884714299999999
 22
0.302130992000000
 32
198.180000000000007
 62
12
 13
28.922464005399934
 23
0.661205707865727
 33
198.200319423713211
 62
12
  8
Verschneidung_Anpassung
  0
3DFACE
 10
28.922464005399934
 20
0.661205707865727
 30
198.200319423713211
 62
12
 11
16.910412170000001
 21
-0.102269358000000
 31
198.199999999999989
 62
12
 12
28.449105596843044
 22
2.165644601820135
 32
198.234274894729026
 62
12
 13
28.922464005399934
 23
0.661205707865727
 33
198.200319423713211
 62
12
  8
Verschneidung_Anpassung
  0
3DFACE
 10
28.672647292946351
 20
0.124515398461492
 30
198.188784146380613
 62
12
 11
28.922464005399934
 21
0.661205707865727
 31
198.200319423713211
 62
12
 12
37.884714299999999
 22
0.302130992000000
 32
198.180000000000007
 62
12
 13
28.672647292946351
 23
0.124515398461492
 33
198.188784146380613
 62
12
  8
Verschneidung_Anpassung
  0
3DFACE
 10
28.672647292946351
 20
0.124515398461492
 30
198.188784146380613
 62
12
 11
37.884714299999999
 21
0.302130992000000
 31
198.180000000000007
 62
12
 12
16.910412170000001
 22
-0.102269358000000
 32
198.199999999999989
 62
12
 13
28.672647292946351
 23
0.124515398461492
 33
198.188784146380613
 62
12
  8
Verschneidung_Anpassung
  0
3DFACE
 10
28.672647292946351
 20
0.124515398461492
 30
198.188784146380613
 62
12
 11
16.910412170000001
 21
-0.102269358000000
 31
198.199999999999989
 62
12
 12
28.922464005399934
 22
0.661205707865727
 32
198.200319423713211
 62
12
 13
28.672647292946351
 23
0.124515398461492
 33
198.188784146380613
 62
12
  8
Verschneidung_Anpassung
  0
3DFACE
 10
24.010210097737190
 20
4.717816581933612
 30
198.296896661995675
 62
12
 11
28.239842139947765
 21
8.465403352564334
 31
198.374014431704012
 62
12
 12
26.035025007737556
 22
3.892905298924260
 32
198.275841586245519
 62
12
 13
24.010210097737190
 23
4.717816581933612
 33
198.296896661995675
 62
12
  8
Verschneidung_Anpassung
  0
3DFACE
 10
23.559406193588153
 20
4.755186023185781
 30
198.298346131882340
 62
12
 11
28.239842139947765
 21
8.465403352564334
 31
198.374014431704012
 62
12
 12
24.010210097737190
 22
4.717816581933612
 32
198.296896661995675
 62
12
 13
23.559406193588153
 23
4.755186023185781
 33
198.298346131882340
 62
12
  8
Verschneidung_Anpassung
  0
3DFACE
 10
23.344108038243817
 20
4.763094624533819
 30
198.298818381263544
 62
12
 11
28.239842139947765
 21
8.465403352564334
 31
198.374014431704012
 62
12
 12
23.559406193588153
 22
4.755186023185781
 32
198.298346131882340
 62
12
 13
23.344108038243817
 23
4.763094624533819
 33
198.298818381263544
 62
12
  8
Verschneidung_Anpassung
  0
3DFACE
 10
17.919923683771049
 20
7.657374995242963
 30
198.358644329165003
 62
12
 11
15.287976983957977
 21
6.832739134177002
 31
198.342069018150028
 62
12
 12
14.740602810000000
 22
9.172459437000001
 32
198.389999999999986
 62
12
 13
17.919923683771049
 23
7.657374995242963
 33
198.358644329165003
 62
12
  8
Verschneidung_Anpassung
  0
3DFACE
 10
17.919923683771049
 20
7.657374995242963
 30
198.358644329165003
 62
12
 11
14.740602810000000
 21
9.172459437000001
 31
198.389999999999986
 62
12
 12
29.280602810000001
 22
9.252459437000001
 32
198.389999999999986
 62
12
 13
17.919923683771049
 23
7.657374995242963
 33
198.358644329165003
 62
12
  8
Verschneidung_Anpassung
  0
3DFACE
 10
23.061548800976485
 20
7.739864913935902
 30
198.359753238359900
 62
12
 11
15.871426835143597
 21
4.338815366040189
 31
198.290979058926496
 62
12
 12
15.287976983957977
 22
6.832739134177002
 32
198.342069018150028
 62
12
 13
23.061548800976485
 23
7.739864913935902
 33
198.359753238359900
 62
12
  8
Verschneidung_Anpassung
  0
3DFACE
 10
17.919923683771049
 20
7.657374995242963
 30
198.358644329165003
 62
12
 11
29.280602810000001
 21
9.252459437000001
 31
198.389999999999986
 62
12
 12
20.275143291938122
 22
7.695161078349565
 32
198.359152286205813
 62
12
 13
17.919923683771049
 23
7.657374995242963
 33
198.358644329165003
 62
12
  8
Verschneidung_Anpassung
  0
3DFACE
 10
17.919923683771049
 20
7.657374995242963
 30
198.358644329165003
 62
12
 11
15.287976983957977
 21
6.832739134177002
 31
198.342069018150028
 62
12
 12
20.275143291938122
 22
7.695161078349565
 32
198.359152286205813
 62
12
 13
17.919923683771049
 23
7.657374995242963
 33
198.358644329165003
 62
12
  8
Verschneidung_Anpassung
  0
3DFACE
 10
23.061548800976485
 20
7.739864913935902
 30
198.359753238359900
 62
12
 11
15.287976983957977
 21
6.832739134177002
 31
198.342069018150028
 62
12
 12
20.275143291938122
 22
7.695161078349565
 32
198.359152286205813
 62
12
 13
23.061548800976485
 23
7.739864913935902
 33
198.359753238359900
 62
12
  8
Verschneidung_Anpassung
  0
3DFACE
 10
23.061548800976485
 20
7.739864913935902
 30
198.359753238359900
 62
12
 11
29.280602810000001
 21
9.252459437000001
 31
198.389999999999986
 62
12
 12
20.275143291938122
 22
7.695161078349565
 32
198.359152286205813
 62
12
 13
23.061548800976485
 23
7.739864913935902
 33
198.359753238359900
 62
12
  8
Verschneidung_Anpassung
  0
3DFACE
 10
28.239842139947765
 20
8.465403352564334
 30
198.374014431704012
 62
12
 11
15.871426835143597
 21
4.338815366040189
 31
198.290979058926496
 62
12
 12
26.447390997201730
 22
8.214260337231783
 32
198.369077961204312
 62
12
 13
28.239842139947765
 23
8.465403352564334
 33
198.374014431704012
 62
12
  8
Verschneidung_Anpassung
  0
3DFACE
 10
28.239842139947765
 20
8.465403352564334
 30
198.374014431704012
 62
12
 11
29.280602810000001
 21
9.252459437000001
 31
198.389999999999986
 62
12
 12
26.447390997201730
 22
8.214260337231783
 32
198.369077961204312
 62
12
 13
28.239842139947765
 23
8.465403352564334
 33
198.374014431704012
 62
12
  8
Verschneidung_Anpassung
  0
3DFACE
 10
23.061548800976485
 20
7.739864913935902
 30
198.359753238359900
 62
12
 11
29.280602810000001
 21
9.252459437000001
 31
198.389999999999986
 62
12
 12
26.447390997201730
 22
8.214260337231783
 32
198.369077961204312
 62
12
 13
23.061548800976485
 23
7.739864913935902
 33
198.359753238359900
 62
12
  8
Verschneidung_Anpassung
  0
3DFACE
 10
23.061548800976485
 20
7.739864913935902
 30
198.359753238359900
 62
12
 11
15.871426835143597
 21
4.338815366040189
 31
198.290979058926496
 62
12
 12
26.447390997201730
 22
8.214260337231783
 32
198.369077961204312
 62
12
 13
23.061548800976485
 23
7.739864913935902
 33
198.359753238359900
 62
12
  8
Verschneidung_Anpassung
  0
3DFACE
 10
18.384201943793308
 20
4.844473151581958
 30
198.301041672558853
 62
12
 11
15.871426835143597
 21
4.338815366040189
 31
198.290979058926496
 62
12
 12
28.239842139947765
 22
8.465403352564334
 32
198.374014431704012
 62
12
 13
18.384201943793308
 23
4.844473151581958
 33
198.301041672558853
 62
12
  8
Verschneidung_Anpassung
  0
3DFACE
 10
18.384201943793308
 20
4.844473151581958
 30
198.301041672558853
 62
12
 11
28.239842139947765
 21
8.465403352564334
 31
198.374014431704012
 62
12
 12
23.344108038243817
 22
4.763094624533819
 32
198.298818381263544
 62
12
 13
18.384201943793308
 23
4.844473151581958
 33
198.301041672558853
 62
12
  8
Verschneidung_Anpassung
  0
3DFACE
 10
16.880674199327974
 20
4.326688171001898
 30
198.290617333226720
 62
12
 11
16.910412170000001
 21
-0.102269358000000
 31
198.199999999999989
 62
12
 12
15.871426835143597
 22
4.338815366040189
 32
198.290979058926496
 62
12
 13
16.880674199327974
 23
4.326688171001898
 33
198.290617333226720
 62
12
  8
Verschneidung_Anpassung
  0
3DFACE
 10
18.384201943793308
 20
4.844473151581958
 30
198.301041672558853
 62
12
 11
23.344108038243817
 21
4.763094624533819
 31
198.298818381263544
 62
12
 12
17.122082293746537
 22
4.409824305962171
 32
198.292291076796147
 62
12
 13
18.384201943793308
 23
4.844473151581958
 33
198.301041672558853
 62
12
  8
Verschneidung_Anpassung
  0
3DFACE
 10
18.384201943793308
 20
4.844473151581958
 30
198.301041672558853
 62
12
 11
15.871426835143597
 21
4.338815366040189
 31
198.290979058926496
 62
12
 12
17.122082293746537
 22
4.409824305962171
 32
198.292291076796147
 62
12
 13
18.384201943793308
 23
4.844473151581958
 33
198.301041672558853
 62
12
  8
Verschneidung_Anpassung
  0
3DFACE
 10
16.880674199327974
 20
4.326688171001898
 30
198.290617333226720
 62
12
 11
15.871426835143597
 21
4.338815366040189
 31
198.290979058926496
 62
12
 12
17.122082293746537
 22
4.409824305962171
 32
198.292291076796147
 62
12
 13
16.880674199327974
 23
4.326688171001898
 33
198.290617333226720
 62
12
  8
Verschneidung_Anpassung
  0
3DFACE
 10
16.880674199327974
 20
4.326688171001898
 30
198.290617333226720
 62
12
 11
23.344108038243817
 21
4.763094624533819
 31
198.298818381263544
 62
12
 12
17.122082293746537
 22
4.409824305962171
 32
198.292291076796147
 62
12
 13
16.880674199327974
 23
4.326688171001898
 33
198.290617333226720
 62
12
  8
Verschneidung_Anpassung
  0
3DFACE
 10
33.326572753156825
 20
6.232961367127096
 30
198.317296613392756
 62
12
 11
31.370041649534613
 21
7.078944611987612
 31
198.339003199596817
 62
12
 12
34.230602810000001
 22
13.272459440000000
 32
198.469999999999999
 62
12
 13
33.326572753156825
 23
6.232961367127096
 33
198.317296613392756
 62
12
  8
Verschneidung_Anpassung
  0
3DFACE
 10
33.326572753156825
 20
6.232961367127096
 30
198.317296613392756
 62
12
 11
37.884714299999999
 21
0.302130992000000
 31
198.180000000000007
 62
12
 12
31.370041649534613
 22
7.078944611987612
 32
198.339003199596817
 62
12
 13
33.326572753156825
 23
6.232961367127096
 33
198.317296613392756
 62
12
  8
Verschneidung_Anpassung
  0
3DFACE
 10
37.664744724299439
 20
1.082916595617004
 30
198.197457370178171
 62
12
 11
33.326572753156825
 21
6.232961367127096
 31
198.317296613392756
 62
12
 12
34.230602810000001
 22
13.272459440000000
 32
198.469999999999999
 62
12
 13
37.664744724299439
 23
1.082916595617004
 33
198.197457370178171
 62
12
  8
Verschneidung_Anpassung
  0
3DFACE
 10
37.664744724299439
 20
1.082916595617004
 30
198.197457370178171
 62
12
 11
37.884714299999999
 21
0.302130992000000
 31
198.180000000000007
 62
12
 12
33.326572753156825
 22
6.232961367127096
 32
198.317296613392756
 62
12
 13
37.664744724299439
 23
1.082916595617004
 33
198.197457370178171
 62
12
  8
Verschneidung_Anpassung
  0
3DFACE
 10
-10.727101954931928
 20
3.006762874597246
 30
198.189655890930396
 62
12
 11
-9.029680943000001
 21
0.304281028000000
 31
198.150000000000006
 62
12
 12
-11.732754391881219
 22
2.798643208704836
 32
198.185419922961557
 62
12
 13
-10.727101954931928
 23
3.006762874597246
 33
198.189655890930396
 62
12
  8
Verschneidung_Anpassung
  0
3DFACE
 10
-13.925293957851821
 20
4.821891143502775
 30
198.214150027409488
 62
12
 11
-11.732754391881219
 21
2.798643208704836
 31
198.185419922961557
 62
12
 12
-10.727101954931928
 22
3.006762874597246
 32
198.189655890930396
 62
12
 13
-13.925293957851821
 23
4.821891143502775
 33
198.214150027409488
 62
12
  8
Verschneidung_Anpassung
  0
3DFACE
 10
-12.127135410221614
 20
5.235770864337466
 30
198.222364083895826
 62
12
 11
-10.727101954931928
 21
3.006762874597246
 31
198.189655890930396
 62
12
 12
-13.302520754171667
 22
4.965234009470940
 32
198.216994879038367
 62
12
 13
-12.127135410221614
 23
5.235770864337466
 33
198.222364083895826
 62
12
  8
Verschneidung_Anpassung
  0
3DFACE
 10
-12.127135410221614
 20
5.235770864337466
 30
198.222364083895826
 62
12
 11
-17.725528546837946
 21
8.328699824745502
 31
198.263946682558981
 62
12
 12
-13.302520754171667
 22
4.965234009470940
 32
198.216994879038367
 62
12
 13
-12.127135410221614
 23
5.235770864337466
 33
198.222364083895826
 62
12
  8
Verschneidung_Anpassung
  0
3DFACE
 10
-13.925293957851821
 20
4.821891143502775
 30
198.214150027409488
 62
12
 11
-10.727101954931928
 21
3.006762874597246
 31
198.189655890930396
 62
12
 12
-13.302520754171667
 22
4.965234009470940
 32
198.216994879038367
 62
12
 13
-13.925293957851821
 23
4.821891143502775
 33
198.214150027409488
 62
12
  8
Verschneidung_Anpassung
  0
3DFACE
 10
-13.925293957851821
 20
4.821891143502775
 30
198.214150027409488
 62
12
 11
-17.725528546837946
 21
8.328699824745502
 31
198.263946682558981
 62
12
 12
-13.302520754171667
 22
4.965234009470940
 32
198.216994879038367
 62
12
 13
-13.925293957851821
 23
4.821891143502775
 33
198.214150027409488
 62
12
  8
Verschneidung_Anpassung
  0
3DFACE
 10
-21.266391310251574
 20
8.379711208681659
 30
198.229933116962229
 62
12
 11
-29.221909510000000
 21
9.859469257000001
 31
198.169999999999987
 62
12
 12
-21.836445000000001
 22
13.194910280000000
 32
198.080000000000013
 62
12
 13
-21.266391310251574
 23
8.379711208681659
 33
198.229933116962229
 62
12
  8
Verschneidung_Anpassung
  0
3DFACE
 10
-18.643287680000000
 20
0.304281028000000
 30
198.139999999999986
 62
12
 11
-21.257513260000000
 21
8.378059856000000
 31
198.229999999999990
 62
12
 12
-21.309299939286042
 22
8.340655708585192
 32
198.230438085153196
 62
12
 13
-18.643287680000000
 23
0.304281028000000
 33
198.139999999999986
 62
12
  8
Verschneidung_Anpassung
  0
3DFACE
 10
-21.266391310251574
 20
8.379711208681659
 30
198.229933116962229
 62
12
 11
-21.257513260000000
 21
8.378059856000000
 31
198.229999999999990
 62
12
 12
-21.309299939286042
 22
8.340655708585192
 32
198.230438085153196
 62
12
 13
-21.266391310251574
 23
8.379711208681659
 33
198.229933116962229
 62
12
  8
Verschneidung_Anpassung
  0
3DFACE
 10
-28.375571851959503
 20
3.447422913673710
 30
198.286507297212864
 62
12
 11
-29.221909510000000
 21
9.859469257000001
 31
198.169999999999987
 62
12
 12
-21.266391310251574
 22
8.379711208681659
 32
198.229933116962229
 62
12
 13
-28.375571851959503
 23
3.447422913673710
 33
198.286507297212864
 62
12
  8
Verschneidung_Anpassung
  0
3DFACE
 10
-27.075940607853216
 20
4.271563714328813
 30
198.277530141931578
 62
12
 11
-28.375571851959503
 21
3.447422913673710
 31
198.286507297212864
 62
12
 12
-21.266391310251574
 22
8.379711208681659
 32
198.229933116962229
 62
12
 13
-27.075940607853216
 23
4.271563714328813
 33
198.277530141931578
 62
12
  8
Verschneidung_Anpassung
  0
3DFACE
 10
-27.075940607853216
 20
4.271563714328813
 30
198.277530141931578
 62
12
 11
-28.350200000000001
 21
3.255200000000000
 31
198.289999999999992
 62
12
 12
-28.375571851959503
 22
3.447422913673710
 32
198.286507297212864
 62
12
 13
-27.075940607853216
 23
4.271563714328813
 33
198.277530141931578
 62
12
  8
Verschneidung_Anpassung
  0
3DFACE
 10
-26.743038774159722
 20
4.416010004415465
 30
198.276404351822464
 62
12
 11
-18.643287680000000
 21
0.304281028000000
 31
198.139999999999986
 62
12
 12
-28.350200000000001
 22
3.255200000000000
 32
198.289999999999992
 62
12
 13
-26.743038774159722
 23
4.416010004415465
 33
198.276404351822464
 62
12
  8
Verschneidung_Anpassung
  0
3DFACE
 10
-26.743038774159722
 20
4.416010004415465
 30
198.276404351822464
 62
12
 11
-21.309299939286042
 21
8.340655708585192
 31
198.230438085153196
 62
12
 12
-21.266391310251574
 22
8.379711208681659
 32
198.229933116962229
 62
12
 13
-26.743038774159722
 23
4.416010004415465
 33
198.276404351822464
 62
12
  8
Verschneidung_Anpassung
  0
3DFACE
 10
-27.075940607853216
 20
4.271563714328813
 30
198.277530141931578
 62
12
 11
-21.266391310251574
 21
8.379711208681659
 31
198.229933116962229
 62
12
 12
-26.749357990935277
 22
4.413268092755336
 32
198.276425721821141
 62
12
 13
-27.075940607853216
 23
4.271563714328813
 33
198.277530141931578
 62
12
  8
Verschneidung_Anpassung
  0
3DFACE
 10
-27.075940607853216
 20
4.271563714328813
 30
198.277530141931578
 62
12
 11
-28.350200000000001
 21
3.255200000000000
 31
198.289999999999992
 62
12
 12
-26.749357990935277
 22
4.413268092755336
 32
198.276425721821141
 62
12
 13
-27.075940607853216
 23
4.271563714328813
 33
198.277530141931578
 62
12
  8
Verschneidung_Anpassung
  0
3DFACE
 10
-26.743038774159722
 20
4.416010004415465
 30
198.276404351822464
 62
12
 11
-21.266391310251574
 21
8.379711208681659
 31
198.229933116962229
 62
12
 12
-26.749357990935277
 22
4.413268092755336
 32
198.276425721821141
 62
12
 13
-26.743038774159722
 23
4.416010004415465
 33
198.276404351822464
 62
12
  8
Verschneidung_Anpassung
  0
3DFACE
 10
-26.743038774159722
 20
4.416010004415465
 30
198.276404351822464
 62
12
 11
-28.350200000000001
 21
3.255200000000000
 31
198.289999999999992
 62
12
 12
-26.749357990935277
 22
4.413268092755336
 32
198.276425721821141
 62
12
 13
-26.743038774159722
 23
4.416010004415465
 33
198.276404351822464
 62
12
  8
Verschneidung_Anpassung
  0
3DFACE
 10
-21.236273954837550
 20
4.329234149334281
 30
198.202125325711876
 62
12
 11
-26.743038774159722
 21
4.416010004415465
 31
198.276404351822464
 62
12
 12
-21.309299939286042
 22
8.340655708585192
 32
198.230438085153196
 62
12
 13
-21.236273954837550
 23
4.329234149334281
 33
198.202125325711876
 62
12
  8
Verschneidung_Anpassung
  0
3DFACE
 10
-21.236273954837550
 20
4.329234149334281
 30
198.202125325711876
 62
12
 11
-21.309299939286042
 21
8.340655708585192
 31
198.230438085153196
 62
12
 12
-18.643287680000000
 22
0.304281028000000
 32
198.139999999999986
 62
12
 13
-21.236273954837550
 23
4.329234149334281
 33
198.202125325711876
 62
12
  8
Verschneidung_Anpassung
  0
3DFACE
 10
-23.308453296139632
 20
3.747128321385639
 30
198.225887065670861
 62
12
 11
-21.236273954837550
 21
4.329234149334281
 31
198.202125325711876
 62
12
 12
-18.643287680000000
 22
0.304281028000000
 32
198.139999999999986
 62
12
 13
-23.308453296139632
 23
3.747128321385639
 33
198.225887065670861
 62
12
  8
Verschneidung_Anpassung
  0
3DFACE
 10
-23.308453296139632
 20
3.747128321385639
 30
198.225887065670861
 62
12
 11
-18.643287680000000
 21
0.304281028000000
 31
198.139999999999986
 62
12
 12
-26.743038774159722
 22
4.416010004415465
 32
198.276404351822464
 62
12
 13
-23.308453296139632
 23
3.747128321385639
 33
198.225887065670861
 62
12
  8
Verschneidung_Anpassung
  0
3DFACE
 10
-23.308453296139632
 20
3.747128321385639
 30
198.225887065670861
 62
12
 11
-26.743038774159722
 21
4.416010004415465
 31
198.276404351822464
 62
12
 12
-21.236273954837550
 22
4.329234149334281
 32
198.202125325711876
 62
12
 13
-23.308453296139632
 23
3.747128321385639
 33
198.225887065670861
 62
12
  8
Verschneidung_Anpassung
  0
3DFACE
 10
-13.710337204889447
 20
2.389382653868509
 30
198.177090029706306
 62
12
 11
-13.925293957851821
 21
4.821891143502775
 31
198.214150027409488
 62
12
 12
-11.732754391881219
 22
2.798643208704836
 32
198.185419922961557
 62
12
 13
-13.710337204889447
 23
2.389382653868509
 33
198.177090029706306
 62
12
  8
Verschneidung_Anpassung
  0
3DFACE
 10
-13.710337204889447
 20
2.389382653868509
 30
198.177090029706306
 62
12
 11
-11.732754391881219
 21
2.798643208704836
 31
198.185419922961557
 62
12
 12
-18.643287680000000
 22
0.304281028000000
 32
198.139999999999986
 62
12
 13
-13.710337204889447
 23
2.389382653868509
 33
198.177090029706306
 62
12
  8
Verschneidung_Anpassung
  0
3DFACE
 10
-14.801668550198366
 20
4.620177188910167
 30
198.210146715012911
 62
12
 11
-18.643287680000000
 21
0.304281028000000
 31
198.139999999999986
 62
12
 12
-17.725528546837946
 22
8.328699824745502
 32
198.263946682558981
 62
12
 13
-14.801668550198366
 23
4.620177188910167
 33
198.210146715012911
 62
12
  8
Verschneidung_Anpassung
  0
3DFACE
 10
-14.801668550198366
 20
4.620177188910167
 30
198.210146715012911
 62
12
 11
-17.725528546837946
 21
8.328699824745502
 31
198.263946682558981
 62
12
 12
-13.925293957851821
 22
4.821891143502775
 32
198.214150027409488
 62
12
 13
-14.801668550198366
 23
4.620177188910167
 33
198.210146715012911
 62
12
  8
Verschneidung_Anpassung
  0
3DFACE
 10
-13.710337204889447
 20
2.389382653868509
 30
198.177090029706306
 62
12
 11
-18.643287680000000
 21
0.304281028000000
 31
198.139999999999986
 62
12
 12
-14.589304355017129
 22
4.186082733468016
 32
198.203714153169358
 62
12
 13
-13.710337204889447
 23
2.389382653868509
 33
198.177090029706306
 62
12
  8
Verschneidung_Anpassung
  0
3DFACE
 10
-13.710337204889447
 20
2.389382653868509
 30
198.177090029706306
 62
12
 11
-13.925293957851821
 21
4.821891143502775
 31
198.214150027409488
 62
12
 12
-14.589304355017129
 22
4.186082733468016
 32
198.203714153169358
 62
12
 13
-13.710337204889447
 23
2.389382653868509
 33
198.177090029706306
 62
12
  8
Verschneidung_Anpassung
  0
3DFACE
 10
-14.801668550198366
 20
4.620177188910167
 30
198.210146715012911
 62
12
 11
-13.925293957851821
 21
4.821891143502775
 31
198.214150027409488
 62
12
 12
-14.589304355017129
 22
4.186082733468016
 32
198.203714153169358
 62
12
 13
-14.801668550198366
 23
4.620177188910167
 33
198.210146715012911
 62
12
  8
Verschneidung_Anpassung
  0
3DFACE
 10
-14.801668550198366
 20
4.620177188910167
 30
198.210146715012911
 62
12
 11
-18.643287680000000
 21
0.304281028000000
 31
198.139999999999986
 62
12
 12
-14.589304355017129
 22
4.186082733468016
 32
198.203714153169358
 62
12
 13
-14.801668550198366
 23
4.620177188910167
 33
198.210146715012911
 62
12
  8
Verschneidung_Anpassung
  0
3DFACE
 10
-21.258224604278816
 20
8.383978410389547
 30
198.229815692188822
 62
12
 11
-21.266391310251574
 21
8.379711208681659
 31
198.229933116962229
 62
12
 12
-21.836445000000001
 22
13.194910280000000
 32
198.080000000000013
 62
12
 13
-21.258224604278816
 23
8.383978410389547
 33
198.229815692188822
 62
12
  8
Verschneidung_Anpassung
  0
3DFACE
 10
-21.258224604278816
 20
8.383978410389547
 30
198.229815692188822
 62
12
 11
-21.257513260000000
 21
8.378059856000000
 31
198.229999999999990
 62
12
 12
-21.266391310251574
 22
8.379711208681659
 32
198.229933116962229
 62
12
 13
-21.258224604278816
 23
8.383978410389547
 33
198.229815692188822
 62
12
  8
Verschneidung_Anpassung
  0
3DFACE
 10
22.364862052207766
 20
3.092775257431764
 30
198.263196094631866
 62
12
 11
24.010210097737190
 21
4.717816581933612
 31
198.296896661995675
 62
12
 12
26.035025007737556
 22
3.892905298924260
 32
198.275841586245519
 62
12
 13
22.364862052207766
 23
3.092775257431764
 33
198.263196094631866
 62
12
  8
Verschneidung_Anpassung
  0
3DFACE
 10
20.108911299999999
 20
3.066043008000000
 30
198.264461840794638
 62
12
 11
16.880674199327974
 21
4.326688171001898
 31
198.290617333226720
 62
12
 12
23.344108038243817
 22
4.763094624533819
 32
198.298818381263544
 62
12
 13
20.108911299999999
 23
3.066043008000000
 33
198.264461840794638
 62
12
  8
Verschneidung_Anpassung
  0
3DFACE
 10
20.108911299999999
 20
3.066043008000000
 30
198.264461840794638
 62
12
 11
16.910412170000001
 21
-0.102269358000000
 31
198.199999999999989
 62
12
 12
16.880674199327974
 22
4.326688171001898
 32
198.290617333226720
 62
12
 13
20.108911299999999
 23
3.066043008000000
 33
198.264461840794638
 62
12
  8
Verschneidung_Anpassung
  0
3DFACE
 10
23.559406193588153
 20
4.755186023185781
 30
198.298346131882340
 62
12
 11
24.010210097737190
 21
4.717816581933612
 31
198.296896661995675
 62
12
 12
21.603295382389671
 22
3.083750951313126
 32
198.264047557838154
 62
12
 13
23.559406193588153
 23
4.755186023185781
 33
198.298346131882340
 62
12
  8
Verschneidung_Anpassung
  0
3DFACE
 10
22.364862052207766
 20
3.092775257431764
 30
198.263196094631866
 62
12
 11
24.010210097737190
 21
4.717816581933612
 31
198.296896661995675
 62
12
 12
21.603295382389671
 22
3.083750951313126
 32
198.264047557838154
 62
12
 13
22.364862052207766
 23
3.092775257431764
 33
198.263196094631866
 62
12
  8
Verschneidung_Anpassung
  0
3DFACE
 10
23.344108038243817
 20
4.763094624533819
 30
198.298818381263544
 62
12
 11
23.559406193588153
 21
4.755186023185781
 31
198.298346131882340
 62
12
 12
21.266037984761358
 22
3.079754565812563
 32
198.264424625633438
 62
12
 13
23.344108038243817
 23
4.763094624533819
 33
198.298818381263544
 62
12
  8
Verschneidung_Anpassung
  0
3DFACE
 10
21.603295382389671
 20
3.083750951313126
 30
198.264047557838154
 62
12
 11
23.559406193588153
 21
4.755186023185781
 31
198.298346131882340
 62
12
 12
21.266037984761358
 22
3.079754565812563
 32
198.264424625633438
 62
12
 13
21.603295382389671
 23
3.083750951313126
 33
198.264047557838154
 62
12
  8
Verschneidung_Anpassung
  0
3DFACE
 10
21.266037984761358
 20
3.079754565812563
 30
198.264424625633438
 62
12
 11
23.344108038243817
 21
4.763094624533819
 31
198.298818381263544
 62
12
 12
21.115795402302364
 22
3.077974242290148
 32
198.264592603088403
 62
12
 13
21.266037984761358
 23
3.079754565812563
 33
198.264424625633438
 62
12
  8
Verschneidung_Anpassung
  0
3DFACE
 10
26.876764460000000
 20
3.146239767000000
 30
198.258151600114246
 62
12
 11
26.035025007737556
 21
3.892905298924260
 31
198.275841586245519
 62
12
 12
28.449105596843044
 22
2.165644601820135
 32
198.234274894729026
 62
12
 13
26.876764460000000
 23
3.146239767000000
 33
198.258151600114246
 62
12
  8
Verschneidung_Anpassung
  0
3DFACE
 10
26.876764460000000
 20
3.146239767000000
 30
198.258151600114246
 62
12
 11
28.449105596843044
 21
2.165644601820135
 31
198.234274894729026
 62
12
 12
16.910412170000001
 22
-0.102269358000000
 32
198.199999999999989
 62
12
 13
26.876764460000000
 23
3.146239767000000
 33
198.258151600114246
 62
12
  8
Verschneidung_Anpassung
  0
3DFACE
 10
22.364862052207766
 20
3.092775257431764
 30
198.263196094631866
 62
12
 11
26.035025007737556
 21
3.892905298924260
 31
198.275841586245519
 62
12
 12
24.258859582607723
 22
3.115218484242566
 32
198.261078526631707
 62
12
 13
22.364862052207766
 23
3.092775257431764
 33
198.263196094631866
 62
12
  8
Verschneidung_Anpassung
  0
3DFACE
 10
26.876764460000000
 20
3.146239767000000
 30
198.258151600114246
 62
12
 11
26.035025007737556
 21
3.892905298924260
 31
198.275841586245519
 62
12
 12
24.258859582607723
 22
3.115218484242566
 32
198.261078526631707
 62
12
 13
26.876764460000000
 23
3.146239767000000
 33
198.258151600114246
 62
12
  8
Verschneidung_Anpassung
  0
3DFACE
 10
22.364862052207766
 20
3.092775257431764
 30
198.263196094631866
 62
12
 11
16.910412170000001
 21
-0.102269358000000
 31
198.199999999999989
 62
12
 12
21.603295382389671
 22
3.083750951313126
 32
198.264047557838154
 62
12
 13
22.364862052207766
 23
3.092775257431764
 33
198.263196094631866
 62
12
  8
Verschneidung_Anpassung
  0
3DFACE
 10
21.603295382389671
 20
3.083750951313126
 30
198.264047557838154
 62
12
 11
16.910412170000001
 21
-0.102269358000000
 31
198.199999999999989
 62
12
 12
21.266037984761358
 22
3.079754565812563
 32
198.264424625633438
 62
12
 13
21.603295382389671
 23
3.083750951313126
 33
198.264047557838154
 62
12
  8
Verschneidung_Anpassung
  0
3DFACE
 10
20.108911299999999
 20
3.066043008000000
 30
198.264461840794638
 62
12
 11
16.910412170000001
 21
-0.102269358000000
 31
198.199999999999989
 62
12
 12
21.115795402302364
 22
3.077974242290148
 32
198.264592603088403
 62
12
 13
20.108911299999999
 23
3.066043008000000
 33
198.264461840794638
 62
12
  8
Verschneidung_Anpassung
  0
3DFACE
 10
21.266037984761358
 20
3.079754565812563
 30
198.264424625633438
 62
12
 11
16.910412170000001
 21
-0.102269358000000
 31
198.199999999999989
 62
12
 12
21.115795402302364
 22
3.077974242290148
 32
198.264592603088403
 62
12
 13
21.266037984761358
 23
3.079754565812563
 33
198.264424625633438
 62
12
  8
Verschneidung_Anpassung
  0
3DFACE
 10
23.344108038243817
 20
4.763094624533819
 30
198.298818381263544
 62
12
 11
21.115795402302364
 21
3.077974242290148
 31
198.264592603088403
 62
12
 12
20.108911299999999
 22
3.066043008000000
 32
198.264461840794638
 62
12
 13
23.344108038243817
 23
4.763094624533819
 33
198.298818381263544
 62
12
  8
Verschneidung_Anpassung
  0
3DFACE
 10
26.876764460000000
 20
3.146239767000000
 30
198.258151600114246
 62
12
 11
16.910412170000001
 21
-0.102269358000000
 31
198.199999999999989
 62
12
 12
24.258859582607723
 22
3.115218484242566
 32
198.261078526631707
 62
12
 13
26.876764460000000
 23
3.146239767000000
 33
198.258151600114246
 62
12
  8
Verschneidung_Anpassung
  0
3DFACE
 10
22.364862052207766
 20
3.092775257431764
 30
198.263196094631866
 62
12
 11
16.910412170000001
 21
-0.102269358000000
 31
198.199999999999989
 62
12
 12
24.258859582607723
 22
3.115218484242566
 32
198.261078526631707
 62
12
 13
22.364862052207766
 23
3.092775257431764
 33
198.263196094631866
 62
12
  8
Verschneidung_Anpassung
  0
3DFACE
 10
-15.231174110000000
 20
0.636258059000000
 30
198.148637539533667
 62
12
 11
-9.029680943000001
 21
0.304281028000000
 31
198.150000000000006
 62
12
 12
-11.732754391881219
 22
2.798643208704836
 32
198.185419922961557
 62
12
 13
-15.231174110000000
 23
0.636258059000000
 33
198.148637539533667
 62
12
  8
Verschneidung_Anpassung
  0
3DFACE
 10
-15.231174110000000
 20
0.636258059000000
 30
198.148637539533667
 62
12
 11
-11.732754391881219
 21
2.798643208704836
 31
198.185419922961557
 62
12
 12
-18.643287680000000
 22
0.304281028000000
 32
198.139999999999986
 62
12
 13
-15.231174110000000
 23
0.636258059000000
 33
198.148637539533667
 62
12
  8
Verschneidung_Anpassung
  0
3DFACE
 10
-15.231174110000000
 20
0.636258059000000
 30
198.148637539533667
 62
12
 11
-18.643287680000000
 21
0.304281028000000
 31
198.139999999999986
 62
12
 12
-15.174022832704335
 22
0.304281028000000
 32
198.143608702687970
 62
12
 13
-15.231174110000000
 23
0.636258059000000
 33
198.148637539533667
 62
12
  8
Verschneidung_Anpassung
  0
3DFACE
 10
-15.231174110000000
 20
0.636258059000000
 30
198.148637539533667
 62
12
 11
-9.029680943000001
 21
0.304281028000000
 31
198.150000000000006
 62
12
 12
-15.174022832704335
 22
0.304281028000000
 32
198.143608702687970
 62
12
 13
-15.231174110000000
 23
0.636258059000000
 33
198.148637539533667
 62
12
  8
Verschneidung_Anpassung
  0
3DFACE
 10
-26.008179280000000
 20
6.182393549000000
 30
198.300000000000011
 62
102
 11
-29.121363490000000
 21
13.624147290000000
 31
198.080000000000013
 62
102
 12
-21.836445000000001
 22
13.194910280000000
 32
198.080000000000013
 62
102
 13
-26.008179280000000
 23
6.182393549000000
 33
198.300000000000011
 62
102
  8
Verschneidung_Test
  0
3DFACE
 10
4.579765918000000
 20
5.410555656000000
 30
198.289999999999992
 62
102
 11
17.939345960000001
 21
5.303185391000000
 31
198.340000000000003
 62
102
 12
7.656303100000000
 22
3.763166407000000
 32
198.259999999999991
 62
102
 13
4.579765918000000
 23
5.410555656000000
 33
198.289999999999992
 62
102
  8
Verschneidung_Test
  0
3DFACE
 10
7.656303100000000
 20
3.763166407000000
 30
198.259999999999991
 62
102
 11
9.008409142000000
 21
0.750992626000000
 31
198.229999999999990
 62
102
 12
4.403643530000000
 22
0.602466040000000
 32
198.280000000000001
 62
102
 13
7.656303100000000
 23
3.763166407000000
 33
198.259999999999991
 62
102
  8
Verschneidung_Test
  0
3DFACE
 10
7.656303100000000
 20
3.763166407000000
 30
198.259999999999991
 62
102
 11
4.403643530000000
 21
0.602466040000000
 31
198.280000000000001
 62
102
 12
4.579765918000000
 22
5.410555656000000
 32
198.289999999999992
 62
102
 13
7.656303100000000
 23
3.763166407000000
 33
198.259999999999991
 62
102
  8
Verschneidung_Test
  0
3DFACE
 10
-0.344368563000000
 20
5.359434138000000
 30
198.250000000000000
 62
102
 11
2.303939394000000
 21
3.208511767000000
 31
198.099999999999994
 62
102
 12
-2.346129275000000
 22
3.218460646000000
 32
198.150000000000006
 62
102
 13
-0.344368563000000
 23
5.359434138000000
 33
198.250000000000000
 62
102
  8
Verschneidung_Test
  0
3DFACE
 10
-8.515452612000001
 20
3.238346789000000
 30
198.180000000000007
 62
102
 11
-0.344368563000000
 21
5.359434138000000
 31
198.250000000000000
 62
102
 12
-2.346129275000000
 22
3.218460646000000
 32
198.150000000000006
 62
102
 13
-8.515452612000001
 23
3.238346789000000
 33
198.180000000000007
 62
102
  8
Verschneidung_Test
  0
3DFACE
 10
-10.229158699999999
 20
11.997972190000000
 30
198.280000000000001
 62
102
 11
-0.344368563000000
 21
5.359434138000000
 31
198.250000000000000
 62
102
 12
-8.515452612000001
 22
3.238346789000000
 32
198.180000000000007
 62
102
 13
-10.229158699999999
 23
11.997972190000000
 33
198.280000000000001
 62
102
  8
Verschneidung_Test
  0
3DFACE
 10
-15.683026540000000
 20
5.387282868000000
 30
198.199999999999989
 62
102
 11
-15.231174110000000
 21
0.636258059000000
 31
198.050000000000011
 62
102
 12
-19.182442689999998
 22
3.531633096000000
 32
198.159999999999997
 62
102
 13
-15.683026540000000
 23
5.387282868000000
 33
198.199999999999989
 62
102
  8
Verschneidung_Test
  0
3DFACE
 10
-10.791067354270128
 20
5.691048975525264
 30
198.233170125781470
 62
102
 11
-10.229158699999999
 21
11.997972190000000
 31
198.280000000000001
 62
102
 12
-8.515452612000001
 22
3.238346789000000
 32
198.180000000000007
 62
102
 13
-10.791067354270128
 23
5.691048975525264
 33
198.233170125781470
 62
102
  8
Verschneidung_Test
  0
3DFACE
 10
-10.791067354270128
 20
5.691048975525264
 30
198.233170125781470
 62
102
 11
-12.714896670000000
 21
12.040449649999999
 31
198.259999999999991
 62
102
 12
-10.229158699999999
 22
11.997972190000000
 32
198.280000000000001
 62
102
 13
-10.791067354270128
 23
5.691048975525264
 33
198.233170125781470
 62
102
  8
Verschneidung_Test
  0
3DFACE
 10
-10.438133339868601
 20
4.921782542286083
 30
198.221550760404682
 62
102
 11
-13.077184190000001
 21
3.119241404000000
 31
198.229999999999990
 62
102
 12
-10.829105490000000
 22
5.264104846000000
 32
198.229999999999990
 62
102
 13
-10.438133339868601
 23
4.921782542286083
 33
198.221550760404682
 62
102
  8
Verschneidung_Test
  0
3DFACE
 10
-10.438133339868601
 20
4.921782542286083
 30
198.221550760404682
 62
102
 11
-10.791067354270128
 21
5.691048975525264
 31
198.233170125781470
 62
102
 12
-8.515452612000001
 22
3.238346789000000
 32
198.180000000000007
 62
102
 13
-10.438133339868601
 23
4.921782542286083
 33
198.221550760404682
 62
102
  8
Verschneidung_Test
  0
3DFACE
 10
-10.438133339868601
 20
4.921782542286083
 30
198.221550760404682
 62
102
 11
-10.829105490000000
 21
5.264104846000000
 31
198.229999999999990
 62
102
 12
-10.791067354270128
 22
5.691048975525264
 32
198.233170125781470
 62
102
 13
-10.438133339868601
 23
4.921782542286083
 33
198.221550760404682
 62
102
  8
Verschneidung_Test
  0
3DFACE
 10
-10.925903201015133
 20
5.611934803544127
 30
198.231539900791375
 62
102
 11
-15.683026540000000
 21
5.387282868000000
 31
198.199999999999989
 62
102
 12
-12.714896670000000
 22
12.040449649999999
 32
198.259999999999991
 62
102
 13
-10.925903201015133
 23
5.611934803544127
 33
198.231539900791375
 62
102
  8
Verschneidung_Test
  0
3DFACE
 10
-10.925903201015133
 20
5.611934803544127
 30
198.231539900791375
 62
102
 11
-10.791067354270128
 21
5.691048975525264
 31
198.233170125781470
 62
102
 12
-10.829105490000000
 22
5.264104846000000
 32
198.229999999999990
 62
102
 13
-10.925903201015133
 23
5.611934803544127
 33
198.231539900791375
 62
102
  8
Verschneidung_Test
  0
3DFACE
 10
-10.925903201015133
 20
5.611934803544127
 30
198.231539900791375
 62
102
 11
-12.714896670000000
 21
12.040449649999999
 31
198.259999999999991
 62
102
 12
-10.791067354270128
 22
5.691048975525264
 32
198.233170125781470
 62
102
 13
-10.925903201015133
 23
5.611934803544127
 33
198.231539900791375
 62
102
  8
Verschneidung_Test
  0
3DFACE
 10
-11.785504367717248
 20
5.288375393622572
 30
198.224088909556627
 62
102
 11
-10.829105490000000
 21
5.264104846000000
 31
198.229999999999990
 62
102
 12
-13.077184190000001
 22
3.119241404000000
 32
198.229999999999990
 62
102
 13
-11.785504367717248
 23
5.288375393622572
 33
198.224088909556627
 62
102
  8
Verschneidung_Test
  0
3DFACE
 10
-11.785504367717248
 20
5.288375393622572
 30
198.224088909556627
 62
102
 11
-10.925903201015133
 21
5.611934803544127
 31
198.231539900791375
 62
102
 12
-10.829105490000000
 22
5.264104846000000
 32
198.229999999999990
 62
102
 13
-11.785504367717248
 23
5.288375393622572
 33
198.224088909556627
 62
102
  8
Verschneidung_Test
  0
3DFACE
 10
-11.785504367717248
 20
5.288375393622572
 30
198.224088909556627
 62
102
 11
-15.683026540000000
 21
5.387282868000000
 31
198.199999999999989
 62
102
 12
-10.925903201015133
 22
5.611934803544127
 32
198.231539900791375
 62
102
 13
-11.785504367717248
 23
5.288375393622572
 33
198.224088909556627
 62
102
  8
Verschneidung_Test
  0
3DFACE
 10
-10.727101954931928
 20
3.006762874597246
 30
198.189655890930396
 62
102
 11
-8.515452612000001
 21
3.238346789000000
 31
198.180000000000007
 62
102
 12
-15.231174110000000
 22
0.636258059000000
 32
198.050000000000011
 62
102
 13
-10.727101954931928
 23
3.006762874597246
 33
198.189655890930396
 62
102
  8
Verschneidung_Test
  0
3DFACE
 10
-9.883040570353401
 20
3.202639495066572
 30
198.194989789896340
 62
102
 11
-10.438133339868601
 21
4.921782542286083
 31
198.221550760404682
 62
102
 12
-8.515452612000001
 22
3.238346789000000
 32
198.180000000000007
 62
102
 13
-9.883040570353401
 23
3.202639495066572
 33
198.194989789896340
 62
102
  8
Verschneidung_Test
  0
3DFACE
 10
-9.883040570353401
 20
3.202639495066572
 30
198.194989789896340
 62
102
 11
-13.077184190000001
 21
3.119241404000000
 31
198.229999999999990
 62
102
 12
-10.438133339868601
 22
4.921782542286083
 32
198.221550760404682
 62
102
 13
-9.883040570353401
 23
3.202639495066572
 33
198.194989789896340
 62
102
  8
Verschneidung_Test
  0
3DFACE
 10
-9.883040570353401
 20
3.202639495066572
 30
198.194989789896340
 62
102
 11
-10.727101954931928
 21
3.006762874597246
 31
198.189655890930396
 62
102
 12
-13.077184190000001
 22
3.119241404000000
 32
198.229999999999990
 62
102
 13
-9.883040570353401
 23
3.202639495066572
 33
198.194989789896340
 62
102
  8
Verschneidung_Test
  0
3DFACE
 10
-9.883040570353401
 20
3.202639495066572
 30
198.194989789896340
 62
102
 11
-8.515452612000001
 21
3.238346789000000
 31
198.180000000000007
 62
102
 12
-10.727101954931928
 22
3.006762874597246
 32
198.189655890930396
 62
102
 13
-9.883040570353401
 23
3.202639495066572
 33
198.194989789896340
 62
102
  8
Verschneidung_Test
  0
3DFACE
 10
-12.127135410221614
 20
5.235770864337466
 30
198.222364083895826
 62
102
 11
-11.785504367717248
 21
5.288375393622572
 31
198.224088909556627
 62
102
 12
-13.077184190000001
 22
3.119241404000000
 32
198.229999999999990
 62
102
 13
-12.127135410221614
 23
5.235770864337466
 33
198.222364083895826
 62
102
  8
Verschneidung_Test
  0
3DFACE
 10
-12.127135410221614
 20
5.235770864337466
 30
198.222364083895826
 62
102
 11
-15.683026540000000
 21
5.387282868000000
 31
198.199999999999989
 62
102
 12
-11.785504367717248
 22
5.288375393622572
 32
198.224088909556627
 62
102
 13
-12.127135410221614
 23
5.235770864337466
 33
198.222364083895826
 62
102
  8
Verschneidung_Test
  0
3DFACE
 10
1.455178952694621
 20
5.378116731066945
 30
198.264618183338712
 62
102
 11
2.303939394000000
 21
3.208511767000000
 31
198.099999999999994
 62
102
 12
-0.344368563000000
 22
5.359434138000000
 32
198.250000000000000
 62
102
 13
1.455178952694621
 23
5.378116731066945
 33
198.264618183338712
 62
102
  8
Verschneidung_Test
  0
3DFACE
 10
1.455178952694621
 20
5.378116731066945
 30
198.264618183338712
 62
102
 11
4.579765918000000
 21
5.410555656000000
 31
198.289999999999992
 62
102
 12
2.399283346424278
 22
7.038497285338639
 32
198.295868078283092
 62
102
 13
1.455178952694621
 23
5.378116731066945
 33
198.264618183338712
 62
102
  8
Verschneidung_Test
  0
3DFACE
 10
1.455178952694621
 20
5.378116731066945
 30
198.264618183338712
 62
102
 11
2.399283346424278
 21
7.038497285338639
 31
198.295868078283092
 62
102
 12
-0.344368563000000
 22
5.359434138000000
 32
198.250000000000000
 62
102
 13
1.455178952694621
 23
5.378116731066945
 33
198.264618183338712
 62
102
  8
Verschneidung_Test
  0
3DFACE
 10
2.653279946018361
 20
7.048063804468619
 30
198.296838489671472
 62
102
 11
4.579765918000000
 21
5.410555656000000
 31
198.289999999999992
 62
102
 12
2.399283346424278
 22
7.038497285338639
 32
198.295868078283092
 62
102
 13
2.653279946018361
 23
7.048063804468619
 33
198.296838489671472
 62
102
  8
Verschneidung_Test
  0
3DFACE
 10
4.210075852449190
 20
4.569773731445233
 30
198.259625961683639
 62
102
 11
4.579765918000000
 21
5.410555656000000
 31
198.289999999999992
 62
102
 12
4.403643530000000
 22
0.602466040000000
 32
198.280000000000001
 62
102
 13
4.210075852449190
 23
4.569773731445233
 33
198.259625961683639
 62
102
  8
Verschneidung_Test
  0
3DFACE
 10
3.561929551658773
 20
1.647158517860760
 30
198.207842921531778
 62
102
 11
-2.346129275000000
 21
3.218460646000000
 31
198.150000000000006
 62
102
 12
2.303939394000000
 22
3.208511767000000
 32
198.099999999999994
 62
102
 13
3.561929551658773
 23
1.647158517860760
 33
198.207842921531778
 62
102
  8
Verschneidung_Test
  0
3DFACE
 10
3.561929551658773
 20
1.647158517860760
 30
198.207842921531778
 62
102
 11
4.210075852449190
 21
4.569773731445233
 31
198.259625961683639
 62
102
 12
4.403643530000000
 22
0.602466040000000
 32
198.280000000000001
 62
102
 13
3.561929551658773
 23
1.647158517860760
 33
198.207842921531778
 62
102
  8
Verschneidung_Test
  0
3DFACE
 10
3.561929551658773
 20
1.647158517860760
 30
198.207842921531778
 62
102
 11
2.303939394000000
 21
3.208511767000000
 31
198.099999999999994
 62
102
 12
4.210075852449190
 22
4.569773731445233
 32
198.259625961683639
 62
102
 13
3.561929551658773
 23
1.647158517860760
 33
198.207842921531778
 62
102
  8
Verschneidung_Test
  0
3DFACE
 10
0.555413274788349
 20
2.093916179302827
 30
198.205883441171977
 62
102
 11
3.561929551658773
 21
1.647158517860760
 31
198.207842921531778
 62
102
 12
4.403643530000000
 22
0.602466040000000
 32
198.280000000000001
 62
102
 13
0.555413274788349
 23
2.093916179302827
 33
198.205883441171977
 62
102
  8
Verschneidung_Test
  0
3DFACE
 10
0.555413274788349
 20
2.093916179302827
 30
198.205883441171977
 62
102
 11
-2.346129275000000
 21
3.218460646000000
 31
198.150000000000006
 62
102
 12
3.561929551658773
 22
1.647158517860760
 32
198.207842921531778
 62
102
 13
0.555413274788349
 23
2.093916179302827
 33
198.205883441171977
 62
102
  8
Verschneidung_Test
  0
3DFACE
 10
0.355931455039847
 20
0.236501804568974
 30
198.173649183989170
 62
102
 11
0.555413274788349
 21
2.093916179302827
 31
198.205883441171977
 62
102
 12
4.403643530000000
 22
0.602466040000000
 32
198.280000000000001
 62
102
 13
0.355931455039847
 23
0.236501804568974
 33
198.173649183989170
 62
102
  8
Verschneidung_Test
  0
3DFACE
 10
3.800798955217967
 20
5.221308635497872
 30
198.269409021833098
 62
102
 11
1.455178952694621
 21
5.378116731066945
 31
198.264618183338712
 62
102
 12
4.579765918000000
 22
5.410555656000000
 32
198.289999999999992
 62
102
 13
3.800798955217967
 23
5.221308635497872
 33
198.269409021833098
 62
102
  8
Verschneidung_Test
  0
3DFACE
 10
3.800798955217967
 20
5.221308635497872
 30
198.269409021833098
 62
102
 11
2.303939394000000
 21
3.208511767000000
 31
198.099999999999994
 62
102
 12
1.455178952694621
 22
5.378116731066945
 32
198.264618183338712
 62
102
 13
3.800798955217967
 23
5.221308635497872
 33
198.269409021833098
 62
102
  8
Verschneidung_Test
  0
3DFACE
 10
12.287380110505007
 20
6.196901109757835
 30
198.325591566997275
 62
102
 11
17.939345960000001
 21
5.303185391000000
 31
198.340000000000003
 62
102
 12
4.579765918000000
 22
5.410555656000000
 32
198.289999999999992
 62
102
 13
12.287380110505007
 23
6.196901109757835
 33
198.325591566997275
 62
102
  8
Verschneidung_Test
  0
3DFACE
 10
15.287976983957977
 20
6.832739134177002
 30
198.342069018150028
 62
102
 11
17.939345960000001
 21
5.303185391000000
 31
198.340000000000003
 62
102
 12
12.287380110505007
 22
6.196901109757835
 32
198.325591566997275
 62
102
 13
15.287976983957977
 23
6.832739134177002
 33
198.342069018150028
 62
102
  8
Verschneidung_Test
  0
3DFACE
 10
11.375346055230708
 20
-0.082434013774634
 30
198.194344769210346
 62
102
 11
9.008409142000000
 21
0.750992626000000
 31
198.229999999999990
 62
102
 12
10.668299661683271
 22
1.097168873432331
 32
198.218037366266429
 62
102
 13
11.375346055230708
 23
-0.082434013774634
 33
198.194344769210346
 62
102
  8
Verschneidung_Test
  0
3DFACE
 10
11.375346055230708
 20
-0.082434013774634
 30
198.194344769210346
 62
102
 11
20.108911299999999
 21
3.066043008000000
 31
198.150000000000006
 62
102
 12
10.668299661683271
 22
1.097168873432331
 32
198.218037366266429
 62
102
 13
11.375346055230708
 23
-0.082434013774634
 33
198.194344769210346
 62
102
  8
Verschneidung_Test
  0
3DFACE
 10
10.668299661683271
 20
1.097168873432331
 30
198.218037366266429
 62
102
 11
9.008409142000000
 21
0.750992626000000
 31
198.229999999999990
 62
102
 12
11.446609313621506
 22
1.632771608795339
 32
198.229999999999990
 62
102
 13
10.668299661683271
 23
1.097168873432331
 33
198.218037366266429
 62
102
  8
Verschneidung_Test
  0
3DFACE
 10
20.108911299999999
 20
3.066043008000000
 30
198.150000000000006
 62
102
 11
15.581152260000000
 21
3.128035663000000
 31
198.229999999999990
 62
102
 12
10.668299661683271
 22
1.097168873432331
 32
198.218037366266429
 62
102
 13
20.108911299999999
 23
3.066043008000000
 33
198.150000000000006
 62
102
  8
Verschneidung_Test
  0
3DFACE
 10
11.446609313621506
 20
1.632771608795339
 30
198.229999999999990
 62
102
 11
15.581152260000000
 21
3.128035663000000
 31
198.229999999999990
 62
102
 12
10.668299661683271
 22
1.097168873432331
 32
198.218037366266429
 62
102
 13
11.446609313621506
 23
1.632771608795339
 33
198.229999999999990
 62
102
  8
Verschneidung_Test
  0
3DFACE
 10
10.631246860446215
 20
4.188147039346900
 30
198.282110415652170
 62
102
 11
7.656303100000000
 21
3.763166407000000
 31
198.259999999999991
 62
102
 12
17.939345960000001
 22
5.303185391000000
 32
198.340000000000003
 62
102
 13
10.631246860446215
 23
4.188147039346900
 33
198.282110415652170
 62
102
  8
Verschneidung_Test
  0
3DFACE
 10
15.871426835143595
 20
4.338815366040189
 30
198.290979058926496
 62
102
 11
10.631246860446215
 21
4.188147039346900
 31
198.282110415652170
 62
102
 12
17.939345960000001
 22
5.303185391000000
 32
198.340000000000003
 62
102
 13
15.871426835143595
 23
4.338815366040189
 33
198.290979058926496
 62
102
  8
Verschneidung_Test
  0
3DFACE
 10
15.871426835143595
 20
4.338815366040189
 30
198.290979058926496
 62
102
 11
15.581152260000000
 21
3.128035663000000
 31
198.229999999999990
 62
102
 12
10.631246860446215
 22
4.188147039346900
 32
198.282110415652170
 62
102
 13
15.871426835143595
 23
4.338815366040189
 33
198.290979058926496
 62
102
  8
Verschneidung_Test
  0
3DFACE
 10
9.170956259659810
 20
2.416934071906997
 30
198.243771038903105
 62
102
 11
7.656303100000000
 21
3.763166407000000
 31
198.259999999999991
 62
102
 12
9.008409142000000
 22
0.750992626000000
 32
198.229999999999990
 62
102
 13
9.170956259659810
 23
2.416934071906997
 33
198.243771038903105
 62
102
  8
Verschneidung_Test
  0
3DFACE
 10
9.170956259659810
 20
2.416934071906997
 30
198.243771038903105
 62
102
 11
9.008409142000000
 21
0.750992626000000
 31
198.229999999999990
 62
102
 12
11.446609313621506
 22
1.632771608795339
 32
198.229999999999990
 62
102
 13
9.170956259659810
 23
2.416934071906997
 33
198.243771038903105
 62
102
  8
Verschneidung_Test
  0
3DFACE
 10
8.880313475742325
 20
6.663709018965782
 30
198.316334058855404
 62
102
 11
12.287380110505007
 21
6.196901109757835
 31
198.325591566997275
 62
102
 12
4.579765918000000
 22
5.410555656000000
 32
198.289999999999992
 62
102
 13
8.880313475742325
 23
6.663709018965782
 33
198.316334058855404
 62
102
  8
Verschneidung_Test
  0
3DFACE
 10
8.137683979141450
 20
3.819439639547546
 30
198.262949239701896
 62
102
 11
10.631246860446215
 21
4.188147039346900
 31
198.282110415652170
 62
102
 12
15.581152260000000
 22
3.128035663000000
 32
198.229999999999990
 62
102
 13
8.137683979141450
 23
3.819439639547546
 33
198.262949239701896
 62
102
  8
Verschneidung_Test
  0
3DFACE
 10
8.137683979141450
 20
3.819439639547546
 30
198.262949239701896
 62
102
 11
7.656303100000000
 21
3.763166407000000
 31
198.259999999999991
 62
102
 12
10.631246860446215
 22
4.188147039346900
 32
198.282110415652170
 62
102
 13
8.137683979141450
 23
3.819439639547546
 33
198.262949239701896
 62
102
  8
Verschneidung_Test
  0
3DFACE
 10
8.043801540251037
 20
3.459870099927413
 30
198.256200387084561
 62
102
 11
9.170956259659810
 21
2.416934071906997
 31
198.243771038903105
 62
102
 12
11.446609313621506
 22
1.632771608795339
 32
198.229999999999990
 62
102
 13
8.043801540251037
 23
3.459870099927413
 33
198.256200387084561
 62
102
  8
Verschneidung_Test
  0
3DFACE
 10
8.043801540251037
 20
3.459870099927413
 30
198.256200387084561
 62
102
 11
7.656303100000000
 21
3.763166407000000
 31
198.259999999999991
 62
102
 12
9.170956259659810
 22
2.416934071906997
 32
198.243771038903105
 62
102
 13
8.043801540251037
 23
3.459870099927413
 33
198.256200387084561
 62
102
  8
Verschneidung_Test
  0
3DFACE
 10
6.191816362895985
 20
6.778469581648226
 30
198.307012667274336
 62
102
 11
4.579765918000000
 21
5.410555656000000
 31
198.289999999999992
 62
102
 12
2.653279946018361
 22
7.048063804468619
 32
198.296838489671472
 62
102
 13
6.191816362895985
 23
6.778469581648226
 33
198.307012667274336
 62
102
  8
Verschneidung_Test
  0
3DFACE
 10
6.191816362895985
 20
6.778469581648226
 30
198.307012667274336
 62
102
 11
8.880313475742325
 21
6.663709018965782
 31
198.316334058855404
 62
102
 12
4.579765918000000
 22
5.410555656000000
 32
198.289999999999992
 62
102
 13
6.191816362895985
 23
6.778469581648226
 33
198.307012667274336
 62
102
  8
Verschneidung_Test
  0
3DFACE
 10
11.446609313621506
 20
1.632771608795339
 30
198.229999999999990
 62
102
 11
15.581152260000000
 21
3.128035663000000
 31
198.229999999999990
 62
102
 12
7.667983483897313
 22
3.762230291906182
 32
198.259955783194101
 62
102
 13
11.446609313621506
 23
1.632771608795339
 33
198.229999999999990
 62
102
  8
Verschneidung_Test
  0
3DFACE
 10
8.137683979141450
 20
3.819439639547546
 30
198.262949239701896
 62
102
 11
15.581152260000000
 21
3.128035663000000
 31
198.229999999999990
 62
102
 12
7.667983483897313
 22
3.762230291906182
 32
198.259955783194101
 62
102
 13
8.137683979141450
 23
3.819439639547546
 33
198.262949239701896
 62
102
  8
Verschneidung_Test
  0
3DFACE
 10
8.137683979141450
 20
3.819439639547546
 30
198.262949239701896
 62
102
 11
7.656303100000000
 21
3.763166407000000
 31
198.259999999999991
 62
102
 12
7.667983483897313
 22
3.762230291906182
 32
198.259955783194101
 62
102
 13
8.137683979141450
 23
3.819439639547546
 33
198.262949239701896
 62
102
  8
Verschneidung_Test
  0
3DFACE
 10
8.043801540251037
 20
3.459870099927413
 30
198.256200387084561
 62
102
 11
11.446609313621506
 21
1.632771608795339
 31
198.229999999999990
 62
102
 12
7.691198310182571
 22
3.743553064418853
 32
198.259723806931021
 62
102
 13
8.043801540251037
 23
3.459870099927413
 33
198.256200387084561
 62
102
  8
Verschneidung_Test
  0
3DFACE
 10
8.043801540251037
 20
3.459870099927413
 30
198.256200387084561
 62
102
 11
7.656303100000000
 21
3.763166407000000
 31
198.259999999999991
 62
102
 12
7.691198310182571
 22
3.743553064418853
 32
198.259723806931021
 62
102
 13
8.043801540251037
 23
3.459870099927413
 33
198.256200387084561
 62
102
  8
Verschneidung_Test
  0
3DFACE
 10
7.667983483897313
 20
3.762230291906182
 30
198.259955783194101
 62
102
 11
7.656303100000000
 21
3.763166407000000
 31
198.259999999999991
 62
102
 12
7.691198310182571
 22
3.743553064418853
 32
198.259723806931021
 62
102
 13
7.667983483897313
 23
3.762230291906182
 33
198.259955783194101
 62
102
  8
Verschneidung_Test
  0
3DFACE
 10
7.667983483897313
 20
3.762230291906182
 30
198.259955783194101
 62
102
 11
11.446609313621506
 21
1.632771608795339
 31
198.229999999999990
 62
102
 12
7.691198310182571
 22
3.743553064418853
 32
198.259723806931021
 62
102
 13
7.667983483897313
 23
3.762230291906182
 33
198.259955783194101
 62
102
  8
Verschneidung_Test
  0
3DFACE
 10
4.355233554660737
 20
5.193302665334903
 30
198.271254656897355
 62
102
 11
4.210075852449190
 21
4.569773731445233
 31
198.259625961683639
 62
102
 12
2.303939394000000
 22
3.208511767000000
 32
198.099999999999994
 62
102
 13
4.355233554660737
 23
5.193302665334903
 33
198.271254656897355
 62
102
  8
Verschneidung_Test
  0
3DFACE
 10
4.355233554660737
 20
5.193302665334903
 30
198.271254656897355
 62
102
 11
4.579765918000000
 21
5.410555656000000
 31
198.289999999999992
 62
102
 12
4.210075852449190
 22
4.569773731445233
 32
198.259625961683639
 62
102
 13
4.355233554660737
 23
5.193302665334903
 33
198.271254656897355
 62
102
  8
Verschneidung_Test
  0
3DFACE
 10
4.355233554660737
 20
5.193302665334903
 30
198.271254656897355
 62
102
 11
3.800798955217967
 21
5.221308635497872
 31
198.269409021833098
 62
102
 12
4.579765918000000
 22
5.410555656000000
 32
198.289999999999992
 62
102
 13
4.355233554660737
 23
5.193302665334903
 33
198.271254656897355
 62
102
  8
Verschneidung_Test
  0
3DFACE
 10
4.355233554660737
 20
5.193302665334903
 30
198.271254656897355
 62
102
 11
2.303939394000000
 21
3.208511767000000
 31
198.099999999999994
 62
102
 12
3.800798955217967
 22
5.221308635497872
 32
198.269409021833098
 62
102
 13
4.355233554660737
 23
5.193302665334903
 33
198.271254656897355
 62
102
  8
Verschneidung_Test
  0
3DFACE
 10
28.292229192531817
 20
8.476788873874954
 30
198.374194148033126
 62
102
 11
24.528265019999999
 21
5.229477732000000
 31
198.340000000000003
 62
102
 12
28.239842139947768
 22
8.465403352564334
 32
198.374014431704040
 62
102
 13
28.292229192531817
 23
8.476788873874954
 33
198.374194148033126
 62
102
  8
Verschneidung_Test
  0
3DFACE
 10
28.449105596843033
 20
2.165644601820142
 30
198.234274894729026
 62
102
 11
20.108911299999999
 21
3.066043008000000
 31
198.150000000000006
 62
102
 12
26.876764460000000
 22
3.146239767000000
 32
198.240000000000009
 62
102
 13
28.449105596843033
 23
2.165644601820142
 33
198.234274894729026
 62
102
  8
Verschneidung_Test
  0
3DFACE
 10
26.035025007737556
 20
3.892905298924260
 30
198.275841586245491
 62
102
 11
26.876764460000000
 21
3.146239767000000
 31
198.240000000000009
 62
102
 12
22.364862129999999
 22
3.092775303000000
 32
198.159999999999997
 62
102
 13
26.035025007737556
 23
3.892905298924260
 33
198.275841586245491
 62
102
  8
Verschneidung_Test
  0
3DFACE
 10
26.035025007737556
 20
3.892905298924260
 30
198.275841586245491
 62
102
 11
28.449105596843033
 21
2.165644601820142
 31
198.234274894729026
 62
102
 12
26.876764460000000
 22
3.146239767000000
 32
198.240000000000009
 62
102
 13
26.035025007737556
 23
3.892905298924260
 33
198.275841586245491
 62
102
  8
Verschneidung_Test
  0
3DFACE
 10
26.035025007737556
 20
3.892905298924260
 30
198.275841586245491
 62
102
 11
24.528265019999999
 21
5.229477732000000
 31
198.340000000000003
 62
102
 12
28.449105596843033
 22
2.165644601820142
 32
198.234274894729026
 62
102
 13
26.035025007737556
 23
3.892905298924260
 33
198.275841586245491
 62
102
  8
Verschneidung_Test
  0
3DFACE
 10
28.449105596843033
 20
2.165644601820142
 30
198.234274894729026
 62
102
 11
20.108911299999999
 21
3.066043008000000
 31
198.150000000000006
 62
102
 12
28.922464005399934
 22
0.661205707865727
 32
198.200319423713182
 62
102
 13
28.449105596843033
 23
2.165644601820142
 33
198.234274894729026
 62
102
  8
Verschneidung_Test
  0
3DFACE
 10
24.010210097737190
 20
4.717816581933612
 30
198.296896661995618
 62
102
 11
22.364862129999999
 21
3.092775303000000
 31
198.159999999999997
 62
102
 12
20.108911299999999
 22
3.066043008000000
 32
198.150000000000006
 62
102
 13
24.010210097737190
 23
4.717816581933612
 33
198.296896661995618
 62
102
  8
Verschneidung_Test
  0
3DFACE
 10
24.010210097737190
 20
4.717816581933612
 30
198.296896661995618
 62
102
 11
26.035025007737556
 21
3.892905298924260
 31
198.275841586245491
 62
102
 12
22.364862129999999
 22
3.092775303000000
 32
198.159999999999997
 62
102
 13
24.010210097737190
 23
4.717816581933612
 33
198.296896661995618
 62
102
  8
Verschneidung_Test
  0
3DFACE
 10
24.010210097737190
 20
4.717816581933612
 30
198.296896661995618
 62
102
 11
24.528265019999999
 21
5.229477732000000
 31
198.340000000000003
 62
102
 12
26.035025007737556
 22
3.892905298924260
 32
198.275841586245491
 62
102
 13
24.010210097737190
 23
4.717816581933612
 33
198.296896661995618
 62
102
  8
Verschneidung_Test
  0
3DFACE
 10
23.559406193588153
 20
4.755186023185781
 30
198.298346131882312
 62
102
 11
17.939345960000001
 21
5.303185391000000
 31
198.340000000000003
 62
102
 12
24.528265019999999
 22
5.229477732000000
 32
198.340000000000003
 62
102
 13
23.559406193588153
 23
4.755186023185781
 33
198.298346131882312
 62
102
  8
Verschneidung_Test
  0
3DFACE
 10
23.559406193588153
 20
4.755186023185781
 30
198.298346131882312
 62
102
 11
24.010210097737190
 21
4.717816581933612
 31
198.296896661995618
 62
102
 12
20.108911299999999
 22
3.066043008000000
 32
198.150000000000006
 62
102
 13
23.559406193588153
 23
4.755186023185781
 33
198.298346131882312
 62
102
  8
Verschneidung_Test
  0
3DFACE
 10
23.559406193588153
 20
4.755186023185781
 30
198.298346131882312
 62
102
 11
24.528265019999999
 21
5.229477732000000
 31
198.340000000000003
 62
102
 12
24.010210097737190
 22
4.717816581933612
 32
198.296896661995618
 62
102
 13
23.559406193588153
 23
4.755186023185781
 33
198.298346131882312
 62
102
  8
Verschneidung_Test
  0
3DFACE
 10
23.344108038243817
 20
4.763094624533819
 30
198.298818381263516
 62
102
 11
23.559406193588153
 21
4.755186023185781
 31
198.298346131882312
 62
102
 12
20.108911299999999
 22
3.066043008000000
 32
198.150000000000006
 62
102
 13
23.344108038243817
 23
4.763094624533819
 33
198.298818381263516
 62
102
  8
Verschneidung_Test
  0
3DFACE
 10
23.344108038243817
 20
4.763094624533819
 30
198.298818381263516
 62
102
 11
17.939345960000001
 21
5.303185391000000
 31
198.340000000000003
 62
102
 12
23.559406193588153
 22
4.755186023185781
 32
198.298346131882312
 62
102
 13
23.344108038243817
 23
4.763094624533819
 33
198.298818381263516
 62
102
  8
Verschneidung_Test
  0
3DFACE
 10
17.919923683771049
 20
7.657374995242963
 30
198.358644329165003
 62
102
 11
24.528265019999999
 21
5.229477732000000
 31
198.340000000000003
 62
102
 12
17.939345960000001
 22
5.303185391000000
 32
198.340000000000003
 62
102
 13
17.919923683771049
 23
7.657374995242963
 33
198.358644329165003
 62
102
  8
Verschneidung_Test
  0
3DFACE
 10
17.919923683771049
 20
7.657374995242963
 30
198.358644329165003
 62
102
 11
17.939345960000001
 21
5.303185391000000
 31
198.340000000000003
 62
102
 12
15.287976983957977
 22
6.832739134177002
 32
198.342069018150028
 62
102
 13
17.919923683771049
 23
7.657374995242963
 33
198.358644329165003
 62
102
  8
Verschneidung_Test
  0
3DFACE
 10
23.061548800976485
 20
7.739864913935902
 30
198.359753238359900
 62
102
 11
28.239842139947768
 21
8.465403352564334
 31
198.374014431704040
 62
102
 12
24.528265019999999
 22
5.229477732000000
 32
198.340000000000003
 62
102
 13
23.061548800976485
 23
7.739864913935902
 33
198.359753238359900
 62
102
  8
Verschneidung_Test
  0
3DFACE
 10
23.061548800976485
 20
7.739864913935902
 30
198.359753238359900
 62
102
 11
24.528265019999999
 21
5.229477732000000
 31
198.340000000000003
 62
102
 12
17.919923683771049
 22
7.657374995242963
 32
198.358644329165003
 62
102
 13
23.061548800976485
 23
7.739864913935902
 33
198.359753238359900
 62
102
  8
Verschneidung_Test
  0
3DFACE
 10
18.384201943793308
 20
4.844473151581958
 30
198.301041672558824
 62
102
 11
20.108911299999999
 21
3.066043008000000
 31
198.150000000000006
 62
102
 12
15.581152260000000
 22
3.128035663000000
 32
198.229999999999990
 62
102
 13
18.384201943793308
 23
4.844473151581958
 33
198.301041672558824
 62
102
  8
Verschneidung_Test
  0
3DFACE
 10
18.384201943793308
 20
4.844473151581958
 30
198.301041672558824
 62
102
 11
23.344108038243817
 21
4.763094624533819
 31
198.298818381263516
 62
102
 12
20.108911299999999
 22
3.066043008000000
 32
198.150000000000006
 62
102
 13
18.384201943793308
 23
4.844473151581958
 33
198.301041672558824
 62
102
  8
Verschneidung_Test
  0
3DFACE
 10
18.384201943793308
 20
4.844473151581958
 30
198.301041672558824
 62
102
 11
17.939345960000001
 21
5.303185391000000
 31
198.340000000000003
 62
102
 12
23.344108038243817
 22
4.763094624533819
 32
198.298818381263516
 62
102
 13
18.384201943793308
 23
4.844473151581958
 33
198.301041672558824
 62
102
  8
Verschneidung_Test
  0
3DFACE
 10
16.880674199327974
 20
4.326688171001898
 30
198.290617333226720
 62
102
 11
15.871426835143595
 21
4.338815366040189
 31
198.290979058926496
 62
102
 12
17.939345960000001
 22
5.303185391000000
 32
198.340000000000003
 62
102
 13
16.880674199327974
 23
4.326688171001898
 33
198.290617333226720
 62
102
  8
Verschneidung_Test
  0
3DFACE
 10
16.880674199327974
 20
4.326688171001898
 30
198.290617333226720
 62
102
 11
15.581152260000000
 21
3.128035663000000
 31
198.229999999999990
 62
102
 12
15.871426835143595
 22
4.338815366040189
 32
198.290979058926496
 62
102
 13
16.880674199327974
 23
4.326688171001898
 33
198.290617333226720
 62
102
  8
Verschneidung_Test
  0
3DFACE
 10
16.880674199327974
 20
4.326688171001898
 30
198.290617333226720
 62
102
 11
18.384201943793308
 21
4.844473151581958
 31
198.301041672558824
 62
102
 12
15.581152260000000
 22
3.128035663000000
 32
198.229999999999990
 62
102
 13
16.880674199327974
 23
4.326688171001898
 33
198.290617333226720
 62
102
  8
Verschneidung_Test
  0
3DFACE
 10
16.880674199327974
 20
4.326688171001898
 30
198.290617333226720
 62
102
 11
17.939345960000001
 21
5.303185391000000
 31
198.340000000000003
 62
102
 12
18.384201943793308
 22
4.844473151581958
 32
198.301041672558824
 62
102
 13
16.880674199327974
 23
4.326688171001898
 33
198.290617333226720
 62
102
  8
Verschneidung_Test
  0
3DFACE
 10
-11.732754391881219
 20
2.798643208704836
 30
198.185419922961557
 62
102
 11
-10.727101954931928
 21
3.006762874597246
 31
198.189655890930396
 62
102
 12
-15.231174110000000
 22
0.636258059000000
 32
198.050000000000011
 62
102
 13
-11.732754391881219
 23
2.798643208704836
 33
198.185419922961557
 62
102
  8
Verschneidung_Test
  0
3DFACE
 10
-11.732754391881219
 20
2.798643208704836
 30
198.185419922961557
 62
102
 11
-13.077184190000001
 21
3.119241404000000
 31
198.229999999999990
 62
102
 12
-10.727101954931928
 22
3.006762874597246
 32
198.189655890930396
 62
102
 13
-11.732754391881219
 23
2.798643208704836
 33
198.185419922961557
 62
102
  8
Verschneidung_Test
  0
3DFACE
 10
-13.925293957851821
 20
4.821891143502775
 30
198.214150027409488
 62
102
 11
-12.127135410221614
 21
5.235770864337466
 31
198.222364083895826
 62
102
 12
-13.077184190000001
 22
3.119241404000000
 32
198.229999999999990
 62
102
 13
-13.925293957851821
 23
4.821891143502775
 33
198.214150027409488
 62
102
  8
Verschneidung_Test
  0
3DFACE
 10
-13.925293957851821
 20
4.821891143502775
 30
198.214150027409488
 62
102
 11
-15.683026540000000
 21
5.387282868000000
 31
198.199999999999989
 62
102
 12
-12.127135410221614
 22
5.235770864337466
 32
198.222364083895826
 62
102
 13
-13.925293957851821
 23
4.821891143502775
 33
198.214150027409488
 62
102
  8
Verschneidung_Test
  0
3DFACE
 10
-21.309299939286042
 20
8.340655708585192
 30
198.230438085153196
 62
102
 11
-21.266391310251574
 21
8.379711208681659
 31
198.229933116962258
 62
102
 12
-19.182442689999998
 22
3.531633096000000
 32
198.159999999999997
 62
102
 13
-21.309299939286042
 23
8.340655708585192
 33
198.230438085153196
 62
102
  8
Verschneidung_Test
  0
3DFACE
 10
-21.309299939286042
 20
8.340655708585192
 30
198.230438085153196
 62
102
 11
-26.008179280000000
 21
6.182393549000000
 31
198.300000000000011
 62
102
 12
-21.266391310251574
 22
8.379711208681659
 32
198.229933116962258
 62
102
 13
-21.309299939286042
 23
8.340655708585192
 33
198.230438085153196
 62
102
  8
Verschneidung_Test
  0
3DFACE
 10
-26.743038774159722
 20
4.416010004415465
 30
198.276404351822436
 62
102
 11
-27.075940607853216
 21
4.271563714328813
 31
198.277530141931578
 62
102
 12
-26.008179280000000
 22
6.182393549000000
 32
198.300000000000011
 62
102
 13
-26.743038774159722
 23
4.416010004415465
 33
198.276404351822436
 62
102
  8
Verschneidung_Test
  0
3DFACE
 10
-21.236273954837550
 20
4.329234149334281
 30
198.202125325711876
 62
102
 11
-21.309299939286042
 21
8.340655708585192
 31
198.230438085153196
 62
102
 12
-19.182442689999998
 22
3.531633096000000
 32
198.159999999999997
 62
102
 13
-21.236273954837550
 23
4.329234149334281
 33
198.202125325711876
 62
102
  8
Verschneidung_Test
  0
3DFACE
 10
-21.236273954837550
 20
4.329234149334281
 30
198.202125325711876
 62
102
 11
-26.008179280000000
 21
6.182393549000000
 31
198.300000000000011
 62
102
 12
-21.309299939286042
 22
8.340655708585192
 32
198.230438085153196
 62
102
 13
-21.236273954837550
 23
4.329234149334281
 33
198.202125325711876
 62
102
  8
Verschneidung_Test
  0
3DFACE
 10
-23.308453296139632
 20
3.747128321385639
 30
198.225887065670889
 62
102
 11
-26.743038774159722
 21
4.416010004415465
 31
198.276404351822436
 62
102
 12
-26.008179280000000
 22
6.182393549000000
 32
198.300000000000011
 62
102
 13
-23.308453296139632
 23
3.747128321385639
 33
198.225887065670889
 62
102
  8
Verschneidung_Test
  0
3DFACE
 10
-23.308453296139632
 20
3.747128321385639
 30
198.225887065670889
 62
102
 11
-26.008179280000000
 21
6.182393549000000
 31
198.300000000000011
 62
102
 12
-21.236273954837550
 22
4.329234149334281
 32
198.202125325711876
 62
102
 13
-23.308453296139632
 23
3.747128321385639
 33
198.225887065670889
 62
102
  8
Verschneidung_Test
  0
3DFACE
 10
-13.710337204889447
 20
2.389382653868509
 30
198.177090029706306
 62
102
 11
-13.077184190000001
 21
3.119241404000000
 31
198.229999999999990
 62
102
 12
-15.231174110000000
 22
0.636258059000000
 32
198.050000000000011
 62
102
 13
-13.710337204889447
 23
2.389382653868509
 33
198.177090029706306
 62
102
  8
Verschneidung_Test
  0
3DFACE
 10
-13.710337204889447
 20
2.389382653868509
 30
198.177090029706306
 62
102
 11
-15.231174110000000
 21
0.636258059000000
 31
198.050000000000011
 62
102
 12
-15.683026540000000
 22
5.387282868000000
 32
198.199999999999989
 62
102
 13
-13.710337204889447
 23
2.389382653868509
 33
198.177090029706306
 62
102
  8
Verschneidung_Test
  0
3DFACE
 10
-13.710337204889447
 20
2.389382653868509
 30
198.177090029706306
 62
102
 11
-11.732754391881219
 21
2.798643208704836
 31
198.185419922961557
 62
102
 12
-15.231174110000000
 22
0.636258059000000
 32
198.050000000000011
 62
102
 13
-13.710337204889447
 23
2.389382653868509
 33
198.177090029706306
 62
102
  8
Verschneidung_Test
  0
3DFACE
 10
-13.710337204889447
 20
2.389382653868509
 30
198.177090029706306
 62
102
 11
-15.231174110000000
 21
0.636258059000000
 31
198.050000000000011
 62
102
 12
-13.077184190000001
 22
3.119241404000000
 32
198.229999999999990
 62
102
 13
-13.710337204889447
 23
2.389382653868509
 33
198.177090029706306
 62
102
  8
Verschneidung_Test
  0
3DFACE
 10
-13.710337204889447
 20
2.389382653868509
 30
198.177090029706306
 62
102
 11
-13.077184190000001
 21
3.119241404000000
 31
198.229999999999990
 62
102
 12
-11.732754391881219
 22
2.798643208704836
 32
198.185419922961557
 62
102
 13
-13.710337204889447
 23
2.389382653868509
 33
198.177090029706306
 62
102
  8
Verschneidung_Test
  0
3DFACE
 10
-14.801668550198366
 20
4.620177188910167
 30
198.210146715012911
 62
102
 11
-13.925293957851821
 21
4.821891143502775
 31
198.214150027409488
 62
102
 12
-13.077184190000001
 22
3.119241404000000
 32
198.229999999999990
 62
102
 13
-14.801668550198366
 23
4.620177188910167
 33
198.210146715012911
 62
102
  8
Verschneidung_Test
  0
3DFACE
 10
-14.801668550198366
 20
4.620177188910167
 30
198.210146715012911
 62
102
 11
-15.683026540000000
 21
5.387282868000000
 31
198.199999999999989
 62
102
 12
-13.925293957851821
 22
4.821891143502775
 32
198.214150027409488
 62
102
 13
-14.801668550198366
 23
4.620177188910167
 33
198.210146715012911
 62
102
  8
Verschneidung_Test
  0
3DFACE
 10
-14.801668550198366
 20
4.620177188910167
 30
198.210146715012911
 62
102
 11
-13.710337204889447
 21
2.389382653868509
 31
198.177090029706306
 62
102
 12
-15.683026540000000
 22
5.387282868000000
 32
198.199999999999989
 62
102
 13
-14.801668550198366
 23
4.620177188910167
 33
198.210146715012911
 62
102
  8
Verschneidung_Test
  0
3DFACE
 10
-14.801668550198366
 20
4.620177188910167
 30
198.210146715012911
 62
102
 11
-13.077184190000001
 21
3.119241404000000
 31
198.229999999999990
 62
102
 12
-13.710337204889447
 22
2.389382653868509
 32
198.177090029706306
 62
102
 13
-14.801668550198366
 23
4.620177188910167
 33
198.210146715012911
 62
102
  8
Verschneidung_Test
  0
3DFACE
 10
-29.221909510000000
 20
9.859469257000001
 30
198.208084373898771
 62
102
 11
-29.121363490000000
 21
13.624147290000000
 31
198.080000000000013
 62
102
 12
-26.008179280000000
 22
6.182393549000000
 32
198.300000000000011
 62
102
 13
-29.221909510000000
 23
9.859469257000001
 33
198.208084373898771
 62
102
  8
Verschneidung_Test
  0
3DFACE
 10
-27.075940607853216
 20
4.271563714328813
 30
198.277530141931578
 62
102
 11
-26.008179280000000
 21
6.182393549000000
 31
198.300000000000011
 62
102
 12
-28.728391087828548
 22
6.120461587678995
 32
198.329349237693691
 62
102
 13
-27.075940607853216
 23
4.271563714328813
 33
198.277530141931578
 62
102
  8
Verschneidung_Test
  0
3DFACE
 10
-29.221909510000000
 20
9.859469257000001
 30
198.208084373898771
 62
102
 11
-26.008179280000000
 21
6.182393549000000
 31
198.300000000000011
 62
102
 12
-28.728391087828548
 22
6.120461587678995
 32
198.329349237693691
 62
102
 13
-29.221909510000000
 23
9.859469257000001
 33
198.208084373898771
 62
102
  8
Verschneidung_Test
  0
3DFACE
 10
-28.728391087828548
 20
6.120461587678995
 30
198.329349237693691
 62
102
 11
-27.075940607853216
 21
4.271563714328813
 31
198.277530141931578
 62
102
 12
-28.585190184601551
 22
5.035539016676312
 32
198.308197915511329
 62
102
 13
-28.728391087828548
 23
6.120461587678995
 33
198.329349237693691
 62
102
  8
Verschneidung_Test
  0
3DFACE
 10
-28.375571851959499
 20
3.447422913673712
 30
198.286507297212864
 62
102
 11
-27.075940607853216
 21
4.271563714328813
 31
198.277530141931578
 62
102
 12
-28.585190184601551
 22
5.035539016676312
 32
198.308197915511329
 62
102
 13
-28.375571851959499
 23
3.447422913673712
 33
198.286507297212864
 62
102
  8
Verschneidung_Test
  0
3DFACE
 10
-15.231174110000000
 20
0.636258059000000
 30
198.050000000000011
 62
102
 11
-19.182442689999998
 21
3.531633096000000
 31
198.159999999999997
 62
102
 12
-19.802548772697815
 22
0.656698505274940
 32
198.130616386783345
 62
102
 13
-15.231174110000000
 23
0.636258059000000
 33
198.050000000000011
 62
102
  8
Verschneidung_Test
  0
3DFACE
 10
-21.236273954837550
 20
4.329234149334281
 30
198.202125325711876
 62
102
 11
-19.182442689999998
 21
3.531633096000000
 31
198.159999999999997
 62
102
 12
-19.802548772697815
 22
0.656698505274940
 32
198.130616386783345
 62
102
 13
-21.236273954837550
 23
4.329234149334281
 33
198.202125325711876
 62
102
  8
Verschneidung_Test
  0
3DFACE
 10
-18.643287680000000
 20
0.304281028000000
 30
198.105988941492910
 62
102
 11
-15.231174110000000
 21
0.636258059000000
 31
198.050000000000011
 62
102
 12
-19.610046767455323
 22
0.598177546118062
 32
198.126413735539018
 62
102
 13
-18.643287680000000
 23
0.304281028000000
 33
198.105988941492910
 62
102
  8
Verschneidung_Test
  0
3DFACE
 10
-19.802548772697815
 20
0.656698505274940
 30
198.130616386783345
 62
102
 11
-15.231174110000000
 21
0.636258059000000
 31
198.050000000000011
 62
102
 12
-19.610046767455323
 22
0.598177546118062
 32
198.126413735539018
 62
102
 13
-19.802548772697815
 23
0.656698505274940
 33
198.130616386783345
 62
102
  8
Verschneidung_Test
  0
3DFACE
 10
-26.743038774159722
 20
4.416010004415465
 30
198.276404351822436
 62
102
 11
-27.075940607853216
 21
4.271563714328813
 31
198.277530141931578
 62
102
 12
-20.133384108868817
 22
0.757273048232695
 32
198.136458211844200
 62
102
 13
-26.743038774159722
 23
4.416010004415465
 33
198.276404351822436
 62
102
  8
Verschneidung_Test
  0
3DFACE
 10
-28.585190184601551
 20
5.035539016676312
 30
198.308197915511329
 62
102
 11
-27.075940607853216
 21
4.271563714328813
 31
198.277530141931578
 62
102
 12
-20.133384108868817
 22
0.757273048232695
 32
198.136458211844200
 62
102
 13
-28.585190184601551
 23
5.035539016676312
 33
198.308197915511329
 62
102
  8
Verschneidung_Test
  0
3DFACE
 10
-28.585190184601551
 20
5.035539016676312
 30
198.308197915511329
 62
102
 11
-27.075940607853216
 21
4.271563714328813
 31
198.277530141931578
 62
102
 12
-20.133384108868817
 22
0.757273048232695
 32
198.136458211844200
 62
102
 13
-28.585190184601551
 23
5.035539016676312
 33
198.308197915511329
 62
102
  8
Verschneidung_Test
  0
3DFACE
 10
-28.375571851959499
 20
3.447422913673712
 30
198.286507297212864
 62
102
 11
-27.075940607853216
 21
4.271563714328813
 31
198.277530141931578
 62
102
 12
-20.133384108868817
 22
0.757273048232695
 32
198.136458211844200
 62
102
 13
-28.375571851959499
 23
3.447422913673712
 33
198.286507297212864
 62
102
  8
Verschneidung_Test
  0
3DFACE
 10
-23.308453296139632
 20
3.747128321385639
 30
198.225887065670889
 62
102
 11
-26.743038774159722
 21
4.416010004415465
 31
198.276404351822436
 62
102
 12
-20.075340190155828
 22
0.739627591542366
 32
198.135490221081596
 62
102
 13
-23.308453296139632
 23
3.747128321385639
 33
198.225887065670889
 62
102
  8
Verschneidung_Test
  0
3DFACE
 10
-20.133384108868817
 20
0.757273048232695
 30
198.136458211844200
 62
102
 11
-26.743038774159722
 21
4.416010004415465
 31
198.276404351822436
 62
102
 12
-20.075340190155828
 22
0.739627591542366
 32
198.135490221081596
 62
102
 13
-20.133384108868817
 23
0.757273048232695
 33
198.136458211844200
 62
102
  8
Verschneidung_Test
  0
3DFACE
 10
-23.308453296139632
 20
3.747128321385639
 30
198.225887065670889
 62
102
 11
-21.236273954837550
 21
4.329234149334281
 31
198.202125325711876
 62
102
 12
-19.843215351215676
 22
0.669061218990550
 32
198.131404133363674
 62
102
 13
-23.308453296139632
 23
3.747128321385639
 33
198.225887065670889
 62
102
  8
Verschneidung_Test
  0
3DFACE
 10
-19.802548772697815
 20
0.656698505274940
 30
198.130616386783345
 62
102
 11
-21.236273954837550
 21
4.329234149334281
 31
198.202125325711876
 62
102
 12
-19.843215351215676
 22
0.669061218990550
 32
198.131404133363674
 62
102
 13
-19.802548772697815
 23
0.656698505274940
 33
198.130616386783345
 62
102
  8
Verschneidung_Test
  0
3DFACE
 10
-20.075340190155828
 20
0.739627591542366
 30
198.135490221081596
 62
102
 11
-23.308453296139632
 21
3.747128321385639
 31
198.225887065670889
 62
102
 12
-19.923012350316963
 22
0.693319651620201
 32
198.132949869824756
 62
102
 13
-20.075340190155828
 23
0.739627591542366
 33
198.135490221081596
 62
102
  8
Verschneidung_Test
  0
3DFACE
 10
-19.843215351215676
 20
0.669061218990550
 30
198.131404133363674
 62
102
 11
-23.308453296139632
 21
3.747128321385639
 31
198.225887065670889
 62
102
 12
-19.923012350316963
 22
0.693319651620201
 32
198.132949869824756
 62
102
 13
-19.843215351215676
 23
0.669061218990550
 33
198.131404133363674
 62
102
  8
Verschneidung_Test
  0
3DFACE
 10
-20.133384108868817
 20
0.757273048232695
 30
198.136458211844200
 62
102
 11
-28.375571851959499
 21
3.447422913673712
 31
198.286507297212864
 62
102
 12
-22.026771138885909
 22
1.332866143547290
 32
198.170428803962409
 62
102
 13
-20.133384108868817
 23
0.757273048232695
 33
198.136458211844200
 62
102
  8
Verschneidung_Test
  0
3DFACE
 10
-22.026771138885909
 20
1.332866143547290
 30
198.170428803962409
 62
102
 11
-28.375571851959499
 21
3.447422913673712
 31
198.286507297212864
 62
102
 12
-28.245073585017135
 22
3.223241378946824
 32
198.281995753939526
 62
102
 13
-22.026771138885909
 23
1.332866143547290
 33
198.170428803962409
 62
102
  8
Verschneidung_Test
  0
3DFACE
 10
-28.350200000000001
 20
3.255200000000000
 30
198.283881901096777
 62
102
 11
-28.375571851959499
 21
3.447422913673712
 31
198.286507297212864
 62
102
 12
-28.245073585017135
 22
3.223241378946824
 32
198.281995753939526
 62
102
 13
-28.350200000000001
 23
3.255200000000000
 33
198.283881901096777
 62
102
  8
Verschneidung_Test
  0
3DFACE
 10
-9.029680943000001
 20
0.304281028000000
 30
198.134672671082086
 62
102
 11
-15.231174110000000
 21
0.636258059000000
 31
198.050000000000011
 62
102
 12
-8.515452612000001
 22
3.238346789000000
 32
198.180000000000007
 62
102
 13
-9.029680943000001
 23
0.304281028000000
 33
198.134672671082086
 62
102
  8
Verschneidung_Test
  0
3DFACE
 10
-18.643287680000000
 20
0.304281028000000
 30
198.105988941492910
 62
102
 11
-15.231174110000000
 21
0.636258059000000
 31
198.050000000000011
 62
102
 12
-15.358362863375572
 22
0.304281028000000
 32
198.048329321788884
 62
102
 13
-18.643287680000000
 23
0.304281028000000
 33
198.105988941492910
 62
102
  8
Verschneidung_Test
  0
3DFACE
 10
-9.029680943000001
 20
0.304281028000000
 30
198.134672671082086
 62
102
 11
-15.231174110000000
 21
0.636258059000000
 31
198.050000000000011
 62
102
 12
-15.047973605206616
 22
0.304281027999998
 32
198.048334288313100
 62
102
 13
-9.029680943000001
 23
0.304281028000000
 33
198.134672671082086
 62
102
  8
Verschneidung_Test
  0
3DFACE
 10
-15.358362863375572
 20
0.304281028000000
 30
198.048329321788884
 62
102
 11
-15.231174110000000
 21
0.636258059000000
 31
198.050000000000011
 62
102
 12
-15.230750433016441
 22
0.304281028000000
 32
198.046114216348315
 62
102
 13
-15.358362863375572
 23
0.304281028000000
 33
198.048329321788884
 62
102
  8
Verschneidung_Test
  0
3DFACE
 10
-15.047973605206616
 20
0.304281027999998
 30
198.048334288313100
 62
102
 11
-15.231174110000000
 21
0.636258059000000
 31
198.050000000000011
 62
102
 12
-15.230750433016441
 22
0.304281028000000
 32
198.046114216348315
 62
102
 13
-15.047973605206616
 23
0.304281027999998
 33
198.048334288313100
 62
102
  8
Verschneidung_Test
  0
3DFACE
 10
-15.230750433016441
 20
0.304281028000000
 30
198.046114216348315
 62
102
 11
-15.231174110000000
 21
0.636258059000000
 31
198.050000000000011
 62
102
 12
-15.174022832704333
 22
0.304281028000000
 32
198.049722444963777
 62
102
 13
-15.230750433016441
 23
0.304281028000000
 33
198.046114216348315
 62
102
  8
Verschneidung_Test
  0
3DFACE
 10
-1.154323429000000
 20
0.304281028000000
 30
198.136966776973992
 62
102
 11
-2.346129275000000
 21
3.218460646000000
 31
198.150000000000006
 62
102
 12
0.555413274788349
 22
2.093916179302827
 32
198.205883441171977
 62
102
 13
-1.154323429000000
 23
0.304281028000000
 33
198.136966776973992
 62
102
  8
Verschneidung_Test
  0
3DFACE
 10
-8.515452612000001
 20
3.238346789000000
 30
198.180000000000007
 62
102
 11
-2.346129275000000
 21
3.218460646000000
 31
198.150000000000006
 62
102
 12
-2.366642182040435
 22
0.304281028000000
 32
198.106722464397222
 62
102
 13
-8.515452612000001
 23
3.238346789000000
 33
198.180000000000007
 62
102
  8
Verschneidung_Test
  0
3DFACE
 10
-1.154323429000000
 20
0.304281028000000
 30
198.136966776973992
 62
102
 11
-2.346129275000000
 21
3.218460646000000
 31
198.150000000000006
 62
102
 12
-2.366642182040435
 22
0.304281028000000
 32
198.106722464397222
 62
102
 13
-1.154323429000000
 23
0.304281028000000
 33
198.136966776973992
 62
102
  8
Verschneidung_Test
  0
3DFACE
 10
-2.366642182040435
 20
0.304281028000000
 30
198.106722464397222
 62
102
 11
-8.515452612000001
 21
3.238346789000000
 31
198.180000000000007
 62
102
 12
-6.747485959556164
 22
0.304281028000000
 32
198.127815312227710
 62
102
 13
-2.366642182040435
 23
0.304281028000000
 33
198.106722464397222
 62
102
  8
Verschneidung_Test
  0
3DFACE
 10
-9.029680943000001
 20
0.304281028000000
 30
198.134672671082086
 62
102
 11
-8.515452612000001
 21
3.238346789000000
 31
198.180000000000007
 62
102
 12
-8.538973757315837
 22
0.304281028000000
 32
198.141712352799658
 62
102
 13
-9.029680943000001
 23
0.304281028000000
 33
198.134672671082086
 62
102
  8
Verschneidung_Test
  0
3DFACE
 10
-6.747485959556164
 20
0.304281028000000
 30
198.127815312227710
 62
102
 11
-8.515452612000001
 21
3.238346789000000
 31
198.180000000000007
 62
102
 12
-8.538973757315837
 22
0.304281028000000
 32
198.141712352799658
 62
102
 13
-6.747485959556164
 23
0.304281028000000
 33
198.127815312227710
 62
102
  8
Verschneidung_Test
  0
3DFACE
 10
7.122896292000000
 20
-0.067195026000000
 30
198.214405753216539
 62
102
 11
4.403643530000000
 21
0.602466040000000
 31
198.280000000000001
 62
102
 12
9.008409142000000
 22
0.750992626000000
 32
198.229999999999990
 62
102
 13
7.122896292000000
 23
-0.067195026000000
 33
198.214405753216539
 62
102
  8
Verschneidung_Test
  0
3DFACE
 10
7.122896292000000
 20
-0.067195026000000
 30
198.214405753216539
 62
102
 11
4.403643530000000
 21
0.602466040000000
 31
198.280000000000001
 62
102
 12
4.247058732476406
 22
0.061870629445443
 32
198.256196361730304
 62
102
 13
7.122896292000000
 23
-0.067195026000000
 33
198.214405753216539
 62
102
  8
Verschneidung_Test
  0
3DFACE
 10
0.355931455039847
 20
0.236501804568974
 30
198.173649183989170
 62
102
 11
4.403643530000000
 21
0.602466040000000
 31
198.280000000000001
 62
102
 12
3.924190106209953
 22
0.076360756237846
 32
198.260318207583111
 62
102
 13
0.355931455039847
 23
0.236501804568974
 33
198.173649183989170
 62
102
  8
Verschneidung_Test
  0
3DFACE
 10
4.247058732476406
 20
0.061870629445443
 30
198.256196361730304
 62
102
 11
4.403643530000000
 21
0.602466040000000
 31
198.280000000000001
 62
102
 12
3.924190106209953
 22
0.076360756237846
 32
198.260318207583111
 62
102
 13
4.247058732476406
 23
0.061870629445443
 33
198.256196361730304
 62
102
  8
Verschneidung_Test
  0
3DFACE
 10
0.355931455039847
 20
0.236501804568974
 30
198.173649183989170
 62
102
 11
0.555413274788349
 21
2.093916179302827
 31
198.205883441171977
 62
102
 12
-0.053630986282963
 22
0.254882691472726
 32
198.163701369001444
 62
102
 13
0.355931455039847
 23
0.236501804568974
 33
198.173649183989170
 62
102
  8
Verschneidung_Test
  0
3DFACE
 10
-1.154323429000000
 20
0.304281028000000
 30
198.136966776973992
 62
102
 11
0.555413274788349
 21
2.093916179302827
 31
198.205883441171977
 62
102
 12
-0.053630986282963
 22
0.254882691472726
 32
198.163701369001444
 62
102
 13
-1.154323429000000
 23
0.304281028000000
 33
198.136966776973992
 62
102
  8
Verschneidung_Test
  0
3DFACE
 10
16.910412170000001
 20
-0.102269358000000
 30
198.137999428200118
 62
102
 11
11.375346055230708
 21
-0.082434013774634
 31
198.194344769210346
 62
102
 12
20.108911299999999
 22
3.066043008000000
 32
198.150000000000006
 62
102
 13
16.910412170000001
 23
-0.102269358000000
 33
198.137999428200118
 62
102
  8
Verschneidung_Test
  0
3DFACE
 10
7.122896292000000
 20
-0.067195026000000
 30
198.214405753216539
 62
102
 11
9.008409142000000
 21
0.750992626000000
 31
198.229999999999990
 62
102
 12
8.279409572862200
 22
-0.071339482191029
 32
198.199874128034708
 62
102
 13
7.122896292000000
 23
-0.067195026000000
 33
198.214405753216539
 62
102
  8
Verschneidung_Test
  0
3DFACE
 10
11.375346055230708
 20
-0.082434013774634
 30
198.194344769210346
 62
102
 11
9.008409142000000
 21
0.750992626000000
 31
198.229999999999990
 62
102
 12
9.543555755259586
 22
-0.075869649339733
 32
198.212991854352765
 62
102
 13
11.375346055230708
 23
-0.082434013774634
 33
198.194344769210346
 62
102
  8
Verschneidung_Test
  0
3DFACE
 10
8.279409572862200
 20
-0.071339482191029
 30
198.199874128034708
 62
102
 11
9.008409142000000
 21
0.750992626000000
 31
198.229999999999990
 62
102
 12
9.543555755259586
 22
-0.075869649339733
 32
198.212991854352765
 62
102
 13
8.279409572862200
 23
-0.071339482191029
 33
198.199874128034708
 62
102
  8
Verschneidung_Test
  0
3DFACE
 10
28.292229192531817
 20
8.476788873874954
 30
198.374194148033126
 62
102
 11
24.528265019999999
 21
5.229477732000000
 31
198.340000000000003
 62
102
 12
31.711291286116296
 22
0.183102744383515
 32
198.230073853183171
 62
102
 13
28.292229192531817
 23
8.476788873874954
 33
198.374194148033126
 62
102
  8
Verschneidung_Test
  0
3DFACE
 10
28.449105596843033
 20
2.165644601820142
 30
198.234274894729026
 62
102
 11
24.528265019999999
 21
5.229477732000000
 31
198.340000000000003
 62
102
 12
31.711291286116296
 22
0.183102744383515
 32
198.230073853183171
 62
102
 13
28.449105596843033
 23
2.165644601820142
 33
198.234274894729026
 62
102
  8
Verschneidung_Test
  0
3DFACE
 10
28.922464005399934
 20
0.661205707865727
 30
198.200319423713182
 62
102
 11
20.108911299999999
 21
3.066043008000000
 31
198.150000000000006
 62
102
 12
20.117482029692674
 22
-0.040434634456129
 32
198.098169149505566
 62
102
 13
28.922464005399934
 23
0.661205707865727
 33
198.200319423713182
 62
102
  8
Verschneidung_Test
  0
3DFACE
 10
16.910412170000001
 20
-0.102269358000000
 30
198.137999428200118
 62
102
 11
20.108911299999999
 21
3.066043008000000
 31
198.150000000000006
 62
102
 12
18.986658883774805
 22
-0.062237756827634
 32
198.117529106307558
 62
102
 13
16.910412170000001
 23
-0.102269358000000
 33
198.137999428200118
 62
102
  8
Verschneidung_Test
  0
3DFACE
 10
20.117482029692674
 20
-0.040434634456129
 30
198.098169149505566
 62
102
 11
20.108911299999999
 21
3.066043008000000
 31
198.150000000000006
 62
102
 12
18.986658883774805
 22
-0.062237756827634
 32
198.117529106307558
 62
102
 13
20.117482029692674
 23
-0.040434634456129
 33
198.098169149505566
 62
102
  8
Verschneidung_Test
  0
3DFACE
 10
31.370041649534613
 20
7.078944611987612
 30
198.339003199596789
 62
102
 11
28.292229192531817
 21
8.476788873874954
 31
198.374194148033126
 62
102
 12
32.150270992205890
 22
0.191566603904812
 32
198.228292883128262
 62
102
 13
31.370041649534613
 23
7.078944611987612
 33
198.339003199596789
 62
102
  8
Verschneidung_Test
  0
3DFACE
 10
31.711291286116296
 20
0.183102744383515
 30
198.230073853183171
 62
102
 11
28.292229192531817
 21
8.476788873874954
 31
198.374194148033126
 62
102
 12
32.150270992205890
 22
0.191566603904812
 32
198.228292883128262
 62
102
 13
31.711291286116296
 23
0.183102744383515
 33
198.230073853183171
 62
102
  8
Verschneidung_Test
  0
3DFACE
 10
33.326572753156825
 20
6.232961367127096
 30
198.317296613392756
 62
102
 11
31.370041649534613
 21
7.078944611987612
 31
198.339003199596789
 62
102
 12
32.305184496857763
 22
0.194553453007708
 32
198.227664388669297
 62
102
 13
33.326572753156825
 23
6.232961367127096
 33
198.317296613392756
 62
102
  8
Verschneidung_Test
  0
3DFACE
 10
32.150270992205890
 20
0.191566603904812
 30
198.228292883128262
 62
102
 11
31.370041649534613
 21
7.078944611987612
 31
198.339003199596789
 62
102
 12
32.305184496857763
 22
0.194553453007708
 32
198.227664388669297
 62
102
 13
32.150270992205890
 23
0.191566603904812
 33
198.228292883128262
 62
102
  8
Verschneidung_Test
  0
3DFACE
 10
28.922464005399934
 20
0.661205707865727
 30
198.200319423713182
 62
102
 11
28.449105596843033
 21
2.165644601820142
 31
198.234274894729026
 62
102
 12
31.630521178932746
 22
0.181545435853671
 32
198.222690933277221
 62
102
 13
28.922464005399934
 23
0.661205707865727
 33
198.200319423713182
 62
102
  8
Verschneidung_Test
  0
3DFACE
 10
31.711291286116296
 20
0.183102744383515
 30
198.230073853183171
 62
102
 11
28.449105596843033
 21
2.165644601820142
 31
198.234274894729026
 62
102
 12
31.630521178932746
 22
0.181545435853671
 32
198.222690933277221
 62
102
 13
31.711291286116296
 23
0.183102744383515
 33
198.230073853183171
 62
102
  8
Verschneidung_Test
  0
3DFACE
 10
28.672647292946351
 20
0.124515398461492
 30
198.188784146380613
 62
102
 11
28.922464005399934
 21
0.661205707865727
 31
198.200319423713182
 62
102
 12
30.743091820084100
 22
0.164435129103328
 32
198.210713976907954
 62
102
 13
28.672647292946351
 23
0.124515398461492
 33
198.188784146380613
 62
102
  8
Verschneidung_Test
  0
3DFACE
 10
31.630521178932746
 20
0.181545435853671
 30
198.222690933277221
 62
102
 11
28.922464005399934
 21
0.661205707865727
 31
198.200319423713182
 62
102
 12
30.743091820084100
 22
0.164435129103328
 32
198.210713976907954
 62
102
 13
31.630521178932746
 23
0.181545435853671
 33
198.222690933277221
 62
102
  8
Verschneidung_Test
  0
3DFACE
 10
28.672647292946351
 20
0.124515398461492
 30
198.188784146380613
 62
102
 11
28.922464005399934
 21
0.661205707865727
 31
198.200319423713182
 62
102
 12
28.456111782620781
 22
0.120340430654680
 32
198.186490635502935
 62
102
 13
28.672647292946351
 23
0.124515398461492
 33
198.188784146380613
 62
102
  8
Verschneidung_Test
  0
3DFACE
 10
20.117482029692674
 20
-0.040434634456129
 30
198.098169149505566
 62
102
 11
28.922464005399934
 21
0.661205707865727
 31
198.200319423713182
 62
102
 12
28.456111782620781
 22
0.120340430654680
 32
198.186490635502935
 62
102
 13
20.117482029692674
 23
-0.040434634456129
 33
198.098169149505566
 62
102
  8
Verschneidung_Test
  0
3DFACE
 10
37.884714299999999
 20
0.302130992000000
 30
198.182974153716600
 62
102
 11
33.326572753156825
 21
6.232961367127096
 31
198.317296613392756
 62
102
 12
32.439582364445485
 22
0.197144745168702
 32
198.227119127523281
 62
102
 13
37.884714299999999
 23
0.302130992000000
 33
198.182974153716600
 62
102
  8
Verschneidung_Test
  0
3DFACE
 10
32.305184496857763
 20
0.194553453007708
 30
198.227664388669297
 62
102
 11
33.326572753156825
 21
6.232961367127096
 31
198.317296613392756
 62
102
 12
32.439582364445485
 22
0.197144745168702
 32
198.227119127523281
 62
102
 13
32.305184496857763
 23
0.194553453007708
 33
198.227664388669297
 62
102
  8
Verschneidung_Test
  0
3DFACE
 10
34.230602810000001
 20
13.272459440000000
 30
198.423037954917817
 62
102
 11
33.326572753156825
 21
6.232961367127096
 31
198.317296613392756
 62
102
 12
31.370041649534613
 22
7.078944611987612
 32
198.339003199596789
 62
102
 13
34.230602810000001
 23
13.272459440000000
 33
198.423037954917817
 62
102
  8
Verschneidung_Test
  0
3DFACE
 10
34.230602810000001
 20
13.272459440000000
 30
198.423037954917817
 62
102
 11
33.326572753156825
 21
6.232961367127096
 31
198.317296613392756
 62
102
 12
34.316337788325605
 22
12.968141733381458
 32
198.417922870011722
 62
102
 13
34.230602810000001
 23
13.272459440000000
 33
198.423037954917817
 62
102
  8
Verschneidung_Test
  0
3DFACE
 10
37.884714299999999
 20
0.302130992000000
 30
198.182974153716600
 62
102
 11
33.326572753156825
 21
6.232961367127096
 31
198.317296613392756
 62
102
 12
37.766204970916384
 22
0.722781792221378
 32
198.190777034002963
 62
102
 13
37.884714299999999
 23
0.302130992000000
 33
198.182974153716600
 62
102
  8
Verschneidung_Test
  0
3DFACE
 10
34.316337788325605
 20
12.968141733381458
 30
198.417922870011722
 62
102
 11
33.326572753156825
 21
6.232961367127096
 31
198.317296613392756
 62
102
 12
37.664744724299439
 22
1.082916595617003
 32
198.197457370178142
 62
102
 13
34.316337788325605
 23
12.968141733381458
 33
198.417922870011722
 62
102
  8
Verschneidung_Test
  0
3DFACE
 10
37.766204970916384
 20
0.722781792221378
 30
198.190777034002963
 62
102
 11
33.326572753156825
 21
6.232961367127096
 31
198.317296613392756
 62
102
 12
37.664744724299439
 22
1.082916595617003
 32
198.197457370178142
 62
102
 13
37.766204970916384
 23
0.722781792221378
 33
198.190777034002963
 62
102
  8
Verschneidung_Test
  0
3DFACE
 10
34.230602810000001
 20
13.272459440000000
 30
198.423037954917817
 62
102
 11
31.370041649534613
 21
7.078944611987612
 31
198.339003199596789
 62
102
 12
34.205352734057747
 22
13.274409445864848
 32
198.423178364049988
 62
102
 13
34.230602810000001
 23
13.272459440000000
 33
198.423037954917817
 62
102
  8
Verschneidung_Test
  0
3DFACE
 10
33.882096061679192
 20
13.299373822543588
 30
198.424975910676892
 62
102
 11
31.370041649534613
 21
7.078944611987612
 31
198.339003199596789
 62
102
 12
34.205352734057747
 22
13.274409445864848
 32
198.423178364049988
 62
102
 13
33.882096061679192
 23
13.299373822543588
 33
198.424975910676892
 62
102
  8
Verschneidung_Test
  0
3DFACE
 10
29.280602810000001
 20
9.252459437000001
 30
198.381972860144629
 62
102
 11
31.370041649534613
 21
7.078944611987612
 31
198.339003199596789
 62
102
 12
28.292229192531817
 22
8.476788873874954
 32
198.374194148033126
 62
102
 13
29.280602810000001
 23
9.252459437000001
 33
198.381972860144629
 62
102
  8
Verschneidung_Test
  0
3DFACE
 10
29.280602810000001
 20
9.252459437000001
 30
198.381972860144629
 62
102
 11
33.882096061679192
 21
13.299373822543588
 31
198.424975910676892
 62
102
 12
31.370041649534613
 22
7.078944611987612
 32
198.339003199596789
 62
102
 13
29.280602810000001
 23
9.252459437000001
 33
198.381972860144629
 62
102
  8
Verschneidung_Test
  0
3DFACE
 10
29.180602810000000
 20
13.662459439999999
 30
198.420979507992570
 62
102
 11
33.878866367011312
 21
13.299623244508037
 31
198.424973165344767
 62
102
 12
29.278263551317725
 22
9.355620744958651
 32
198.383398438223253
 62
102
 13
29.180602810000000
 23
13.662459439999999
 33
198.420979507992570
 62
102
  8
Verschneidung_Test
  0
3DFACE
 10
33.882096061679192
 20
13.299373822543588
 30
198.424975910676892
 62
102
 11
33.878866367011312
 21
13.299623244508037
 31
198.424973165344767
 62
102
 12
29.278877557588192
 22
9.328543068412595
 32
198.383162160962002
 62
102
 13
33.882096061679192
 23
13.299373822543588
 33
198.424975910676892
 62
102
  8
Verschneidung_Test
  0
3DFACE
 10
29.278263551317725
 20
9.355620744958651
 30
198.383398438223253
 62
102
 11
33.878866367011312
 21
13.299623244508037
 31
198.424973165344767
 62
102
 12
29.278877557588192
 22
9.328543068412595
 32
198.383162160962002
 62
102
 13
29.278263551317725
 23
9.355620744958651
 33
198.383398438223253
 62
102
  8
Verschneidung_Test
  0
3DFACE
 10
29.280602810000001
 20
9.252459437000001
 30
198.381972860144629
 62
102
 11
33.882096061679192
 21
13.299373822543588
 31
198.424975910676892
 62
102
 12
29.278889481869484
 22
9.328017207607104
 32
198.383157572350029
 62
102
 13
29.280602810000001
 23
9.252459437000001
 33
198.381972860144629
 62
102
  8
Verschneidung_Test
  0
3DFACE
 10
29.278877557588192
 20
9.328543068412595
 30
198.383162160962002
 62
102
 11
33.882096061679192
 21
13.299373822543588
 31
198.424975910676892
 62
102
 12
29.278889481869484
 22
9.328017207607104
 32
198.383157572350029
 62
102
 13
29.278877557588192
 23
9.328543068412595
 33
198.383162160962002
 62
102
  8
Verschneidung_Test
  0
3DFACE
 10
14.740602810000000
 20
9.172459437000001
 30
198.358588634051642
 62
102
 11
15.287976983957977
 21
6.832739134177002
 31
198.342069018150028
 62
102
 12
12.287380110505007
 22
6.196901109757835
 32
198.325591566997275
 62
102
 13
14.740602810000000
 23
9.172459437000001
 33
198.358588634051642
 62
102
  8
Verschneidung_Test
  0
3DFACE
 10
17.919923683771049
 20
7.657374995242963
 30
198.358644329165003
 62
102
 11
17.939345960000001
 21
5.303185391000000
 31
198.340000000000003
 62
102
 12
17.907280357227858
 22
9.189882697232342
 32
198.370781235212121
 62
102
 13
17.919923683771049
 23
7.657374995242963
 33
198.358644329165003
 62
102
  8
Verschneidung_Test
  0
3DFACE
 10
17.919923683771049
 20
7.657374995242963
 30
198.358644329165003
 62
102
 11
17.939345960000001
 21
5.303185391000000
 31
198.340000000000003
 62
102
 12
17.907280357227858
 22
9.189882697232342
 32
198.370781235212121
 62
102
 13
17.919923683771049
 23
7.657374995242963
 33
198.358644329165003
 62
102
  8
Verschneidung_Test
  0
3DFACE
 10
17.919923683771049
 20
7.657374995242963
 30
198.358644329165003
 62
102
 11
15.287976983957977
 21
6.832739134177002
 31
198.342069018150028
 62
102
 12
15.898107324693921
 22
9.178828100079471
 32
198.363045352703466
 62
102
 13
17.919923683771049
 23
7.657374995242963
 33
198.358644329165003
 62
102
  8
Verschneidung_Test
  0
3DFACE
 10
14.740602810000000
 20
9.172459437000001
 30
198.358588634051642
 62
102
 11
15.287976983957977
 21
6.832739134177002
 31
198.342069018150028
 62
102
 12
15.898107324693921
 22
9.178828100079471
 32
198.363045352703466
 62
102
 13
14.740602810000000
 23
9.172459437000001
 33
198.358588634051642
 62
102
  8
Verschneidung_Test
  0
3DFACE
 10
23.061548800976485
 20
7.739864913935902
 30
198.359753238359900
 62
102
 11
28.239842139947768
 21
8.465403352564334
 31
198.374014431704040
 62
102
 12
27.256525484307396
 22
9.241322835483123
 32
198.379310776691852
 62
102
 13
23.061548800976485
 23
7.739864913935902
 33
198.359753238359900
 62
102
  8
Verschneidung_Test
  0
3DFACE
 10
23.061548800976485
 20
7.739864913935902
 30
198.359753238359900
 62
102
 11
17.919923683771049
 21
7.657374995242963
 31
198.358644329165003
 62
102
 12
17.907280357227858
 22
9.189882697232342
 32
198.370781235212121
 62
102
 13
23.061548800976485
 23
7.739864913935902
 33
198.359753238359900
 62
102
  8
Verschneidung_Test
  0
3DFACE
 10
15.898107324693921
 20
9.178828100079471
 30
198.363045352703466
 62
102
 11
17.919923683771049
 21
7.657374995242963
 31
198.358644329165003
 62
102
 12
17.907280357227858
 22
9.189882697232342
 32
198.370781235212121
 62
102
 13
15.898107324693921
 23
9.178828100079471
 33
198.363045352703466
 62
102
  8
Verschneidung_Test
  0
3DFACE
 10
27.256525484307396
 20
9.241322835483123
 30
198.379310776691852
 62
102
 11
23.061548800976485
 21
7.739864913935902
 31
198.359753238359900
 62
102
 12
22.200561600495654
 22
9.213504602284708
 32
198.371348723004672
 62
102
 13
27.256525484307396
 23
9.241322835483123
 33
198.379310776691852
 62
102
  8
Verschneidung_Test
  0
3DFACE
 10
17.907280357227858
 20
9.189882697232342
 30
198.370781235212121
 62
102
 11
23.061548800976485
 21
7.739864913935902
 31
198.359753238359900
 62
102
 12
22.200561600495654
 22
9.213504602284708
 32
198.371348723004672
 62
102
 13
17.907280357227858
 23
9.189882697232342
 33
198.370781235212121
 62
102
  8
Verschneidung_Test
  0
3DFACE
 10
27.256525484307396
 20
9.241322835483123
 30
198.379310776691852
 62
102
 11
28.239842139947768
 21
8.465403352564334
 31
198.374014431704040
 62
102
 12
28.381417890465546
 22
9.247512064677942
 32
198.381082239846251
 62
102
 13
27.256525484307396
 23
9.241322835483123
 33
198.379310776691852
 62
102
  8
Verschneidung_Test
  0
3DFACE
 10
28.292229192531817
 20
8.476788873874954
 30
198.374194148033126
 62
102
 11
24.528265019999999
 21
5.229477732000000
 31
198.340000000000003
 62
102
 12
29.190737220926223
 22
9.251964990842787
 32
198.382356743404273
 62
102
 13
28.292229192531817
 23
8.476788873874954
 33
198.374194148033126
 62
102
  8
Verschneidung_Test
  0
3DFACE
 10
28.292229192531817
 20
8.476788873874954
 30
198.374194148033126
 62
102
 11
24.528265019999999
 21
5.229477732000000
 31
198.340000000000003
 62
102
 12
29.190737220926223
 22
9.251964990842787
 32
198.382356743404273
 62
102
 13
28.292229192531817
 23
8.476788873874954
 33
198.374194148033126
 62
102
  8
Verschneidung_Test
  0
3DFACE
 10
28.292229192531817
 20
8.476788873874954
 30
198.374194148033126
 62
102
 11
28.239842139947768
 21
8.465403352564334
 31
198.374014431704040
 62
102
 12
29.157135456365815
 22
9.251780111808065
 32
198.382303827865400
 62
102
 13
28.292229192531817
 23
8.476788873874954
 33
198.374194148033126
 62
102
  8
Verschneidung_Test
  0
3DFACE
 10
28.381417890465546
 20
9.247512064677942
 30
198.381082239846251
 62
102
 11
28.239842139947768
 21
8.465403352564334
 31
198.374014431704040
 62
102
 12
29.157135456365815
 22
9.251780111808065
 32
198.382303827865400
 62
102
 13
28.381417890465546
 23
9.247512064677942
 33
198.381082239846251
 62
102
  8
Verschneidung_Test
  0
3DFACE
 10
29.157135456365815
 20
9.251780111808065
 30
198.382303827865400
 62
102
 11
28.292229192531817
 21
8.476788873874954
 31
198.374194148033126
 62
102
 12
29.161784834995746
 22
9.251805692983471
 32
198.382311149634944
 62
102
 13
29.157135456365815
 23
9.251780111808065
 33
198.382303827865400
 62
102
  8
Verschneidung_Test
  0
3DFACE
 10
29.161784834995746
 20
9.251805692983471
 30
198.382311149634944
 62
102
 11
28.292229192531817
 21
8.476788873874954
 31
198.374194148033126
 62
102
 12
29.190168014963746
 22
9.251961859035564
 32
198.382355847027526
 62
102
 13
29.161784834995746
 23
9.251805692983471
 33
198.382311149634944
 62
102
  8
Verschneidung_Test
  0
3DFACE
 10
29.280602810000001
 20
9.252459437000001
 30
198.381972860144629
 62
102
 11
28.292229192531817
 21
8.476788873874954
 31
198.374194148033126
 62
102
 12
29.190737220926223
 22
9.251964990842787
 32
198.382356743404273
 62
102
 13
29.280602810000001
 23
9.252459437000001
 33
198.381972860144629
 62
102
  8
Verschneidung_Test
  0
3DFACE
 10
29.190168014963746
 20
9.251961859035564
 30
198.382355847027526
 62
102
 11
28.292229192531817
 21
8.476788873874954
 31
198.374194148033126
 62
102
 12
29.190737220926223
 22
9.251964990842787
 32
198.382356743404273
 62
102
 13
29.190168014963746
 23
9.251961859035564
 33
198.382355847027526
 62
102
  8
Verschneidung_Test
  0
3DFACE
 10
14.820602810000000
 20
13.252459440000001
 30
198.391333408760062
 62
102
 11
12.287380110505007
 21
6.196901109757835
 31
198.325591566997275
 62
102
 12
8.880313475742325
 22
6.663709018965782
 32
198.316334058855404
 62
102
 13
14.820602810000000
 23
13.252459440000001
 33
198.391333408760062
 62
102
  8
Verschneidung_Test
  0
3DFACE
 10
14.740602810000000
 20
9.172459437000001
 30
198.358588634051642
 62
102
 11
12.287380110505007
 21
6.196901109757835
 31
198.325591566997275
 62
102
 12
14.774110498875961
 22
10.881351570930534
 32
198.372303655592191
 62
102
 13
14.740602810000000
 23
9.172459437000001
 33
198.358588634051642
 62
102
  8
Verschneidung_Test
  0
3DFACE
 10
14.820602810000000
 20
13.252459440000001
 30
198.391333408760062
 62
102
 11
12.287380110505007
 21
6.196901109757835
 31
198.325591566997275
 62
102
 12
14.774110498875961
 22
10.881351570930534
 32
198.372303655592191
 62
102
 13
14.820602810000000
 23
13.252459440000001
 33
198.391333408760062
 62
102
  8
Verschneidung_Test
  0
3DFACE
 10
2.653279946018361
 20
7.048063804468619
 30
198.296838489671472
 62
102
 11
2.399283346424278
 21
7.038497285338639
 31
198.295868078283092
 62
102
 12
12.367537933281016
 22
13.252459439999999
 32
198.382429941751212
 62
102
 13
2.653279946018361
 23
7.048063804468619
 33
198.296838489671472
 62
102
  8
Verschneidung_Test
  0
3DFACE
 10
10.600614810000000
 20
13.252459440000001
 30
198.376231852987559
 62
102
 11
2.399283346424278
 21
7.038497285338639
 31
198.295868078283092
 62
102
 12
12.367537933281016
 22
13.252459439999999
 32
198.382429941751212
 62
102
 13
10.600614810000000
 23
13.252459440000001
 33
198.376231852987559
 62
102
  8
Verschneidung_Test
  0
3DFACE
 10
6.191816362895985
 20
6.778469581648226
 30
198.307012667274336
 62
102
 11
2.653279946018361
 21
7.048063804468619
 31
198.296838489671472
 62
102
 12
12.452259732105130
 22
13.252459439999999
 32
198.382727132513139
 62
102
 13
6.191816362895985
 23
6.778469581648226
 33
198.307012667274336
 62
102
  8
Verschneidung_Test
  0
3DFACE
 10
12.367537933281016
 20
13.252459439999999
 30
198.382429941751212
 62
102
 11
2.653279946018361
 21
7.048063804468619
 31
198.296838489671472
 62
102
 12
12.452259732105130
 22
13.252459439999999
 32
198.382727132513139
 62
102
 13
12.367537933281016
 23
13.252459439999999
 33
198.382429941751212
 62
102
  8
Verschneidung_Test
  0
3DFACE
 10
6.191816362895985
 20
6.778469581648226
 30
198.307012667274336
 62
102
 11
8.880313475742325
 21
6.663709018965782
 31
198.316334058855404
 62
102
 12
14.785166013487663
 22
13.252459439999999
 32
198.391198517363193
 62
102
 13
6.191816362895985
 23
6.778469581648226
 33
198.307012667274336
 62
102
  8
Verschneidung_Test
  0
3DFACE
 10
14.820602810000000
 20
13.252459440000001
 30
198.391333408760062
 62
102
 11
8.880313475742325
 21
6.663709018965782
 31
198.316334058855404
 62
102
 12
14.785166013487663
 22
13.252459439999999
 32
198.391198517363193
 62
102
 13
14.820602810000000
 23
13.252459440000001
 33
198.391333408760062
 62
102
  8
Verschneidung_Test
  0
3DFACE
 10
12.452259732105130
 20
13.252459439999999
 30
198.382727132513139
 62
102
 11
6.191816362895985
 21
6.778469581648226
 31
198.307012667274336
 62
102
 12
13.821242480816720
 22
13.252459439999999
 32
198.387529308952310
 62
102
 13
12.452259732105130
 23
13.252459439999999
 33
198.382727132513139
 62
102
  8
Verschneidung_Test
  0
3DFACE
 10
14.785166013487663
 20
13.252459439999999
 30
198.391198517363193
 62
102
 11
6.191816362895985
 21
6.778469581648226
 31
198.307012667274336
 62
102
 12
13.821242480816720
 22
13.252459439999999
 32
198.387529308952310
 62
102
 13
14.785166013487663
 23
13.252459439999999
 33
198.391198517363193
 62
102
  8
Verschneidung_Test
  0
3DFACE
 10
-1.244156368000000
 20
13.252459440000001
 30
198.334682256302244
 62
102
 11
2.399283346424278
 21
7.038497285338639
 31
198.295868078283092
 62
102
 12
10.600614810000000
 22
13.252459440000001
 32
198.376231852987559
 62
102
 13
-1.244156368000000
 23
13.252459440000001
 33
198.334682256302244
 62
102
  8
Verschneidung_Test
  0
3DFACE
 10
-9.298681090000001
 20
13.252459440000001
 30
198.298114935952867
 62
102
 11
-0.344368563000000
 21
5.359434138000000
 31
198.250000000000000
 62
102
 12
-10.229158699999999
 22
11.997972190000000
 32
198.280000000000001
 62
102
 13
-9.298681090000001
 23
13.252459440000001
 33
198.298114935952867
 62
102
  8
Verschneidung_Test
  0
3DFACE
 10
2.399283346424278
 20
7.038497285338639
 30
198.295868078283092
 62
102
 11
-0.344368563000000
 21
5.359434138000000
 31
198.250000000000000
 62
102
 12
-7.381514741785789
 22
13.252459440000001
 32
198.306641460144732
 62
102
 13
2.399283346424278
 23
7.038497285338639
 33
198.295868078283092
 62
102
  8
Verschneidung_Test
  0
3DFACE
 10
-9.298681090000001
 20
13.252459440000001
 30
198.298114935952867
 62
102
 11
-0.344368563000000
 21
5.359434138000000
 31
198.250000000000000
 62
102
 12
-7.381514741785789
 22
13.252459440000001
 32
198.306641460144732
 62
102
 13
-9.298681090000001
 23
13.252459440000001
 33
198.298114935952867
 62
102
  8
Verschneidung_Test
  0
3DFACE
 10
-1.244156368000000
 20
13.252459440000001
 30
198.334682256302244
 62
102
 11
2.399283346424278
 21
7.038497285338639
 31
198.295868078283092
 62
102
 12
-5.923764565419312
 22
13.252459440000001
 32
198.318266925830585
 62
102
 13
-1.244156368000000
 23
13.252459440000001
 33
198.334682256302244
 62
102
  8
Verschneidung_Test
  0
3DFACE
 10
-7.381514741785789
 20
13.252459440000001
 30
198.306641460144732
 62
102
 11
2.399283346424278
 21
7.038497285338639
 31
198.295868078283092
 62
102
 12
-5.923764565419312
 22
13.252459440000001
 32
198.318266925830585
 62
102
 13
-7.381514741785789
 23
13.252459440000001
 33
198.306641460144732
 62
102
  8
Verschneidung_Test
  0
3DFACE
 10
-12.714896670000000
 20
12.040449649999999
 30
198.259999999999991
 62
102
 11
-10.229158699999999
 21
11.997972190000000
 31
198.280000000000001
 62
102
 12
-10.244299189764355
 22
13.252459440000001
 32
198.293909335530429
 62
102
 13
-12.714896670000000
 23
12.040449649999999
 33
198.259999999999991
 62
102
  8
Verschneidung_Test
  0
3DFACE
 10
-9.298681090000001
 20
13.252459440000001
 30
198.298114935952867
 62
102
 11
-10.229158699999999
 21
11.997972190000000
 31
198.280000000000001
 62
102
 12
-10.244299189764355
 22
13.252459440000001
 32
198.293909335530429
 62
102
 13
-9.298681090000001
 23
13.252459440000001
 33
198.298114935952867
 62
102
  8
Verschneidung_Test
  0
3DFACE
 10
-10.244299189764355
 20
13.252459440000001
 30
198.293909335530429
 62
102
 11
-12.714896670000000
 21
12.040449649999999
 31
198.259999999999991
 62
102
 12
-12.055225899507029
 22
13.252459440000001
 32
198.278992604678848
 62
102
 13
-10.244299189764355
 23
13.252459440000001
 33
198.293909335530429
 62
102
  8
Verschneidung_Test
  0
3DFACE
 10
-12.737225539900546
 20
13.252459440000001
 30
198.273311377828065
 62
102
 11
-12.714896670000000
 21
12.040449649999999
 31
198.259999999999991
 62
102
 12
-12.055225899507029
 22
13.252459440000001
 32
198.278992604678848
 62
102
 13
-12.737225539900546
 23
13.252459440000001
 33
198.273311377828065
 62
102
  8
Verschneidung_Test
  0
3DFACE
 10
-17.162394259999999
 20
13.252459440000001
 30
198.254371194384646
 62
102
 11
-12.714896670000000
 21
12.040449649999999
 31
198.259999999999991
 62
102
 12
-14.599549364763549
 22
13.252459440000001
 32
198.265387272920321
 62
102
 13
-17.162394259999999
 23
13.252459440000001
 33
198.254371194384646
 62
102
  8
Verschneidung_Test
  0
3DFACE
 10
-12.737225539900546
 20
13.252459440000001
 30
198.273311377828065
 62
102
 11
-12.714896670000000
 21
12.040449649999999
 31
198.259999999999991
 62
102
 12
-14.599549364763549
 22
13.252459440000001
 32
198.265387272920321
 62
102
 13
-12.737225539900546
 23
13.252459440000001
 33
198.273311377828065
 62
102
  8
Verschneidung_Test
  0
3DFACE
 10
-21.257513260000000
 20
8.378059856000000
 30
198.229763116700582
 62
102
 11
-19.182442689999998
 21
3.531633096000000
 31
198.159999999999997
 62
102
 12
-21.266391310251574
 22
8.379711208681659
 32
198.229933116962258
 62
102
 13
-21.257513260000000
 23
8.378059856000000
 33
198.229763116700582
 62
102
  8
Verschneidung_Test
  0
3DFACE
 10
-21.257513260000000
 20
8.378059856000000
 30
198.229763116700582
 62
102
 11
-21.266391310251574
 21
8.379711208681659
 31
198.229933116962258
 62
102
 12
-21.258224604278816
 22
8.383978410389547
 32
198.229815692188822
 62
102
 13
-21.257513260000000
 23
8.378059856000000
 33
198.229763116700582
 62
102
  8
Verschneidung_Test
  0
3DFACE
 10
-21.836445000000001
 20
13.194910280000000
 30
198.080000000000013
 62
102
 11
-26.008179280000000
 21
6.182393549000000
 31
198.300000000000011
 62
102
 12
-21.514743833181718
 22
10.518279695209584
 32
198.248775040150434
 62
102
 13
-21.836445000000001
 23
13.194910280000000
 33
198.080000000000013
 62
102
  8
Verschneidung_Test
  0
3DFACE
 10
-21.266391310251574
 20
8.379711208681659
 30
198.229933116962258
 62
102
 11
-26.008179280000000
 21
6.182393549000000
 31
198.300000000000011
 62
102
 12
-21.514743833181718
 22
10.518279695209584
 32
198.248775040150434
 62
102
 13
-21.266391310251574
 23
8.379711208681659
 33
198.229933116962258
 62
102
  8
Verschneidung_Test
  0
3DFACE
 10
-21.258224604278816
 20
8.383978410389547
 30
198.229815692188822
 62
102
 11
-21.266391310251574
 21
8.379711208681659
 31
198.229933116962258
 62
102
 12
-21.259817610190595
 22
8.397232600255835
 32
198.229933431328760
 62
102
 13
-21.258224604278816
 23
8.383978410389547
 33
198.229815692188822
 62
102
  8
Verschneidung_Test
  0
3DFACE
 10
-21.514743833181718
 20
10.518279695209584
 30
198.248775040150434
 62
102
 11
-21.266391310251574
 21
8.379711208681659
 31
198.229933116962258
 62
102
 12
-21.259817610190595
 22
8.397232600255835
 32
198.229933431328760
 62
102
 13
-21.514743833181718
 23
10.518279695209584
 33
198.248775040150434
 62
102
  8
Verschneidung_Test
  0
3DFACE
 10
-17.725528546837946
 20
8.328699824745502
 30
198.211694471584991
 62
102
 11
-15.683026540000000
 21
5.387282868000000
 31
198.199999999999989
 62
102
 12
-19.182442689999998
 22
3.531633096000000
 32
198.159999999999997
 62
102
 13
-17.725528546837946
 23
8.328699824745502
 33
198.211694471584991
 62
102
  8
Verschneidung_Test
  0
3DFACE
 10
-15.683026540000000
 20
5.387282868000000
 30
198.199999999999989
 62
102
 11
-12.714896670000000
 21
12.040449649999999
 31
198.259999999999991
 62
102
 12
-17.296103160505211
 22
12.083376860773029
 32
198.240785967172258
 62
102
 13
-15.683026540000000
 23
5.387282868000000
 33
198.199999999999989
 62
102
  8
Verschneidung_Test
  0
3DFACE
 10
-17.162394259999999
 20
13.252459440000001
 30
198.254371194384646
 62
102
 11
-12.714896670000000
 21
12.040449649999999
 31
198.259999999999991
 62
102
 12
-17.296103160505211
 22
12.083376860773029
 32
198.240785967172258
 62
102
 13
-17.162394259999999
 23
13.252459440000001
 33
198.254371194384646
 62
102
  8
Verschneidung_Test
  0
3DFACE
 10
-17.725528546837946
 20
8.328699824745502
 30
198.211694471584991
 62
102
 11
-15.683026540000000
 21
5.387282868000000
 31
198.199999999999989
 62
102
 12
-17.692814679090056
 22
8.614733235675397
 32
198.214407849856201
 62
102
 13
-17.725528546837946
 23
8.328699824745502
 33
198.211694471584991
 62
102
  8
Verschneidung_Test
  0
3DFACE
 10
-17.296103160505211
 20
12.083376860773029
 30
198.240785967172258
 62
102
 11
-15.683026540000000
 21
5.387282868000000
 31
198.199999999999989
 62
102
 12
-17.692814679090056
 22
8.614733235675397
 32
198.214407849856201
 62
102
 13
-17.296103160505211
 23
12.083376860773029
 33
198.240785967172258
 62
102
  8
Verschneidung_Test
  0
3DFACE
 10
-17.725528546837946
 20
8.328699824745502
 30
198.211694471584991
 62
102
 11
-19.182442689999998
 21
3.531633096000000
 31
198.159999999999997
 62
102
 12
-19.567870711742838
 22
8.354446840722751
 32
198.199366045730358
 62
102
 13
-17.725528546837946
 23
8.328699824745502
 33
198.211694471584991
 62
102
  8
Verschneidung_Test
  0
3DFACE
 10
-21.257513260000000
 20
8.378059856000000
 30
198.229763116700582
 62
102
 11
-21.258224604278816
 21
8.383978410389547
 31
198.229815692188822
 62
102
 12
-21.255681759936834
 22
8.378034260504068
 32
198.229730167579220
 62
102
 13
-21.257513260000000
 23
8.378059856000000
 33
198.229763116700582
 62
102
  8
Verschneidung_Test
  0
3DFACE
 10
-21.257513260000000
 20
8.378059856000000
 30
198.229763116700582
 62
102
 11
-19.182442689999998
 21
3.531633096000000
 31
198.159999999999997
 62
102
 12
-21.255681759936834
 22
8.378034260504068
 32
198.229730167579220
 62
102
 13
-21.257513260000000
 23
8.378059856000000
 33
198.229763116700582
 62
102
  8
Verschneidung_Test
  0
3DFACE
 10
-19.567870711742838
 20
8.354446840722751
 30
198.199366045730358
 62
102
 11
-19.182442689999998
 21
3.531633096000000
 31
198.159999999999997
 62
102
 12
-21.255681759936834
 22
8.378034260504068
 32
198.229730167579220
 62
102
 13
-19.567870711742838
 23
8.354446840722751
 33
198.199366045730358
 62
102
  8
Verschneidung_Test
  0
ENDSEC
  0
EOF
