  0
SECTION
  2
ENTITIES
  0
INSERT
  5
78
  8
TB_44_PV-P-VERKEHRSWEG
  6
AUSGEZOGEN
 62
     7
  2
210015
 10
699.4557277469635
 20
1811.307118208885
 30
394.2149829825211
 41
0.5
 42
0.5
 43
0.5
  0
INSERT
  5
79
  8
TB_44_PV-P-VERKEHRSWEG
  6
AUSGEZOGEN
 62
     7
  2
210015
 10
693.2586227312088
 20
1820.458094163895
 30
394.276873616921
 41
0.5
 42
0.5
 43
0.5
  0
INSERT
  5
7A
  8
TB_44_PV-P-VERKEHRSWEG
  6
AUSGEZOGEN
 62
     7
  2
210015
 10
687.5657963237762
 20
1828.864425414085
 30
394.220019224921
 41
0.5
 42
0.5
 43
0.5
  0
INSERT
  5
7B
  8
TB_44_PV-P-VERKEHRSWEG
  6
AUSGEZOGEN
 62
     7
  2
210015
 10
691.702421959877
 20
1813.838717843056
 30
394.2002661592234
 41
0.5
 42
0.5
 43
0.5
  0
INSERT
  5
7C
  8
TB_44_PV-P-VERKEHRSWEG
  6
AUSGEZOGEN
 62
     7
  2
210015
 10
689.1184983081818
 20
1817.654637410164
 30
394.3154776592235
 41
0.5
 42
0.5
 43
0.5
  0
INSERT
  5
7D
  8
TB_44_PV-P-VERKEHRSWEG
  6
AUSGEZOGEN
 62
     7
  2
210015
 10
686.6873176336288
 20
1821.244987265587
 30
394.2070766342234
 41
0.5
 42
0.5
 43
0.5
  0
INSERT
  5
7E
  8
TB_44_PV-P-VERKEHRSWEG
  6
AUSGEZOGEN
 62
     7
  2
210015
 10
687.0232427015304
 20
1811.831333335876
 30
394.26083622859
 41
0.5
 42
0.5
 43
0.5
  0
INSERT
  5
7F
  8
TB_44_PV-P-VERKEHRSWEG
  6
AUSGEZOGEN
 62
     7
  2
210015
 10
684.978373878479
 20
1814.851180667877
 30
394.35201245359
 41
0.5
 42
0.5
 43
0.5
  0
INSERT
  5
80
  8
TB_44_PV-P-VERKEHRSWEG
  6
AUSGEZOGEN
 62
     7
  2
210015
 10
682.9862983140946
 20
1817.793063304901
 30
394.2631901643355
 41
0.5
 42
0.5
 43
0.5
  0
INSERT
  5
81
  8
TB_44_PV-P-VERKEHRSWEG
  6
AUSGEZOGEN
 62
     7
  2
210015
 10
682.8763164539338
 20
1809.037921466827
 30
394.2697289630084
 41
0.5
 42
0.5
 43
0.5
  0
INSERT
  5
82
  8
TB_44_PV-P-VERKEHRSWEG
  6
AUSGEZOGEN
 62
     7
  2
210015
 10
680.8382494487763
 20
1812.047723926544
 30
394.3606019098834
 41
0.5
 42
0.5
 43
0.5
  0
INSERT
  5
83
  8
TB_44_PV-P-VERKEHRSWEG
  6
AUSGEZOGEN
 62
     7
  2
210015
 10
678.8727548437118
 20
1814.950351995468
 30
394.2729648074696
 41
0.5
 42
0.5
 43
0.5
  0
INSERT
  5
84
  8
TB_44_PV-P-VERKEHRSWEG
  6
AUSGEZOGEN
 62
     7
  2
210015
 10
678.729390206337
 20
1806.244509597778
 30
394.2446997664576
 41
0.5
 42
0.5
 43
0.5
  0
INSERT
  5
85
  8
TB_44_PV-P-VERKEHRSWEG
  6
AUSGEZOGEN
 62
     7
  2
210015
 10
676.6981250200272
 20
1809.244267184258
 30
394.3352694352076
 41
0.5
 42
0.5
 43
0.5
  0
INSERT
  5
86
  8
TB_44_PV-P-VERKEHRSWEG
  6
AUSGEZOGEN
 62
     7
  2
210015
 10
674.7357052965165
 20
1812.142354290962
 30
394.2477694350441
 41
0.5
 42
0.5
 43
0.5
  0
INSERT
  5
87
  8
TB_44_PV-P-VERKEHRSWEG
  6
AUSGEZOGEN
 62
     7
  2
210015
 10
674.5824639596939
 20
1803.451097729683
 30
394.2113359005813
 41
0.5
 42
0.5
 43
0.5
  0
INSERT
  5
88
  8
TB_44_PV-P-VERKEHRSWEG
  6
AUSGEZOGEN
 62
     7
  2
210015
 10
672.558000588417
 20
1806.440810441971
 30
394.3016022912064
 41
0.5
 42
0.5
 43
0.5
  0
INSERT
  5
89
  8
TB_44_PV-P-VERKEHRSWEG
  6
AUSGEZOGEN
 62
     7
  2
210015
 10
670.5955808620453
 20
1809.338897554398
 30
394.2141022908579
 41
0.5
 42
0.5
 43
0.5
  0
INSERT
  5
8A
  8
TB_44_PV-P-VERKEHRSWEG
  6
AUSGEZOGEN
 62
     7
  2
210015
 10
670.4355377130508
 20
1800.657685860634
 30
394.177972034705
 41
0.5
 42
0.5
 43
0.5
  0
INSERT
  5
8B
  8
TB_44_PV-P-VERKEHRSWEG
  6
AUSGEZOGEN
 62
     7
  2
210015
 10
668.4178761587143
 20
1803.637353701592
 30
394.267935147205
 41
0.5
 42
0.5
 43
0.5
 50
304.0341476440429
  0
INSERT
  5
8C
  8
TB_44_PV-P-VERKEHRSWEG
  6
AUSGEZOGEN
 62
     7
  2
210015
 10
666.4554564285279
 20
1806.535440818787
 30
394.1804351466715
 41
0.5
 42
0.5
 43
0.5
  0
INSERT
  5
8D
  8
TB_44_PV-P-VERKEHRSWEG
  6
AUSGEZOGEN
 62
     7
  2
210015
 10
666.2886114654541
 20
1797.864273992539
 30
394.1446081688287
 41
0.5
 42
0.5
 43
0.5
  0
INSERT
  5
8E
  8
TB_44_PV-P-VERKEHRSWEG
  6
AUSGEZOGEN
 62
     7
  2
210015
 10
664.2777517290116
 20
1800.833896958351
 30
394.2342680032037
 41
0.5
 42
0.5
 43
0.5
  0
INSERT
  5
8F
  8
TB_44_PV-P-VERKEHRSWEG
  6
AUSGEZOGEN
 62
     7
  2
210015
 10
662.3153319931031
 20
1803.731984083176
 30
394.1467680024851
 41
0.5
 42
0.5
 43
0.5
  0
INSERT
  5
90
  8
TB_44_PV-P-VERKEHRSWEG
  6
AUSGEZOGEN
 62
     7
  2
210015
 10
662.1416852188111
 20
1795.070862123489
 30
394.1112443029523
 41
0.5
 42
0.5
 43
0.5
  0
INSERT
  5
91
  8
TB_44_PV-P-VERKEHRSWEG
  6
AUSGEZOGEN
 62
     7
  2
210015
 10
660.1376272983551
 20
1798.030440216065
 30
394.2006008592023
 41
0.5
 42
0.5
 43
0.5
  0
INSERT
  5
92
  8
TB_44_PV-P-VERKEHRSWEG
  6
AUSGEZOGEN
 62
     7
  2
210015
 10
658.1752075595856
 20
1800.928527346611
 30
394.1131008582989
 41
0.5
 42
0.5
 43
0.5
  0
INSERT
  5
93
  8
TB_44_PV-P-VERKEHRSWEG
  6
AUSGEZOGEN
 62
     7
  2
210015
 10
657.9947589731216
 20
1792.277450255394
 30
394.077880437076
 41
0.5
 42
0.5
 43
0.5
  0
INSERT
  5
94
  8
TB_44_PV-P-VERKEHRSWEG
  6
AUSGEZOGEN
 62
     7
  2
210015
 10
655.9975028686523
 20
1795.226983473778
 30
394.166933715201
 41
0.5
 42
0.5
 43
0.5
  0
INSERT
  5
95
  8
TB_44_PV-P-VERKEHRSWEG
  6
AUSGEZOGEN
 62
     7
  2
210015
 10
654.0350831251145
 20
1798.125070611
 30
394.0794337141127
 41
0.5
 42
0.5
 43
0.5
  0
INSERT
  5
96
  8
TB_44_PV-P-VERKEHRSWEG
  6
AUSGEZOGEN
 62
     7
  2
210015
 10
653.8478327264786
 20
1789.484038386345
 30
394.0433333333333
 41
0.5
 42
0.5
 43
0.5
  0
INSERT
  5
97
  8
TB_44_PV-P-VERKEHRSWEG
  6
AUSGEZOGEN
 62
     7
  2
210015
 10
651.8573784389496
 20
1792.423526732445
 30
394.1320833333333
 41
0.5
 42
0.5
 43
0.5
  0
INSERT
  5
98
  8
TB_44_PV-P-VERKEHRSWEG
  6
AUSGEZOGEN
 62
     7
  2
210015
 10
649.894958691597
 20
1795.321613875389
 30
394.04458333206
 41
0.5
 42
0.5
 43
0.5
  0
INSERT
  5
99
  8
TB_44_PV-P-VERKEHRSWEG
  6
AUSGEZOGEN
 62
     7
  2
210015
 10
649.7015059309006
 20
1786.689741252899
 30
394.0482632749481
 41
0.5
 42
0.5
 43
0.5
  0
INSERT
  5
9A
  8
TB_44_PV-P-VERKEHRSWEG
  6
AUSGEZOGEN
 62
     7
  2
210015
 10
647.7172540092469
 20
1789.620069990158
 30
394.0925
 41
0.5
 42
0.5
 43
0.5
  0
INSERT
  5
9B
  8
TB_44_PV-P-VERKEHRSWEG
  6
AUSGEZOGEN
 62
     7
  2
210015
 10
645.7548342571258
 20
1792.518157138825
 30
394.0049999985417
 41
0.5
 42
0.5
 43
0.5
  0
INSERT
  5
9C
  8
TB_44_PV-P-VERKEHRSWEG
  6
AUSGEZOGEN
 62
     7
  2
210015
 10
645.5551791343689
 20
1783.8954441185
 30
394.0529166666667
 41
0.5
 42
0.5
 43
0.5
  0
INSERT
  5
9D
  8
TB_44_PV-P-VERKEHRSWEG
  6
AUSGEZOGEN
 62
     7
  2
210015
 10
643.5771295785904
 20
1786.816613248825
 30
394.0529166666667
 41
0.5
 42
0.5
 43
0.5
  0
INSERT
  5
9E
  8
TB_44_PV-P-VERKEHRSWEG
  6
AUSGEZOGEN
 62
     7
  2
210015
 10
641.6147098236085
 20
1789.714700403214
 30
393.9654166650234
 41
0.5
 42
0.5
 43
0.5
  0
INSERT
  5
9F
  8
TB_44_PV-P-VERKEHRSWEG
  6
AUSGEZOGEN
 62
     7
  2
210015
 10
641.4088523397446
 20
1781.101146985054
 30
394.0572935084891
 41
0.5
 42
0.5
 43
0.5
  0
INSERT
  5
A0
  8
TB_44_PV-P-VERKEHRSWEG
  6
AUSGEZOGEN
 62
     7
  2
210015
 10
639.4370051488877
 20
1784.013156506539
 30
394.0133333333333
 41
0.5
 42
0.5
 43
0.5
  0
INSERT
  5
A1
  8
TB_44_PV-P-VERKEHRSWEG
  6
AUSGEZOGEN
 62
     7
  2
210015
 10
637.4745853881836
 20
1786.911243667603
 30
393.9258333315051
 41
0.5
 42
0.5
 43
0.5
  0
INSERT
  5
A2
  8
TB_44_PV-P-VERKEHRSWEG
  6
AUSGEZOGEN
 62
     7
  2
210015
 10
637.2440295724869
 20
1778.296186333656
 30
394.061393800415
 41
0.5
 42
0.5
 43
0.5
  0
INSERT
  5
A3
  8
TB_44_PV-P-VERKEHRSWEG
  6
AUSGEZOGEN
 62
     7
  2
210015
 10
635.2960555095673
 20
1781.210923758507
 30
393.97375
 41
0.5
 42
0.5
 43
0.5
  0
INSERT
  5
A4
  8
TB_44_PV-P-VERKEHRSWEG
  6
AUSGEZOGEN
 62
     7
  2
210015
 10
633.3512775173187
 20
1784.120878932953
 30
393.8862499979868
 41
0.5
 42
0.5
 43
0.5
  0
INSERT
  5
A5
  8
TB_44_PV-P-VERKEHRSWEG
  6
AUSGEZOGEN
 62
     7
  2
210015
 10
632.8141174812317
 20
1775.538601423264
 30
394.0274999975714
 41
0.5
 42
0.5
 43
0.5
  0
INSERT
  5
A6
  8
TB_44_PV-P-VERKEHRSWEG
  6
AUSGEZOGEN
 62
     7
  2
210015
 10
631.0548905010223
 20
1778.564344379425
 30
393.9399999976032
 41
0.5
 42
0.5
 43
0.5
  0
INSERT
  5
A7
  8
TB_44_PV-P-VERKEHRSWEG
  6
AUSGEZOGEN
 62
     7
  2
210015
 10
629.2956634778976
 20
1781.590087410927
 30
393.852499995405
 41
0.5
 42
0.5
 43
0.5
  0
INSERT
  5
A8
  8
TB_44_PV-P-VERKEHRSWEG
  6
AUSGEZOGEN
 62
     7
  2
210015
 10
628.2614215307236
 20
1773.071545403481
 30
394.0024999912532
 41
0.5
 42
0.5
 43
0.5
  0
INSERT
  5
A9
  8
TB_44_PV-P-VERKEHRSWEG
  6
AUSGEZOGEN
 62
     7
  2
210015
 10
626.6590621032715
 20
1776.183208008766
 30
393.9149999916111
 41
0.5
 42
0.5
 43
0.5
  0
INSERT
  5
AA
  8
TB_44_PV-P-VERKEHRSWEG
  6
AUSGEZOGEN
 62
     7
  2
210015
 10
625.0567026271821
 20
1779.294870711327
 30
393.827499989228
 41
0.5
 42
0.5
 43
0.5
  0
INSERT
  5
AB
  8
TB_44_PV-P-VERKEHRSWEG
  6
AUSGEZOGEN
 62
     7
  2
210015
 10
623.8161892137528
 20
1770.782460511208
 30
393.977499984935
 41
0.5
 42
0.5
 43
0.5
  0
INSERT
  5
AC
  8
TB_44_PV-P-VERKEHRSWEG
  6
AUSGEZOGEN
 62
     7
  2
210015
 10
622.2138297920227
 20
1773.894123103142
 30
393.889999985619
 41
0.5
 42
0.5
 43
0.5
  0
INSERT
  5
AD
  8
TB_44_PV-P-VERKEHRSWEG
  6
AUSGEZOGEN
 62
     7
  2
210015
 10
620.6114703121185
 20
1777.005785813332
 30
393.802499983051
 41
0.5
 42
0.5
 43
0.5
  0
INSERT
  5
AE
  8
TB_44_PV-P-VERKEHRSWEG
  6
AUSGEZOGEN
 62
     7
  2
210015
 10
619.370956896782
 20
1768.493375617981
 30
393.9524999786169
 41
0.5
 42
0.5
 43
0.5
  0
INSERT
  5
AF
  8
TB_44_PV-P-VERKEHRSWEG
  6
AUSGEZOGEN
 62
     7
  2
210015
 10
617.7685974817276
 20
1771.605038198471
 30
393.8649999796269
 41
0.5
 42
0.5
 43
0.5
  0
INSERT
  5
B0
  8
TB_44_PV-P-VERKEHRSWEG
  6
AUSGEZOGEN
 62
     7
  2
210015
 10
616.1662379980088
 20
1774.716700915337
 30
393.7774999768739
 41
0.5
 42
0.5
 43
0.5
  0
INSERT
  5
B1
  8
TB_44_PV-P-VERKEHRSWEG
  6
AUSGEZOGEN
 62
     7
  2
210015
 10
614.9257245788574
 20
1766.204290724754
 30
393.9274999722987
 41
0.5
 42
0.5
 43
0.5
  0
INSERT
  5
B2
  8
TB_44_PV-P-VERKEHRSWEG
  6
AUSGEZOGEN
 62
     7
  2
210015
 10
613.3233651704788
 20
1769.315953296662
 30
393.8399999736349
 41
0.5
 42
0.5
 43
0.5
  0
INSERT
  5
B3
  8
TB_44_PV-P-VERKEHRSWEG
  6
AUSGEZOGEN
 62
     7
  2
210015
 10
611.7210056829452
 20
1772.427616017342
 30
393.7524999706969
 41
0.5
 42
0.5
 43
0.5
  0
INSERT
  5
B4
  8
TB_44_PV-P-VERKEHRSWEG
  6
AUSGEZOGEN
 62
     7
  2
210015
 10
610.4804922618866
 20
1763.915205831528
 30
393.9024999659805
 41
0.5
 42
0.5
 43
0.5
  0
INSERT
  5
B5
  8
TB_44_PV-P-VERKEHRSWEG
  6
AUSGEZOGEN
 62
     7
  2
210015
 10
608.87813285923
 20
1767.026868391991
 30
393.8149999676428
 41
0.5
 42
0.5
 43
0.5
  0
INSERT
  5
B6
  8
TB_44_PV-P-VERKEHRSWEG
  6
AUSGEZOGEN
 62
     7
  2
210015
 10
607.2757733688354
 20
1770.138531118393
 30
393.7274999645198
 41
0.5
 42
0.5
 43
0.5
  0
INSERT
  5
B7
  8
TB_44_PV-P-VERKEHRSWEG
  6
AUSGEZOGEN
 62
     7
  2
210015
 10
606.0352599449158
 20
1761.626120939255
 30
393.8774999596624
 41
0.5
 42
0.5
 43
0.5
  0
INSERT
  5
B8
  8
TB_44_PV-P-VERKEHRSWEG
  6
AUSGEZOGEN
 62
     7
  2
210015
 10
604.4329005479813
 20
1764.737783486366
 30
393.7899999616507
 41
0.5
 42
0.5
 43
0.5
  0
INSERT
  5
B9
  8
TB_44_PV-P-VERKEHRSWEG
  6
AUSGEZOGEN
 62
     7
  2
210015
 10
602.8305410547257
 20
1767.849446221352
 30
393.7024999583428
 41
0.5
 42
0.5
 43
0.5
  0
INSERT
  5
BA
  8
TB_44_PV-P-VERKEHRSWEG
  6
AUSGEZOGEN
 62
     7
  2
210015
 10
601.5900276260376
 20
1759.337036046028
 30
393.8525386550323
 41
0.5
 42
0.5
 43
0.5
  0
INSERT
  5
BB
  8
TB_44_PV-P-VERKEHRSWEG
  6
AUSGEZOGEN
 62
     7
  2
210015
 10
599.9876682367325
 20
1762.448698580742
 30
393.7650386573467
 41
0.5
 42
0.5
 43
0.5
  0
INSERT
  5
BC
  8
TB_44_PV-P-VERKEHRSWEG
  6
AUSGEZOGEN
 62
     7
  2
210015
 10
598.3853087396622
 20
1765.560361322403
 30
393.677538653854
 41
0.5
 42
0.5
 43
0.5
  0
INSERT
  5
BD
  8
TB_44_PV-P-VERKEHRSWEG
  6
AUSGEZOGEN
 62
     7
  2
210015
 10
598.8370803785324
 20
1757.181892891884
 30
393.8444819480431
 41
0.5
 42
0.5
 43
0.5
  0
INSERT
  5
BE
  8
TB_44_PV-P-VERKEHRSWEG
  6
AUSGEZOGEN
 62
     7
  2
210015
 10
596.0281723070145
 20
1759.468716836929
 30
393.7539297244665
 41
0.5
 42
0.5
 43
0.5
  0
INSERT
  5
BF
  8
TB_44_PV-P-VERKEHRSWEG
  6
AUSGEZOGEN
 62
     7
  2
210015
 10
592.358107290268
 20
1762.456636822701
 30
393.6356159386388
 41
0.5
 42
0.5
 43
0.5
  0
INSERT
  5
C0
  8
TB_44_PV-P-VERKEHRSWEG
  6
AUSGEZOGEN
 62
     7
  2
210015
 10
597.7382408771515
 20
1754.275765518189
 30
393.8640855445021
 41
0.5
 42
0.5
 43
0.5
  0
INSERT
  5
C1
  8
TB_44_PV-P-VERKEHRSWEG
  6
AUSGEZOGEN
 62
     7
  2
210015
 10
593.950635052681
 20
1754.977912167549
 30
393.7677820924703
 41
0.5
 42
0.5
 43
0.5
  0
INSERT
  5
C2
  8
TB_44_PV-P-VERKEHRSWEG
  6
AUSGEZOGEN
 62
     7
  2
210015
 10
589.7772571172715
 20
1755.751573280334
 30
393.661670020499
 41
0.5
 42
0.5
 43
0.5
  0
INSERT
  5
C3
  8
TB_44_PV-P-VERKEHRSWEG
  6
AUSGEZOGEN
 62
     7
  2
210015
 10
598.0900861120224
 20
1750.574229478836
 30
393.8927821301271
 41
0.5
 42
0.5
 43
0.5
  0
INSERT
  5
C4
  8
TB_44_PV-P-VERKEHRSWEG
  6
AUSGEZOGEN
 62
     7
  2
210015
 10
594.1300277175903
 20
1750.010370723724
 30
393.7927821327019
 41
0.5
 42
0.5
 43
0.5
  0
INSERT
  5
C5
  8
TB_44_PV-P-VERKEHRSWEG
  6
AUSGEZOGEN
 62
     7
  2
210015
 10
590.6649768247604
 20
1749.516994342804
 30
393.7052821400639
 41
0.5
 42
0.5
 43
0.5
  0
INSERT
  5
C6
  8
TB_44_PV-P-VERKEHRSWEG
  6
AUSGEZOGEN
 62
     7
  2
210015
 10
598.794909526825
 20
1745.624156352997
 30
393.9177821691872
 41
0.5
 42
0.5
 43
0.5
  0
INSERT
  5
C7
  8
TB_44_PV-P-VERKEHRSWEG
  6
AUSGEZOGEN
 62
     7
  2
210015
 10
594.8348511791229
 20
1745.060297604561
 30
393.8177821729336
 41
0.5
 42
0.5
 43
0.5
  0
INSERT
  5
C8
  8
TB_44_PV-P-VERKEHRSWEG
  6
AUSGEZOGEN
 62
     7
  2
210015
 10
591.3698002796173
 20
1744.566921221733
 30
393.7302821801205
 41
0.5
 42
0.5
 43
0.5
  0
INSERT
  5
C9
  8
TB_44_PV-P-VERKEHRSWEG
  6
AUSGEZOGEN
 62
     7
  2
210015
 10
599.4997329416275
 20
1740.674083226204
 30
393.9427822082474
 41
0.5
 42
0.5
 43
0.5
  0
INSERT
  5
CA
  8
TB_44_PV-P-VERKEHRSWEG
  6
AUSGEZOGEN
 62
     7
  2
210015
 10
595.5396746397018
 20
1740.110224485397
 30
393.8427822131652
 41
0.5
 42
0.5
 43
0.5
  0
INSERT
  5
CB
  8
TB_44_PV-P-VERKEHRSWEG
  6
AUSGEZOGEN
 62
     7
  2
210015
 10
592.0746237344742
 20
1739.616848101616
 30
393.7552822201773
 41
0.5
 42
0.5
 43
0.5
  0
INSERT
  5
CC
  8
TB_44_PV-P-VERKEHRSWEG
  6
AUSGEZOGEN
 62
     7
  2
210015
 10
600.2045563564301
 20
1735.724010101318
 30
393.9677822473076
 41
0.5
 42
0.5
 43
0.5
  0
INSERT
  5
CD
  8
TB_44_PV-P-VERKEHRSWEG
  6
AUSGEZOGEN
 62
     7
  2
210015
 10
596.2444981021881
 20
1735.160151366234
 30
393.8677822533969
 41
0.5
 42
0.5
 43
0.5
  0
INSERT
  5
CE
  8
TB_44_PV-P-VERKEHRSWEG
  6
AUSGEZOGEN
 62
     7
  2
210015
 10
592.7794471883774
 20
1734.666774981499
 30
393.7802822602339
 41
0.5
 42
0.5
 43
0.5
  0
INSERT
  5
CF
  8
TB_44_PV-P-VERKEHRSWEG
  6
AUSGEZOGEN
 62
     7
  2
210015
 10
600.9093797712326
 20
1730.773936974525
 30
393.9927822863677
 41
0.5
 42
0.5
 43
0.5
  0
INSERT
  5
D0
  8
TB_44_PV-P-VERKEHRSWEG
  6
AUSGEZOGEN
 62
     7
  2
210015
 10
596.9493215627671
 20
1730.210078246117
 30
393.8927822936286
 41
0.5
 42
0.5
 43
0.5
  0
INSERT
  5
D1
  8
TB_44_PV-P-VERKEHRSWEG
  6
AUSGEZOGEN
 62
     7
  2
210015
 10
593.4842706432343
 20
1729.716701860428
 30
393.8052823002906
 41
0.5
 42
0.5
 43
0.5
  0
INSERT
  5
D2
  8
TB_44_PV-P-VERKEHRSWEG
  6
AUSGEZOGEN
 62
     7
  2
210015
 10
601.6142031869888
 20
1725.823863847733
 30
394.0177823254278
 41
0.5
 42
0.5
 43
0.5
  0
INSERT
  5
D3
  8
TB_44_PV-P-VERKEHRSWEG
  6
AUSGEZOGEN
 62
     7
  2
210015
 10
597.6541450242996
 20
1725.260005126953
 30
393.9177823338602
 41
0.5
 42
0.5
 43
0.5
  0
INSERT
  5
D4
  8
TB_44_PV-P-VERKEHRSWEG
  6
AUSGEZOGEN
 62
     7
  2
210015
 10
594.1890940971375
 20
1724.766628740311
 30
393.8302823403472
 41
0.5
 42
0.5
 43
0.5
  0
INSERT
  5
D5
  8
TB_44_PV-P-VERKEHRSWEG
  6
AUSGEZOGEN
 62
     7
  2
210015
 10
602.3190266017914
 20
1720.873790721893
 30
394.042782364488
 41
0.5
 42
0.5
 43
0.5
  0
INSERT
  5
D6
  8
TB_44_PV-P-VERKEHRSWEG
  6
AUSGEZOGEN
 62
     7
  2
210015
 10
598.3589684858322
 20
1720.309932006836
 30
393.9427823740919
 41
0.5
 42
0.5
 43
0.5
  0
INSERT
  5
D7
  8
TB_44_PV-P-VERKEHRSWEG
  6
AUSGEZOGEN
 62
     7
  2
210015
 10
594.8939175519944
 20
1719.816555620193
 30
393.8552823804039
 41
0.5
 42
0.5
 43
0.5
  0
INSERT
  5
D8
  8
TB_44_PV-P-VERKEHRSWEG
  6
AUSGEZOGEN
 62
     7
  2
210015
 10
603.023850016594
 20
1715.923717596054
 30
394.0677824035483
 41
0.5
 42
0.5
 43
0.5
  0
INSERT
  5
D9
  8
TB_44_PV-P-VERKEHRSWEG
  6
AUSGEZOGEN
 62
     7
  2
210015
 10
599.0637919473648
 20
1715.359858887673
 30
393.9677824143236
 41
0.5
 42
0.5
 43
0.5
  0
INSERT
  5
DA
  8
TB_44_PV-P-VERKEHRSWEG
  6
AUSGEZOGEN
 62
     7
  2
210015
 10
595.5987410068512
 20
1714.866482499123
 30
393.8802824204605
 41
0.5
 42
0.5
 43
0.5
  0
INSERT
  5
DB
  8
TB_44_PV-P-VERKEHRSWEG
  6
AUSGEZOGEN
 62
     7
  2
210015
 10
603.7465116424561
 20
1711.759790531158
 30
394.0991798296904
 41
0.5
 42
0.5
 43
0.5
  0
INSERT
  5
DC
  8
TB_44_PV-P-VERKEHRSWEG
  6
AUSGEZOGEN
 62
     7
  2
210015
 10
599.9666725416183
 20
1710.451046525955
 30
393.9991798469044
 41
0.5
 42
0.5
 43
0.5
  0
INSERT
  5
DD
  8
TB_44_PV-P-VERKEHRSWEG
  6
AUSGEZOGEN
 62
     7
  2
210015
 10
596.6593130578995
 20
1709.305895427704
 30
393.9116798547707
 41
0.5
 42
0.5
 43
0.5
  0
INSERT
  5
DE
  8
TB_44_PV-P-VERKEHRSWEG
  6
AUSGEZOGEN
 62
     7
  2
210015
 10
605.4237325048447
 20
1709.088127408028
 30
394.1471161723916
 41
0.5
 42
0.5
 43
0.5
  0
INSERT
  5
DF
  8
TB_44_PV-P-VERKEHRSWEG
  6
AUSGEZOGEN
 62
     7
  2
210015
 10
602.6023046178818
 20
1706.25271872139
 30
394.0471161794722
 41
0.5
 42
0.5
 43
0.5
  0
INSERT
  5
E0
  8
TB_44_PV-P-VERKEHRSWEG
  6
AUSGEZOGEN
 62
     7
  2
210015
 10
600.1335553512573
 20
1703.771736258507
 30
393.9596161904214
 41
0.5
 42
0.5
 43
0.5
  0
INSERT
  5
E1
  8
TB_44_PV-P-VERKEHRSWEG
  6
AUSGEZOGEN
 62
     7
  2
210015
 10
608.103653678894
 20
1707.424133738518
 30
394.2117191831975
 41
0.5
 42
0.5
 43
0.5
  0
INSERT
  5
E2
  8
TB_44_PV-P-VERKEHRSWEG
  6
AUSGEZOGEN
 62
     7
  2
210015
 10
606.8136089134216
 20
1703.637870944023
 30
394.1117191787067
 41
0.5
 42
0.5
 43
0.5
  0
INSERT
  5
E3
  8
TB_44_PV-P-VERKEHRSWEG
  6
AUSGEZOGEN
 62
     7
  2
210015
 10
605.6848199491501
 20
1700.324891594887
 30
394.0242191905152
 41
0.5
 42
0.5
 43
0.5
  0
INSERT
  5
E4
  8
TB_44_PV-P-VERKEHRSWEG
  6
AUSGEZOGEN
 62
     7
  2
210015
 10
613.1104015188217
 20
1705.819731473923
 30
394.2950012043502
 41
0.5
 42
0.5
 43
0.5
  0
INSERT
  5
E5
  8
TB_44_PV-P-VERKEHRSWEG
  6
AUSGEZOGEN
 62
     7
  2
210015
 10
611.5527492876053
 20
1702.048239198685
 30
394.1929888446078
 41
0.5
 42
0.5
 43
0.5
  0
INSERT
  5
E6
  8
TB_44_PV-P-VERKEHRSWEG
  6
AUSGEZOGEN
 62
     7
  2
210015
 10
610.1075630569458
 20
1698.549057162285
 30
394.0983420071145
 41
0.5
 42
0.5
 43
0.5
  0
INSERT
  5
E7
  8
TB_44_PV-P-VERKEHRSWEG
  6
AUSGEZOGEN
 62
     7
  2
210015
 10
619.1115405750274
 20
1703.89818603611
 30
394.4255357698926
 41
0.5
 42
0.5
 43
0.5
  0
INSERT
  5
E8
  8
TB_44_PV-P-VERKEHRSWEG
  6
AUSGEZOGEN
 62
     7
  2
210015
 10
615.888785077095
 20
1699.584734323502
 30
394.2909251771757
 41
0.5
 42
0.5
 43
0.5
  0
INSERT
  5
E9
  8
TB_44_PV-P-VERKEHRSWEG
  6
AUSGEZOGEN
 62
     7
  2
210015
 10
613.2634170913697
 20
1696.07084751606
 30
394.1812667371111
 41
0.5
 42
0.5
 43
0.5
  0
INSERT
  5
EA
  8
TB_44_PV-P-VERKEHRSWEG
  6
AUSGEZOGEN
 62
     7
  2
210015
 10
625.8220110244752
 20
1701.244018567085
 30
394.6092711776766
 41
0.5
 42
0.5
 43
0.5
  0
INSERT
  5
EB
  8
TB_44_PV-P-VERKEHRSWEG
  6
AUSGEZOGEN
 62
     7
  2
210015
 10
619.4805431556701
 20
1696.125061429977
 30
394.4055281764102
 41
0.5
 42
0.5
 43
0.5
  0
INSERT
  5
EC
  8
TB_44_PV-P-VERKEHRSWEG
  6
AUSGEZOGEN
 62
     7
  2
210015
 10
615.5496235380173
 20
1692.951946081162
 30
394.279232912103
 41
0.5
 42
0.5
 43
0.5
  0
INSERT
  5
ED
  8
TB_44_PV-P-VERKEHRSWEG
  6
AUSGEZOGEN
 62
     7
  2
210015
 10
629.7402059497833
 20
1695.378068768501
 30
394.74032160476
 41
0.5
 42
0.5
 43
0.5
  0
INSERT
  5
EE
  8
TB_44_PV-P-VERKEHRSWEG
  6
AUSGEZOGEN
 62
     7
  2
210015
 10
622.1047054014206
 20
1691.884326218605
 30
394.5304003313906
 41
0.5
 42
0.5
 43
0.5
  0
INSERT
  5
EF
  8
TB_44_PV-P-VERKEHRSWEG
  6
AUSGEZOGEN
 62
     7
  2
210015
 10
616.8916795282364
 20
1689.499024796486
 30
394.3870796646016
 41
0.5
 42
0.5
 43
0.5
  0
ENDSEC
  0
EOF
