  0
SECTION
  2
ENTITIES
  0
POINT
 10
655.094
 20
-265.937
 30
0.000
  8
STANDARD
  0
POINT
 10
894.094
 20
-407.937
 30
0.000
  8
STANDARD
  0
POINT
 10
733.094
 20
-667.937
 30
0.000
  8
STANDARD
  0
POINT
 10
495.094
 20
-501.937
 30
0.000
  8
STANDARD
  0
POINT
 10
696.731
 20
-448.028
 30
1.000
  8
STANDARD
  0
LINE
 10
894.094
 20
-407.937
 30
0.000
 11
696.731
 21
-448.028
 31
1.000
  8
STANDARD
  0
LINE
 10
495.094
 20
-501.937
 30
0.000
 11
696.731
 21
-448.028
 31
1.000
  8
STANDARD
  0
LINE
 10
655.094
 20
-265.937
 30
0.000
 11
696.731
 21
-448.028
 31
1.000
  8
STANDARD
  0
LINE
 10
733.094
 20
-667.937
 30
0.000
 11
696.731
 21
-448.028
 31
1.000
  8
STANDARD
  0
LINE
 10
655.094
 20
-265.937
 30
0.000
 11
495.094
 21
-501.937
 31
0.000
  8
STANDARD
  0
LINE
 10
894.094
 20
-407.937
 30
0.000
 11
733.094
 21
-667.937
 31
0.000
  8
STANDARD
  0
LINE
 10
655.094
 20
-265.937
 30
0.000
 11
894.094
 21
-407.937
 31
0.000
  8
STANDARD
  0
LINE
 10
733.094
 20
-667.937
 30
0.000
 11
495.094
 21
-501.937
 31
0.000
  8
STANDARD
  0
3DFACE
 10
495.094
 20
-501.937
 30
0.000
 11
655.094
 21
-265.937
 31
0.000
 12
696.731
 22
-448.028
 32
1.000
 13
495.094
 23
-501.937
 33
0.000
  8
STANDARD
  0
3DFACE
 10
696.731
 20
-448.028
 30
1.000
 11
655.094
 21
-265.937
 31
0.000
 12
894.094
 22
-407.937
 32
0.000
 13
696.731
 23
-448.028
 33
1.000
  8
STANDARD
  0
3DFACE
 10
696.731
 20
-448.028
 30
1.000
 11
894.094
 21
-407.937
 31
0.000
 12
733.094
 22
-667.937
 32
0.000
 13
696.731
 23
-448.028
 33
1.000
  8
STANDARD
  0
3DFACE
 10
696.731
 20
-448.028
 30
1.000
 11
733.094
 21
-667.937
 31
0.000
 12
495.094
 22
-501.937
 32
0.000
 13
696.731
 23
-448.028
 33
1.000
  8
STANDARD
  0
POINT
 10
470.000
 20
-272.000
 30
0.000
  8
Cc_STANDARD
  0
POINT
 10
819.000
 20
-283.000
 30
0.000
  8
Cc_STANDARD
  0
POINT
 10
834.000
 20
-602.000
 30
0.000
  8
Cc_STANDARD
  0
POINT
 10
480.000
 20
-591.000
 30
0.000
  8
Cc_STANDARD
  0
POINT
 10
658.000
 20
-428.000
 30
1.000
  8
Cc_STANDARD
  0
LINE
 10
819.000
 20
-283.000
 30
0.000
 11
658.000
 21
-428.000
 31
1.000
  8
Cc_STANDARD
  0
LINE
 10
480.000
 20
-591.000
 30
0.000
 11
658.000
 21
-428.000
 31
1.000
  8
Cc_STANDARD
  0
LINE
 10
470.000
 20
-272.000
 30
0.000
 11
658.000
 21
-428.000
 31
1.000
  8
Cc_STANDARD
  0
LINE
 10
834.000
 20
-602.000
 30
0.000
 11
658.000
 21
-428.000
 31
1.000
  8
Cc_STANDARD
  0
LINE
 10
470.000
 20
-272.000
 30
0.000
 11
480.000
 21
-591.000
 31
0.000
  8
Cc_STANDARD
  0
LINE
 10
819.000
 20
-283.000
 30
0.000
 11
834.000
 21
-602.000
 31
0.000
  8
Cc_STANDARD
  0
LINE
 10
470.000
 20
-272.000
 30
0.000
 11
819.000
 21
-283.000
 31
0.000
  8
Cc_STANDARD
  0
LINE
 10
834.000
 20
-602.000
 30
0.000
 11
480.000
 21
-591.000
 31
0.000
  8
Cc_STANDARD
  0
3DFACE
 10
480.000
 20
-591.000
 30
0.000
 11
470.000
 21
-272.000
 31
0.000
 12
658.000
 22
-428.000
 32
1.000
 13
480.000
 23
-591.000
 33
0.000
  8
Cc_STANDARD
  0
3DFACE
 10
658.000
 20
-428.000
 30
1.000
 11
470.000
 21
-272.000
 31
0.000
 12
819.000
 22
-283.000
 32
0.000
 13
658.000
 23
-428.000
 33
1.000
  8
Cc_STANDARD
  0
3DFACE
 10
658.000
 20
-428.000
 30
1.000
 11
819.000
 21
-283.000
 31
0.000
 12
834.000
 22
-602.000
 32
0.000
 13
658.000
 23
-428.000
 33
1.000
  8
Cc_STANDARD
  0
3DFACE
 10
658.000
 20
-428.000
 30
1.000
 11
834.000
 21
-602.000
 31
0.000
 12
480.000
 22
-591.000
 32
0.000
 13
658.000
 23
-428.000
 33
1.000
  8
Cc_STANDARD
  0
POINT
 10
546.252
 20
-366.891
 30
0.500
  8
neuer Layer
  0
POINT
 10
843.177
 20
-329.210
 30
0.500
  8
neuer Layer
  0
POINT
 10
777.612
 20
-634.424
 30
0.500
  8
neuer Layer
  0
LINE
 10
546.252
 20
-366.891
 30
0.500
 11
843.177
 21
-329.210
 31
0.500
  8
neuer Layer
  0
LINE
 10
843.177
 20
-329.210
 30
0.500
 11
777.612
 21
-634.424
 31
0.500
  8
neuer Layer
  0
LINE
 10
777.612
 20
-634.424
 30
0.500
 11
546.252
 21
-366.891
 31
0.500
  8
neuer Layer
  0
3DFACE
 10
777.612
 20
-634.424
 30
0.500
 11
546.252
 21
-366.891
 31
0.500
 12
843.177
 22
-329.210
 32
0.500
 13
777.612
 23
-634.424
 33
0.500
  8
neuer Layer
  0
ENDSEC
  0
EOF
