  0
SECTION
  2
BLOCKS
  0
BLOCK
  2
Hoehenkote
 70
     0
 10
0.0
 20
0.0
 30
0.0
  3
Hoehenkote
  0
LINE
  8
0
 10
0
 20
1
 30
0.0
 11
0
 21
-1
 31
0.0
  0
LINE
  8
0
 10
-1
 20
0
 30
0.0
 11
1
 21
0
 31
0.0
  0
CIRCLE
  8
0
 10
0.0
 20
0.0 
 30
0.0
 40
0.5
  0
SOLID
  8
0
 62
250
 10
0
 20
0
 11
0.5
 21
0
 12
0.353553391
 22
0.353553391
 13
0.461939766
 23
0.191341716
  0
SOLID
  8
0
 62
250
 10
0
 20
0
 11
0.353553391
 21
0.353553391
 12
0
 22
0.5
 13
0.191341716
 23
0.461939766
  0
SOLID
  8
0
 62
255
 10
0
 20
0
 11
0
 21
0.5
 12
-0.353553391
 22
0.353553391
 13
-0.191341716
 23
0.461939766
  0
SOLID
  8
0
 62
255
 10
0
 20
0
 11
-0.353553391
 21
0.353553391
 12
-0.5
 22
0
 13
-0.461939766
 23
0.191341716
  0
SOLID
  8
0
 62
250
 10
0
 20
0
 11
-0.5
 21
0
 12
-0.353553391
 22
-0.353553391
 13
-0.461939766
 23
-0.191341716
  0
SOLID
  8
0
 62
250
 10
0
 20
0
 11
-0.353553391
 21
-0.353553391
 12
0
 22
-0.5
 13
-0.191341716
 23
-0.461939766
  0
SOLID
  8
0
 62
255
 10
0
 20
0
 11
0
 21
-0.5
 12
0.353553391
 22
-0.353553391
 13
0.191341716
 23
-0.461939766
  0
SOLID
  8
0
 62
255
 10
0
 20
0
 11
0.353553391
 21
-0.353553391
 12
0.5
 22
0
 13
0.461939766
 23
-0.191341716
  0
ENDBLK
  0
ENDSEC
  0
SECTION
  2
ENTITIES
  0
POINT
 10
-12.0000
 20
-0.0000
 30
0.0000
  8
STANDARD
  0
POINT
 10
-11.0000
 20
1.0000
 30
0.0000
  8
STANDARD
  0
POINT
 10
-10.0000
 20
1.0000
 30
0.0000
  8
STANDARD
  0
POINT
 10
-9.0000
 20
-0.0000
 30
0.0000
  8
STANDARD
  0
POINT
 10
-9.0000
 20
-4.0000
 30
0.0000
  8
STANDARD
  0
POINT
 10
-12.0000
 20
-4.0000
 30
0.0000
  8
STANDARD
  0
POINT
 10
-10.0000
 20
-5.0000
 30
0.0000
  8
STANDARD
  0
POINT
 10
-11.0000
 20
-5.0000
 30
0.0000
  8
STANDARD
  0
POINT
 10
-6.0000
 20
1.0000
 30
0.0000
  8
STANDARD
  0
POINT
 10
-7.0000
 20
-1.0000
 30
0.0000
  8
STANDARD
  0
POINT
 10
-6.0000
 20
-5.0000
 30
0.0000
  8
STANDARD
  0
POINT
 10
-3.0000
 20
1.0000
 30
0.0000
  8
STANDARD
  0
POINT
 10
-4.0000
 20
-0.0000
 30
0.0000
  8
STANDARD
  0
POINT
 10
-2.0000
 20
1.0000
 30
0.0000
  8
STANDARD
  0
POINT
 10
-1.0000
 20
-0.0000
 30
0.0000
  8
STANDARD
  0
POINT
 10
-1.0000
 20
-2.0000
 30
0.0000
  8
STANDARD
  0
POINT
 10
-4.0000
 20
-5.0000
 30
0.0000
  8
STANDARD
  0
POINT
 10
-1.0000
 20
-5.0000
 30
0.0000
  8
STANDARD
  0
POINT
 10
1.0000
 20
1.0000
 30
0.0000
  8
STANDARD
  0
POINT
 10
4.0000
 20
1.0000
 30
0.0000
  8
STANDARD
  0
POINT
 10
4.0000
 20
-0.0000
 30
0.0000
  8
STANDARD
  0
POINT
 10
2.0000
 20
-2.0000
 30
0.0000
  8
STANDARD
  0
POINT
 10
3.0000
 20
-2.0000
 30
0.0000
  8
STANDARD
  0
POINT
 10
4.0000
 20
-3.0000
 30
0.0000
  8
STANDARD
  0
POINT
 10
4.0000
 20
-4.0000
 30
0.0000
  8
STANDARD
  0
POINT
 10
3.0000
 20
-5.0000
 30
0.0000
  8
STANDARD
  0
POINT
 10
2.0000
 20
-5.0000
 30
0.0000
  8
STANDARD
  0
POINT
 10
1.0000
 20
-4.0000
 30
0.0000
  8
STANDARD
  0
POINT
 10
6.0000
 20
-2.0000
 30
0.0000
  8
STANDARD
  0
POINT
 10
6.0000
 20
1.0000
 30
0.0000
  8
STANDARD
  0
POINT
 10
9.0000
 20
-2.0000
 30
0.0000
  8
STANDARD
  0
POINT
 10
8.0000
 20
-5.0000
 30
0.0000
  8
STANDARD
  0
POINT
 10
8.0000
 20
-1.0000
 30
0.0000
  8
STANDARD
  0
POINT
 10
-14.0000
 20
1.0000
 30
0.0000
  8
STANDARD
  0
POINT
 10
-17.0000
 20
1.0000
 30
0.0000
  8
STANDARD
  0
POINT
 10
-17.0000
 20
-1.0000
 30
0.0000
  8
STANDARD
  0
POINT
 10
-15.0000
 20
-1.0000
 30
0.0000
  8
STANDARD
  0
POINT
 10
-14.0000
 20
-2.0000
 30
0.0000
  8
STANDARD
  0
POINT
 10
-14.0000
 20
-3.0000
 30
0.0000
  8
STANDARD
  0
POINT
 10
-14.0000
 20
-4.0000
 30
0.0000
  8
STANDARD
  0
POINT
 10
-15.0000
 20
-5.0000
 30
0.0000
  8
STANDARD
  0
POINT
 10
-16.0000
 20
-5.0000
 30
0.0000
  8
STANDARD
  0
POINT
 10
-17.0000
 20
-4.0000
 30
0.0000
  8
STANDARD
  0
POINT
 10
-13.8820
 20
26.5344
 30
501234.0000
  8
STANDARD
  0
POINT
 10
-9.0221
 20
219.1557
 30
0.0000
  8
STANDARD
  0
POINT
 10
-7.6021
 20
220.5757
 30
0.0000
  8
STANDARD
  0
POINT
 10
-6.1821
 20
220.5757
 30
0.0000
  8
STANDARD
  0
POINT
 10
-4.7621
 20
219.1557
 30
0.0000
  8
STANDARD
  0
POINT
 10
-4.7621
 20
213.4757
 30
0.0000
  8
STANDARD
  0
POINT
 10
-9.0221
 20
213.4757
 30
0.0000
  8
STANDARD
  0
POINT
 10
-6.1821
 20
212.0557
 30
0.0000
  8
STANDARD
  0
POINT
 10
-7.6021
 20
212.0557
 30
0.0000
  8
STANDARD
  0
POINT
 10
-0.5021
 20
220.5757
 30
0.0000
  8
STANDARD
  0
POINT
 10
-1.9221
 20
217.7357
 30
0.0000
  8
STANDARD
  0
POINT
 10
-0.5021
 20
212.0557
 30
0.0000
  8
STANDARD
  0
POINT
 10
3.7579
 20
220.5757
 30
0.0000
  8
STANDARD
  0
POINT
 10
2.3379
 20
219.1557
 30
0.0000
  8
STANDARD
  0
POINT
 10
5.1779
 20
220.5757
 30
0.0000
  8
STANDARD
  0
POINT
 10
6.5979
 20
219.1557
 30
0.0000
  8
STANDARD
  0
POINT
 10
6.5979
 20
216.3157
 30
0.0000
  8
STANDARD
  0
POINT
 10
2.3379
 20
212.0557
 30
0.0000
  8
STANDARD
  0
POINT
 10
6.5979
 20
212.0557
 30
0.0000
  8
STANDARD
  0
POINT
 10
9.4379
 20
220.5757
 30
0.0000
  8
STANDARD
  0
POINT
 10
13.6979
 20
220.5757
 30
0.0000
  8
STANDARD
  0
POINT
 10
13.6979
 20
219.1557
 30
0.0000
  8
STANDARD
  0
POINT
 10
10.8579
 20
216.3157
 30
0.0000
  8
STANDARD
  0
POINT
 10
12.2779
 20
216.3157
 30
0.0000
  8
STANDARD
  0
POINT
 10
13.6979
 20
214.8957
 30
0.0000
  8
STANDARD
  0
POINT
 10
13.6979
 20
213.4757
 30
0.0000
  8
STANDARD
  0
POINT
 10
12.2779
 20
212.0557
 30
0.0000
  8
STANDARD
  0
POINT
 10
10.8579
 20
212.0557
 30
0.0000
  8
STANDARD
  0
POINT
 10
9.4379
 20
213.4757
 30
0.0000
  8
STANDARD
  0
POINT
 10
16.5379
 20
216.3157
 30
0.0000
  8
STANDARD
  0
POINT
 10
16.5379
 20
220.5757
 30
0.0000
  8
STANDARD
  0
POINT
 10
20.7979
 20
216.3157
 30
0.0000
  8
STANDARD
  0
POINT
 10
19.3779
 20
212.0557
 30
0.0000
  8
STANDARD
  0
POINT
 10
19.3779
 20
217.7357
 30
0.0000
  8
STANDARD
  0
POINT
 10
27.8979
 20
220.5757
 30
0.0000
  8
STANDARD
  0
POINT
 10
23.6379
 20
220.5757
 30
0.0000
  8
STANDARD
  0
POINT
 10
23.6379
 20
217.7357
 30
0.0000
  8
STANDARD
  0
POINT
 10
26.4779
 20
217.7357
 30
0.0000
  8
STANDARD
  0
POINT
 10
27.8979
 20
216.3157
 30
0.0000
  8
STANDARD
  0
POINT
 10
27.8979
 20
213.4757
 30
0.0000
  8
STANDARD
  0
POINT
 10
26.4779
 20
212.0557
 30
0.0000
  8
STANDARD
  0
POINT
 10
25.0579
 20
212.0557
 30
0.0000
  8
STANDARD
  0
POINT
 10
23.6379
 20
213.4757
 30
0.0000
  8
STANDARD
  0
LINE
 10
-11.0000
 20
1.0000
 30
0.0000
 11
-12.0000
 21
-0.0000
 31
0.0000
  8
STANDARD
  0
LINE
 10
-10.0000
 20
1.0000
 30
0.0000
 11
-11.0000
 21
1.0000
 31
0.0000
  8
STANDARD
  0
LINE
 10
-10.0000
 20
1.0000
 30
0.0000
 11
-9.0000
 21
-0.0000
 31
0.0000
  8
STANDARD
  0
LINE
 10
-9.0000
 20
-0.0000
 30
0.0000
 11
-9.0000
 21
-4.0000
 31
0.0000
  8
STANDARD
  0
LINE
 10
-9.0000
 20
-4.0000
 30
0.0000
 11
-10.0000
 21
-5.0000
 31
0.0000
  8
STANDARD
  0
LINE
 10
-10.0000
 20
-5.0000
 30
0.0000
 11
-11.0000
 21
-5.0000
 31
0.0000
  8
STANDARD
  0
LINE
 10
-11.0000
 20
-5.0000
 30
0.0000
 11
-12.0000
 21
-4.0000
 31
0.0000
  8
STANDARD
  0
LINE
 10
-12.0000
 20
-4.0000
 30
0.0000
 11
-12.0000
 21
-0.0000
 31
0.0000
  8
STANDARD
  0
LINE
 10
-6.0000
 20
1.0000
 30
0.0000
 11
-7.0000
 21
-1.0000
 31
0.0000
  8
STANDARD
  0
LINE
 10
-6.0000
 20
-5.0000
 30
0.0000
 11
-6.0000
 21
1.0000
 31
0.0000
  8
STANDARD
  0
LINE
 10
-3.0000
 20
1.0000
 30
0.0000
 11
-4.0000
 21
-0.0000
 31
0.0000
  8
STANDARD
  0
LINE
 10
-2.0000
 20
1.0000
 30
0.0000
 11
-3.0000
 21
1.0000
 31
0.0000
  8
STANDARD
  0
LINE
 10
-1.0000
 20
-0.0000
 30
0.0000
 11
-2.0000
 21
1.0000
 31
0.0000
  8
STANDARD
  0
LINE
 10
-1.0000
 20
-2.0000
 30
0.0000
 11
-1.0000
 21
-0.0000
 31
0.0000
  8
STANDARD
  0
LINE
 10
-4.0000
 20
-5.0000
 30
0.0000
 11
-1.0000
 21
-2.0000
 31
0.0000
  8
STANDARD
  0
LINE
 10
-1.0000
 20
-5.0000
 30
0.0000
 11
-4.0000
 21
-5.0000
 31
0.0000
  8
STANDARD
  0
LINE
 10
4.0000
 20
1.0000
 30
0.0000
 11
1.0000
 21
1.0000
 31
0.0000
  8
STANDARD
  0
LINE
 10
4.0000
 20
1.0000
 30
0.0000
 11
4.0000
 21
-0.0000
 31
0.0000
  8
STANDARD
  0
LINE
 10
4.0000
 20
-0.0000
 30
0.0000
 11
2.0000
 21
-2.0000
 31
0.0000
  8
STANDARD
  0
LINE
 10
3.0000
 20
-2.0000
 30
0.0000
 11
2.0000
 21
-2.0000
 31
0.0000
  8
STANDARD
  0
LINE
 10
4.0000
 20
-3.0000
 30
0.0000
 11
3.0000
 21
-2.0000
 31
0.0000
  8
STANDARD
  0
LINE
 10
4.0000
 20
-4.0000
 30
0.0000
 11
4.0000
 21
-3.0000
 31
0.0000
  8
STANDARD
  0
LINE
 10
3.0000
 20
-5.0000
 30
0.0000
 11
4.0000
 21
-4.0000
 31
0.0000
  8
STANDARD
  0
LINE
 10
2.0000
 20
-5.0000
 30
0.0000
 11
3.0000
 21
-5.0000
 31
0.0000
  8
STANDARD
  0
LINE
 10
1.0000
 20
-4.0000
 30
0.0000
 11
2.0000
 21
-5.0000
 31
0.0000
  8
STANDARD
  0
LINE
 10
6.0000
 20
-2.0000
 30
0.0000
 11
6.0000
 21
1.0000
 31
0.0000
  8
STANDARD
  0
LINE
 10
9.0000
 20
-2.0000
 30
0.0000
 11
6.0000
 21
-2.0000
 31
0.0000
  8
STANDARD
  0
LINE
 10
8.0000
 20
-5.0000
 30
0.0000
 11
8.0000
 21
-1.0000
 31
0.0000
  8
STANDARD
  0
LINE
 10
-14.0000
 20
1.0000
 30
0.0000
 11
-17.0000
 21
1.0000
 31
0.0000
  8
STANDARD
  0
LINE
 10
-17.0000
 20
-1.0000
 30
0.0000
 11
-17.0000
 21
1.0000
 31
0.0000
  8
STANDARD
  0
LINE
 10
-15.0000
 20
-1.0000
 30
0.0000
 11
-17.0000
 21
-1.0000
 31
0.0000
  8
STANDARD
  0
LINE
 10
-14.0000
 20
-2.0000
 30
0.0000
 11
-15.0000
 21
-1.0000
 31
0.0000
  8
STANDARD
  0
LINE
 10
-14.0000
 20
-3.0000
 30
0.0000
 11
-14.0000
 21
-2.0000
 31
0.0000
  8
STANDARD
  0
LINE
 10
-14.0000
 20
-4.0000
 30
0.0000
 11
-14.0000
 21
-3.0000
 31
0.0000
  8
STANDARD
  0
LINE
 10
-15.0000
 20
-5.0000
 30
0.0000
 11
-14.0000
 21
-4.0000
 31
0.0000
  8
STANDARD
  0
LINE
 10
-16.0000
 20
-5.0000
 30
0.0000
 11
-15.0000
 21
-5.0000
 31
0.0000
  8
STANDARD
  0
LINE
 10
-17.0000
 20
-4.0000
 30
0.0000
 11
-16.0000
 21
-5.0000
 31
0.0000
  8
STANDARD
  0
LINE
 10
-7.6021
 20
220.5757
 30
0.0000
 11
-9.0221
 21
219.1557
 31
0.0000
  8
STANDARD
  0
LINE
 10
-7.6021
 20
220.5757
 30
0.0000
 11
-6.1821
 21
220.5757
 31
0.0000
  8
STANDARD
  0
LINE
 10
-6.1821
 20
220.5757
 30
0.0000
 11
-4.7621
 21
219.1557
 31
0.0000
  8
STANDARD
  0
LINE
 10
-4.7621
 20
219.1557
 30
0.0000
 11
-4.7621
 21
213.4757
 31
0.0000
  8
STANDARD
  0
LINE
 10
-4.7621
 20
213.4757
 30
0.0000
 11
-6.1821
 21
212.0557
 31
0.0000
  8
STANDARD
  0
LINE
 10
-6.1821
 20
212.0557
 30
0.0000
 11
-7.6021
 21
212.0557
 31
0.0000
  8
STANDARD
  0
LINE
 10
-7.6021
 20
212.0557
 30
0.0000
 11
-9.0221
 21
213.4757
 31
0.0000
  8
STANDARD
  0
LINE
 10
-9.0221
 20
213.4757
 30
0.0000
 11
-9.0221
 21
219.1557
 31
0.0000
  8
STANDARD
  0
LINE
 10
-0.5021
 20
220.5757
 30
0.0000
 11
-1.9221
 21
217.7357
 31
0.0000
  8
STANDARD
  0
LINE
 10
-0.5021
 20
220.5757
 30
0.0000
 11
-0.5021
 21
212.0557
 31
0.0000
  8
STANDARD
  0
LINE
 10
3.7579
 20
220.5757
 30
0.0000
 11
2.3379
 21
219.1557
 31
0.0000
  8
STANDARD
  0
LINE
 10
3.7579
 20
220.5757
 30
0.0000
 11
5.1779
 21
220.5757
 31
0.0000
  8
STANDARD
  0
LINE
 10
5.1779
 20
220.5757
 30
0.0000
 11
6.5979
 21
219.1557
 31
0.0000
  8
STANDARD
  0
LINE
 10
6.5979
 20
219.1557
 30
0.0000
 11
6.5979
 21
216.3157
 31
0.0000
  8
STANDARD
  0
LINE
 10
6.5979
 20
216.3157
 30
0.0000
 11
2.3379
 21
212.0557
 31
0.0000
  8
STANDARD
  0
LINE
 10
2.3379
 20
212.0557
 30
0.0000
 11
6.5979
 21
212.0557
 31
0.0000
  8
STANDARD
  0
LINE
 10
13.6979
 20
220.5757
 30
0.0000
 11
9.4379
 21
220.5757
 31
0.0000
  8
STANDARD
  0
LINE
 10
13.6979
 20
220.5757
 30
0.0000
 11
13.6979
 21
219.1557
 31
0.0000
  8
STANDARD
  0
LINE
 10
13.6979
 20
219.1557
 30
0.0000
 11
10.8579
 21
216.3157
 31
0.0000
  8
STANDARD
  0
LINE
 10
10.8579
 20
216.3157
 30
0.0000
 11
12.2779
 21
216.3157
 31
0.0000
  8
STANDARD
  0
LINE
 10
12.2779
 20
216.3157
 30
0.0000
 11
13.6979
 21
214.8957
 31
0.0000
  8
STANDARD
  0
LINE
 10
13.6979
 20
214.8957
 30
0.0000
 11
13.6979
 21
213.4757
 31
0.0000
  8
STANDARD
  0
LINE
 10
13.6979
 20
213.4757
 30
0.0000
 11
12.2779
 21
212.0557
 31
0.0000
  8
STANDARD
  0
LINE
 10
12.2779
 20
212.0557
 30
0.0000
 11
10.8579
 21
212.0557
 31
0.0000
  8
STANDARD
  0
LINE
 10
10.8579
 20
212.0557
 30
0.0000
 11
9.4379
 21
213.4757
 31
0.0000
  8
STANDARD
  0
LINE
 10
16.5379
 20
216.3157
 30
0.0000
 11
16.5379
 21
220.5757
 31
0.0000
  8
STANDARD
  0
LINE
 10
16.5379
 20
216.3157
 30
0.0000
 11
20.7979
 21
216.3157
 31
0.0000
  8
STANDARD
  0
LINE
 10
19.3779
 20
212.0557
 30
0.0000
 11
19.3779
 21
217.7357
 31
0.0000
  8
STANDARD
  0
LINE
 10
23.6379
 20
220.5757
 30
0.0000
 11
27.8979
 21
220.5757
 31
0.0000
  8
STANDARD
  0
LINE
 10
23.6379
 20
220.5757
 30
0.0000
 11
23.6379
 21
217.7357
 31
0.0000
  8
STANDARD
  0
LINE
 10
23.6379
 20
217.7357
 30
0.0000
 11
26.4779
 21
217.7357
 31
0.0000
  8
STANDARD
  0
LINE
 10
26.4779
 20
217.7357
 30
0.0000
 11
27.8979
 21
216.3157
 31
0.0000
  8
STANDARD
  0
LINE
 10
27.8979
 20
216.3157
 30
0.0000
 11
27.8979
 21
213.4757
 31
0.0000
  8
STANDARD
  0
LINE
 10
27.8979
 20
213.4757
 30
0.0000
 11
26.4779
 21
212.0557
 31
0.0000
  8
STANDARD
  0
LINE
 10
26.4779
 20
212.0557
 30
0.0000
 11
25.0579
 21
212.0557
 31
0.0000
  8
STANDARD
  0
LINE
 10
25.0579
 20
212.0557
 30
0.0000
 11
23.6379
 21
213.4757
 31
0.0000
  8
STANDARD
  0
ENDSEC
  0
EOF
