  0
SECTION
  2
ENTITIES
  0
INSERT
 10
32,86325158
 20
70,67627844
 30
58,3697733
  8
STANDARD
  0
INSERT
 10
74,72532083
 20
54,06308855
 30
26,77252117
  8
STANDARD
  0
INSERT
 10
12,34147641
 20
76,79372862
 30
78,77565024
  8
STANDARD
  0
INSERT
 10
60,43759729
 20
68,60190458
 30
83,17355353
  8
STANDARD
  0
INSERT
 10
80,53783126
 20
95,02692242
 30
38,59829897
  8
STANDARD
  0
INSERT
 10
88,54673308
 20
21,47107362
 30
96,50751842
  8
STANDARD
  0
INSERT
 10
89,19411209
 20
3,876189941
 30
85,51906562
  8
STANDARD
  0
INSERT
 10
24,71890707
 20
55,04567623
 30
78,45778566
  8
STANDARD
  0
INSERT
 10
99,50690613
 20
94,99830712
 30
14,53760978
  8
STANDARD
  0
INSERT
 10
9,051359832
 20
67,43589438
 30
11,99941994
  8
STANDARD
  0
INSERT
 10
12,16687371
 20
18,60208066
 30
26,6161765
  8
STANDARD
  0
INSERT
 10
29,50875506
 20
10,38676062
 30
15,50649161
  8
STANDARD
  0
INSERT
 10
7,452843274
 20
28,23402099
 30
47,19550976
  8
STANDARD
  0
INSERT
 10
20,62173534
 20
15,11042552
 30
79,65522632
  8
STANDARD
  0
INSERT
 10
86,86065803
 20
84,84530373
 30
83,57231571
  8
STANDARD
  0
INSERT
 10
84,55986556
 20
50,95849986
 30
61,47335565
  8
STANDARD
  0
INSERT
 10
69,375862
 20
12,09125783
 30
62,55890017
  8
STANDARD
  0
INSERT
 10
38,84954956
 20
20,48851612
 30
26,76910252
  8
STANDARD
  0
INSERT
 10
63,39534023
 20
72,82784468
 30
59,79550913
  8
STANDARD
  0
INSERT
 10
82,79591313
 20
35,18599564
 30
51,2487581
  8
STANDARD
  0
INSERT
 10
73,80410509
 20
14,73909698
 30
4,825741411
  8
STANDARD
  0
INSERT
 10
33,42670737
 20
47,85788555
 30
64,58881226
  8
STANDARD
  0
INSERT
 10
17,83356645
 20
32,70509122
 30
73,98549765
  8
STANDARD
  0
INSERT
 10
74,95701586
 20
88,19405603
 30
4,212102775
  8
STANDARD
  0
INSERT
 10
38,51777613
 20
37,82887538
 30
34,92686042
  8
STANDARD
  0
INSERT
 10
70,90049834
 20
44,32845614
 30
12,20071233
  8
STANDARD
  0
INSERT
 10
19,55921678
 20
71,04148524
 30
22,87444342
  8
STANDARD
  0
INSERT
 10
6,964844898
 20
83,24873558
 30
44,05479239
  8
STANDARD
  0
INSERT
 10
38,56256207
 20
80,45183076
 30
29,02548815
  8
STANDARD
  0
INSERT
 10
13,05446419
 20
76,20322999
 30
84,20273603
  8
STANDARD
  0
INSERT
 10
33,75043988
 20
88,05749086
 30
59,3490403
  8
STANDARD
  0
INSERT
 10
60,89382103
 20
47,01555454
 30
36,75042082
  8
STANDARD
  0
INSERT
 10
37,38067587
 20
66,88893677
 30
36,42661198
  8
STANDARD
  0
INSERT
 10
57,2564193
 20
7,650557348
 30
64,21815679
  8
STANDARD
  0
INSERT
 10
75,89278948
 20
91,86994808
 30
55,20524766
  8
STANDARD
  0
INSERT
 10
30,96772961
 20
53,71243611
 30
9,116442291
  8
STANDARD
  0
INSERT
 10
38,46736419
 20
69,58734698
 30
9,983551028
  8
STANDARD
  0
INSERT
 10
73,02605141
 20
21,31675933
 30
98,04502434
  8
STANDARD
  0
INSERT
 10
11,43232994
 20
93,52309333
 30
33,08954184
  8
STANDARD
  0
INSERT
 10
33,26666906
 20
6,080046224
 30
49,41298721
  8
STANDARD
  0
INSERT
 10
15,45955405
 20
37,78579848
 30
21,79173741
  8
STANDARD
  0
INSERT
 10
86,47802251
 20
75,68122852
 30
2,591848949
  8
STANDARD
  0
INSERT
 10
52,54876888
 20
5,267428578
 30
86,76144331
  8
STANDARD
  0
INSERT
 10
46,25451876
 20
67,13421462
 30
19,64626836
  8
STANDARD
  0
INSERT
 10
21,62697419
 20
78,33219573
 30
28,6790754
  8
STANDARD
  0
INSERT
 10
76,51028881
 20
97,7757232
 30
40,94049924
  8
STANDARD
  0
INSERT
 10
60,85121757
 20
79,13040612
 30
66,79136521
  8
STANDARD
  0
INSERT
 10
65,49696148
 20
7,692125472
 30
76,28414209
  8
STANDARD
  0
INSERT
 10
83,95836997
 20
53,63637366
 30
65,69926725
  8
STANDARD
  0
INSERT
 10
55,32477004
 20
57,74709216
 30
22,62871545
  8
STANDARD
  0
INSERT
 10
8,044139702
 20
31,14620827
 30
98,60604964
  8
STANDARD
  0
INSERT
 10
19,05890167
 20
36,53374669
 30
58,81431637
  8
STANDARD
  0
INSERT
 10
74,21216593
 20
48,23878215
 30
76,63446758
  8
STANDARD
  0
INSERT
 10
25,66495283
 20
65,40113352
 30
46,41526
  8
STANDARD
  0
INSERT
 10
68,47828964
 20
15,39021949
 30
79,71634839
  8
STANDARD
  0
INSERT
 10
63,19708621
 20
15,08421387
 30
92,13867748
  8
STANDARD
  0
INSERT
 10
16,46176621
 20
77,03852246
 30
63,88920739
  8
STANDARD
  0
INSERT
 10
28,63687573
 20
10,68195746
 30
23,73378976
  8
STANDARD
  0
INSERT
 10
85,53126984
 20
52,54703172
 30
28,29970617
  8
STANDARD
  0
INSERT
 10
68,58844995
 20
89,04871762
 30
4,843490074
  8
STANDARD
  0
INSERT
 10
78,08611249
 20
52,48518006
 30
15,57187175
  8
STANDARD
  0
INSERT
 10
82,80159242
 20
81,51529059
 30
39,63551396
  8
STANDARD
  0
INSERT
 10
70,18821941
 20
11,97933566
 30
21,2799966
  8
STANDARD
  0
INSERT
 10
90,29631884
 20
78,79738964
 30
28,15982738
  8
STANDARD
  0
INSERT
 10
98,07626791
 20
0,272573421
 30
2,024146204
  8
STANDARD
  0
INSERT
 10
63,44373195
 20
85,46403737
 30
27,42738329
  8
STANDARD
  0
INSERT
 10
33,21518121
 20
84,34091055
 30
18,28359721
  8
STANDARD
  0
INSERT
 10
1,954704297
 20
95,60949211
 30
1,117450035
  8
STANDARD
  0
INSERT
 10
73,10660674
 20
38,66734283
 30
47,53258677
  8
STANDARD
  0
INSERT
 10
95,96032989
 20
85,27388531
 30
88,64312608
  8
STANDARD
  0
INSERT
 10
2,124784689
 20
83,58425742
 30
37,10034126
  8
STANDARD
  0
INSERT
 10
20,6003429
 20
23,17477524
 30
56,49140027
  8
STANDARD
  0
INSERT
 10
5,68530279
 20
56,05178216
 30
16,2544465
  8
STANDARD
  0
INSERT
 10
66,60168229
 20
44,00218603
 30
73,07024432
  8
STANDARD
  0
INSERT
 10
86,10650011
 20
5,04683574
 30
11,16830406
  8
STANDARD
  0
INSERT
 10
85,77436469
 20
35,72595883
 30
27,77869802
  8
STANDARD
  0
INSERT
 10
57,95811486
 20
50,08011663
 30
78,29436385
  8
STANDARD
  0
INSERT
 10
2,133913213
 20
72,52632127
 30
92,0325215
  8
STANDARD
  0
INSERT
 10
84,53018021
 20
61,6396902
 30
45,80394125
  8
STANDARD
  0
INSERT
 10
73,20279719
 20
75,16058142
 30
43,01537806
  8
STANDARD
  0
INSERT
 10
36,8620184
 20
52,39952442
 30
72,85727185
  8
STANDARD
  0
INSERT
 10
15,92014302
 20
72,78228158
 30
88,24474591
  8
STANDARD
  0
INSERT
 10
61,12077304
 20
18,8718041
 30
92,91291509
  8
STANDARD
  0
INSERT
 10
75,47823849
 20
65,03964418
 30
86,03440657
  8
STANDARD
  0
INSERT
 10
73,17634678
 20
6,175750295
 30
98,56277803
  8
STANDARD
  0
INSERT
 10
17,21590776
 20
31,6257085
 30
36,54520853
  8
STANDARD
  0
INSERT
 10
99,87938219
 20
90,24322846
 30
1,076174578
  8
STANDARD
  0
INSERT
 10
89,39822253
 20
59,91938352
 30
79,65978889
  8
STANDARD
  0
INSERT
 10
34,22854364
 20
5,61176009
 30
85,48869556
  8
STANDARD
  0
INSERT
 10
15,11703044
 20
7,534261718
 30
21,23881494
  8
STANDARD
  0
INSERT
 10
53,99654884
 20
65,31237795
 30
15,50190201
  8
STANDARD
  0
INSERT
 10
99,34776186
 20
48,25152378
 30
56,18848578
  8
STANDARD
  0
INSERT
 10
61,8200851
 20
45,70213699
 30
45,64958451
  8
STANDARD
  0
INSERT
 10
10,66332521
 20
18,61210983
 30
89,03344664
  8
STANDARD
  0
INSERT
 10
82,9923532
 20
73,45095812
 30
37,5778758
  8
STANDARD
  0
INSERT
 10
7,241263128
 20
43,47684641
 30
2,924584477
  8
STANDARD
  0
INSERT
 10
40,33008776
 20
25,73253206
 30
35,45510639
  8
STANDARD
  0
INSERT
 10
2,608117545
 20
72,55691634
 30
35,99953408
  8
STANDARD
  0
INSERT
 10
83,72007604
 20
80,98590646
 30
53,38151443
  8
STANDARD
  0
INSERT
 10
63,10276436
 20
63,68414317
 30
3,578306837
  8
STANDARD
  0
INSERT
 10
70,91767087
 20
63,41001782
 30
40,55007406
  8
STANDARD
  0
INSERT
 10
77,60099963
 20
20,06480687
 30
13,88849731
  8
STANDARD
  0
INSERT
 10
49,34250645
 20
54,57979939
 30
15,63317861
  8
STANDARD
  0
INSERT
 10
97,89171169
 20
53,2814132
 30
50,85349239
  8
STANDARD
  0
INSERT
 10
6,254935423
 20
57,66063764
 30
29,08426107
  8
STANDARD
  0
INSERT
 10
20,0802313
 20
61,82659073
 30
96,77636635
  8
STANDARD
  0
INSERT
 10
70,50968778
 20
85,30184065
 30
85,96519388
  8
STANDARD
  0
INSERT
 10
7,582204714
 20
79,64427752
 30
36,68246732
  8
STANDARD
  0
INSERT
 10
24,5510182
 20
94,10481808
 30
63,79930477
  8
STANDARD
  0
INSERT
 10
30,72423038
 20
16,48605962
 30
42,96867461
  8
STANDARD
  0
INSERT
 10
83,78187924
 20
5,087328091
 30
79,35892013
  8
STANDARD
  0
INSERT
 10
87,85848959
 20
41,0311298
 30
6,019743247
  8
STANDARD
  0
INSERT
 10
17,57304623
 20
86,87470119
 30
51,9260505
  8
STANDARD
  0
INSERT
 10
92,40716764
 20
39,30060834
 30
55,89228876
  8
STANDARD
  0
INSERT
 10
27,7298401
 20
47,47037951
 30
47,35020239
  8
STANDARD
  0
INSERT
 10
83,3953994
 20
41,13249798
 30
16,91477444
  8
STANDARD
  0
INSERT
 10
99,44972834
 20
82,97304929
 30
59,50125653
  8
STANDARD
  0
INSERT
 10
85,29053748
 20
2,796472644
 30
10,29240034
  8
STANDARD
  0
INSERT
 10
9,325848661
 20
74,52277702
 30
26,31640261
  8
STANDARD
  0
INSERT
 10
23,29754442
 20
62,76368647
 30
53,61385103
  8
STANDARD
  0
INSERT
 10
31,85342441
 20
45,50562272
 30
91,10318429
  8
STANDARD

  0
ENDSEC
  0
EOF
